{"glyphs":{"0":{"ha":868,"x_min":83,"x_max":785,"o":"m 434 -14 q 285 21 351 -14 q 175 122 220 56 q 106 285 130 188 q 83 505 83 381 q 107 724 83 628 q 176 887 131 821 q 286 989 221 954 q 434 1024 351 1024 q 582 989 517 1024 q 693 887 648 954 q 762 724 738 821 q 785 505 785 628 q 762 285 785 381 q 693 122 738 188 q 583 21 648 56 q 434 -14 518 -14 m 434 95 q 532 122 489 95 q 605 201 576 149 q 651 330 635 254 q 667 505 667 406 q 651 680 667 604 q 605 810 635 757 q 532 890 575 862 q 434 917 489 917 q 336 890 379 917 q 263 810 293 862 q 217 680 233 757 q 201 505 201 604 q 217 330 201 406 q 263 201 233 254 q 336 122 292 149 q 434 95 379 95 z "},"1":{"ha":645,"x_min":85,"x_max":460,"o":"m 460 0 l 337 0 l 337 882 l 331 882 l 85 718 l 85 842 l 337 1010 l 460 1010 l 460 0 z "},"2":{"ha":840,"x_min":105,"x_max":742,"o":"m 105 89 l 438 454 q 514 540 482 502 q 568 612 546 578 q 599 677 589 646 q 610 744 610 709 q 595 816 610 784 q 554 871 580 848 q 493 905 528 893 q 416 917 457 917 q 337 904 372 917 q 277 865 302 890 q 238 804 252 839 q 225 726 225 769 l 109 726 q 132 848 109 793 q 198 942 156 903 q 297 1002 240 981 q 420 1024 354 1024 q 543 1002 487 1024 q 639 942 598 980 q 702 854 679 905 q 724 744 724 802 q 719 689 724 716 q 704 636 715 663 q 677 579 694 608 q 635 517 659 550 q 576 444 610 483 q 499 359 543 405 l 272 116 l 272 109 l 742 109 l 742 0 l 105 0 l 105 89 z "},"3":{"ha":884,"x_min":103,"x_max":787,"o":"m 446 -14 q 311 5 372 -14 q 204 60 249 25 q 132 144 158 95 q 103 253 106 193 l 227 253 q 248 187 230 216 q 294 137 265 157 q 362 106 324 116 q 444 95 400 95 q 534 108 493 95 q 604 145 575 121 q 650 201 634 168 q 667 274 667 234 q 651 351 667 316 q 605 411 635 386 q 530 450 575 436 q 428 464 486 464 l 347 464 l 347 572 l 428 572 q 510 585 473 572 q 575 620 548 597 q 617 675 602 643 q 631 748 631 708 q 618 818 631 786 q 581 871 605 849 q 524 905 557 893 q 448 917 490 917 q 372 907 408 917 q 308 875 336 896 q 262 825 279 855 q 243 758 244 796 l 124 758 q 153 866 127 817 q 224 950 180 915 q 326 1005 268 985 q 450 1024 384 1024 q 576 1002 520 1024 q 670 942 631 980 q 729 856 709 905 q 750 754 750 807 q 738 674 750 711 q 705 608 727 637 q 653 558 684 579 q 584 525 622 537 l 584 517 q 670 488 632 509 q 733 436 707 467 q 773 363 760 404 q 787 274 787 323 q 776 196 787 233 q 742 126 764 158 q 690 68 721 94 q 621 24 659 42 q 539 -4 583 6 q 446 -14 495 -14 z "},"4":{"ha":892,"x_min":81,"x_max":811,"o":"m 81 308 l 525 1010 l 673 1010 l 673 316 l 811 316 l 811 207 l 673 207 l 673 0 l 556 0 l 556 207 l 81 207 l 81 308 m 556 854 l 548 854 l 213 324 l 213 316 l 556 316 l 556 854 z "},"5":{"ha":844,"x_min":107,"x_max":754,"o":"m 420 -14 q 299 6 355 -14 q 201 62 243 26 q 134 146 159 97 q 107 253 109 195 l 225 253 q 245 189 228 218 q 287 139 261 160 q 347 107 313 118 q 420 95 381 95 q 506 112 467 95 q 574 159 545 129 q 619 230 603 188 q 635 320 635 271 q 618 411 635 369 q 572 484 602 453 q 502 532 543 515 q 412 550 461 550 q 365 547 389 550 q 317 536 340 543 q 273 520 294 529 q 237 499 253 510 l 122 513 l 183 1010 l 708 1010 l 708 902 l 286 902 l 251 604 l 256 604 q 292 627 272 616 q 334 645 312 637 q 382 657 357 653 q 432 661 406 661 q 561 636 502 661 q 662 565 619 610 q 729 457 705 519 q 754 322 754 395 q 728 188 754 249 q 659 81 703 126 q 553 11 615 36 q 420 -14 492 -14 z "},"6":{"ha":866,"x_min":89,"x_max":777,"o":"m 440 -14 q 356 -3 399 -13 q 275 28 314 6 q 202 87 236 50 q 143 176 168 123 q 103 301 118 229 q 89 466 89 372 q 114 704 89 600 q 187 879 140 807 q 302 987 234 950 q 456 1024 370 1024 q 573 1004 519 1024 q 667 950 626 985 q 734 865 708 914 q 769 758 760 816 l 649 758 q 624 820 641 792 q 584 871 608 849 q 528 904 560 892 q 456 915 496 915 q 350 889 397 915 q 271 813 304 863 q 221 691 238 763 q 203 527 203 619 l 211 527 q 259 583 232 558 q 317 625 286 608 q 385 652 349 643 q 460 661 421 661 q 543 650 503 661 q 619 617 583 638 q 684 566 654 596 q 733 499 713 537 q 766 418 754 462 q 777 326 777 374 q 766 235 777 279 q 735 153 756 191 q 685 84 715 115 q 618 31 655 53 q 536 -2 581 9 q 440 -14 491 -14 m 440 95 q 526 113 486 95 q 596 162 566 131 q 642 236 625 193 q 659 326 659 278 q 643 414 659 372 q 598 486 626 455 q 530 535 569 517 q 444 552 490 552 q 356 534 397 552 q 286 483 316 515 q 238 410 255 452 q 221 324 221 369 q 237 237 221 278 q 283 164 254 195 q 352 113 312 132 q 440 95 393 95 z "},"7":{"ha":793,"x_min":67,"x_max":714,"o":"m 588 894 l 588 902 l 67 902 l 67 1010 l 714 1010 l 714 896 l 264 0 l 136 0 l 588 894 z "},"8":{"ha":856,"x_min":84,"x_max":771,"o":"m 428 -14 q 288 7 352 -14 q 180 66 225 28 q 109 155 134 103 q 85 268 84 207 q 99 359 84 316 q 141 437 114 402 q 203 494 167 471 q 280 525 239 517 l 280 531 q 215 561 244 540 q 165 612 185 582 q 133 678 144 642 q 122 756 122 715 q 145 862 122 813 q 208 947 168 911 q 305 1004 249 983 q 428 1024 362 1024 q 550 1004 494 1024 q 646 947 606 983 q 710 862 687 911 q 734 756 733 813 q 722 678 733 715 q 690 612 711 642 q 640 561 669 582 q 576 531 612 540 l 576 525 q 653 494 617 517 q 714 437 688 471 q 756 359 740 402 q 771 268 771 316 q 746 155 771 207 q 675 66 721 103 q 567 7 630 28 q 428 -14 504 -14 m 428 95 q 521 108 479 95 q 591 144 562 120 q 635 200 619 167 q 651 274 651 234 q 634 353 651 317 q 587 415 617 389 q 517 455 557 440 q 428 470 476 470 q 338 455 379 470 q 268 415 297 440 q 221 353 238 389 q 205 274 205 317 q 220 200 205 234 q 264 144 235 167 q 335 108 293 120 q 428 95 376 95 m 428 574 q 503 586 469 574 q 562 622 537 599 q 601 677 587 645 q 616 748 615 709 q 601 818 615 786 q 563 871 588 849 q 504 905 539 893 q 428 917 470 917 q 351 905 386 917 q 291 871 316 893 q 254 818 267 849 q 241 748 240 786 q 254 677 240 709 q 293 622 268 645 q 352 586 318 599 q 428 574 387 574 z "},"9":{"ha":866,"x_min":89,"x_max":777,"o":"m 426 1024 q 510 1014 468 1023 q 591 981 552 1004 q 664 924 630 959 q 723 835 698 888 q 763 710 748 782 q 777 546 777 639 q 752 308 777 412 q 679 132 727 203 q 563 23 631 60 q 410 -14 496 -14 q 293 6 347 -14 q 199 60 240 25 q 132 145 158 96 q 97 254 106 195 l 217 254 q 241 191 225 220 q 282 140 257 161 q 338 107 306 118 q 410 95 370 95 q 516 121 469 95 q 595 197 562 147 q 645 319 628 247 q 663 485 663 392 l 655 485 q 608 429 634 454 q 549 387 581 404 q 482 361 517 370 q 406 351 446 351 q 323 363 363 351 q 247 395 282 374 q 182 446 212 416 q 133 513 153 475 q 100 594 112 550 q 89 687 89 638 q 113 818 89 756 q 181 926 137 879 q 287 998 224 972 q 426 1024 349 1025 m 426 915 q 340 897 380 915 q 270 848 299 879 q 224 776 241 817 q 207 687 207 734 q 223 598 207 639 q 268 526 239 556 q 336 477 297 495 q 422 460 376 460 q 509 478 469 460 q 580 529 550 497 q 628 602 611 561 q 645 689 645 644 q 629 774 645 733 q 583 846 612 815 q 514 897 554 878 q 426 915 473 915 z "},"\r":{"ha":347,"x_min":0,"x_max":0,"o":""}," ":{"ha":391,"x_min":0,"x_max":0,"o":""},"!":{"ha":387,"x_min":105,"x_max":282,"o":"m 251 284 l 136 284 l 126 1010 l 260 1010 l 251 284 m 193 -8 q 159 -1 175 -8 q 130 18 143 6 q 111 46 118 30 q 105 81 105 63 q 111 115 105 99 q 130 144 118 132 q 159 163 143 156 q 193 170 175 170 q 228 163 212 170 q 256 144 244 156 q 275 115 268 132 q 282 81 282 99 q 275 46 282 63 q 256 18 268 30 q 228 -1 244 6 q 193 -8 212 -8 z "},"\"":{"ha":560,"x_min":99,"x_max":460,"o":"m 207 663 l 99 663 l 99 1010 l 207 1010 l 207 663 m 460 663 l 351 663 l 351 1010 l 460 1010 l 460 663 z "},"#":{"ha":876,"x_min":24,"x_max":852,"o":"m 529 280 l 273 280 l 227 0 l 128 0 l 174 280 l 24 280 l 39 379 l 190 379 l 232 631 l 83 631 l 99 730 l 248 730 l 294 1010 l 393 1010 l 347 730 l 603 730 l 649 1010 l 748 1010 l 702 730 l 852 730 l 836 631 l 686 631 l 644 379 l 793 379 l 777 280 l 628 280 l 582 0 l 483 0 l 529 280 m 545 379 l 587 631 l 330 631 l 289 379 l 545 379 z "},"$":{"ha":886,"x_min":79,"x_max":807,"o":"m 402 -16 q 272 11 330 -11 q 172 69 214 33 q 107 153 131 105 q 79 260 83 202 l 205 260 q 225 193 209 222 q 268 144 242 164 q 329 111 295 123 q 402 95 363 99 l 402 468 l 363 479 q 256 521 304 497 q 176 577 209 545 q 125 650 143 609 q 107 742 107 691 q 129 849 107 800 q 191 933 151 897 q 285 992 231 970 q 402 1021 339 1015 l 402 1136 l 483 1136 l 483 1023 q 606 997 550 1018 q 703 940 662 975 q 768 858 744 905 q 793 758 791 812 l 675 758 q 655 818 671 791 q 614 865 639 845 q 556 898 589 885 q 483 914 523 910 l 483 563 l 523 552 q 580 535 549 545 q 643 510 612 525 q 704 474 675 495 q 756 424 733 453 q 793 359 779 396 q 807 274 807 322 q 785 166 807 217 q 723 77 764 115 q 621 14 682 38 q 483 -16 561 -11 l 483 -126 l 402 -126 l 402 -16 m 483 95 q 566 115 528 100 q 631 153 603 130 q 673 208 658 177 q 689 276 689 239 q 672 341 689 314 q 628 387 655 367 q 564 419 600 406 q 487 444 527 433 l 483 445 l 483 95 m 402 912 q 329 893 362 907 q 273 857 296 878 q 237 807 250 835 q 225 748 225 780 q 242 683 225 710 q 286 637 259 656 q 343 605 312 618 q 402 585 374 593 l 402 912 z "},"%":{"ha":1128,"x_min":116,"x_max":1012,"o":"m 619 243 q 633 321 619 284 q 671 386 646 358 q 733 430 696 413 q 817 446 769 446 q 902 430 865 446 q 963 386 938 413 q 999 321 987 358 q 1012 243 1012 284 l 1012 189 q 999 111 1012 148 q 962 46 986 74 q 901 2 937 19 q 817 -14 864 -14 q 732 2 769 -14 q 670 46 695 19 q 632 111 645 74 q 619 189 619 148 l 619 243 m 116 821 q 129 899 116 862 q 168 964 143 936 q 230 1008 193 991 q 314 1024 266 1024 q 399 1008 362 1024 q 459 964 435 991 q 496 899 484 936 q 509 821 509 862 l 509 767 q 496 689 509 726 q 459 624 483 652 q 398 581 434 597 q 314 564 361 564 q 229 581 266 564 q 167 624 192 597 q 129 689 142 652 q 116 767 116 726 l 116 821 m 848 1010 l 961 1010 l 266 0 l 154 0 l 848 1010 m 720 189 q 725 145 720 167 q 742 107 730 124 q 772 81 753 91 q 817 71 790 71 q 861 81 843 71 q 890 107 879 91 q 906 145 901 124 q 911 189 911 167 l 911 243 q 907 287 911 266 q 891 325 902 308 q 862 351 880 341 q 817 361 843 361 q 773 351 791 361 q 743 325 754 341 q 726 287 731 308 q 720 243 720 266 l 720 189 m 217 767 q 222 723 217 745 q 239 685 227 702 q 269 659 250 669 q 314 649 287 649 q 358 659 340 649 q 387 685 376 669 q 403 723 398 702 q 408 767 408 745 l 408 821 q 404 865 408 844 q 388 903 399 886 q 359 929 377 919 q 314 939 340 939 q 270 929 288 939 q 239 903 251 919 q 222 865 228 886 q 217 821 217 844 l 217 767 z "},"&":{"ha":888,"x_min":71,"x_max":866,"o":"m 393 -14 q 258 7 318 -14 q 157 66 199 28 q 93 155 115 104 q 71 268 71 207 q 86 352 71 314 q 127 423 100 390 q 189 487 153 457 q 270 548 226 518 q 222 609 244 580 q 185 668 201 638 q 161 727 169 697 q 152 791 152 758 q 169 884 152 842 q 219 957 187 926 q 296 1003 251 987 q 397 1020 341 1020 q 499 1003 454 1020 q 576 957 544 985 q 624 890 608 928 q 641 809 641 851 q 632 742 641 773 q 605 683 622 711 q 563 632 588 656 q 507 584 538 607 l 433 529 l 653 261 q 683 345 672 299 q 694 442 694 390 l 807 442 q 800 347 807 389 q 781 272 793 305 q 755 213 769 238 q 727 170 741 188 l 866 0 l 726 0 l 654 86 q 599 42 630 61 q 534 11 568 23 q 464 -8 500 -1 q 393 -14 428 -14 m 343 462 l 306 434 q 249 384 272 409 q 214 336 227 359 q 195 296 200 314 q 189 268 189 279 q 204 200 189 233 q 244 143 218 168 q 307 104 270 118 q 389 89 344 89 q 492 110 441 89 q 585 170 543 131 l 343 462 m 428 665 q 467 694 450 679 q 497 725 484 708 q 516 763 509 742 q 523 809 523 783 q 514 848 523 828 q 489 883 505 868 q 451 909 473 899 q 400 919 428 919 q 348 908 372 919 q 307 878 324 897 q 280 836 290 860 q 270 789 270 813 q 278 747 270 768 q 297 704 285 726 q 327 660 310 682 q 362 616 343 638 l 428 665 z "},"'":{"ha":308,"x_min":99,"x_max":207,"o":"m 207 663 l 99 663 l 99 1010 l 207 1010 l 207 663 z "},"(":{"ha":503,"x_min":148,"x_max":438,"o":"m 148 426 q 197 769 148 613 q 335 1057 245 926 l 438 1057 q 393 982 414 1025 q 352 888 371 939 q 318 781 333 837 q 291 665 302 725 q 274 545 280 606 q 268 426 268 485 q 274 307 268 367 q 291 187 280 246 q 318 71 302 128 q 352 -36 333 15 q 393 -129 371 -86 q 438 -205 414 -173 l 335 -205 q 197 83 245 -73 q 148 426 148 240 z "},")":{"ha":503,"x_min":65,"x_max":355,"o":"m 355 426 q 307 83 355 240 q 168 -205 258 -73 l 65 -205 q 110 -129 89 -173 q 151 -36 132 -86 q 185 71 170 15 q 212 187 201 128 q 229 307 223 246 q 235 426 235 367 q 229 545 235 485 q 212 665 223 606 q 185 781 201 725 q 151 888 170 837 q 110 982 132 939 q 65 1057 89 1025 l 168 1057 q 307 769 258 926 q 355 426 355 613 z "},"*":{"ha":694,"x_min":77,"x_max":618,"o":"m 308 659 l 124 543 l 77 625 l 270 726 l 77 827 l 124 909 l 308 793 l 300 1010 l 395 1010 l 387 793 l 570 909 l 618 827 l 424 726 l 618 625 l 570 543 l 387 659 l 395 442 l 300 442 l 308 659 z "},"+":{"ha":915,"x_min":132,"x_max":783,"o":"m 402 339 l 132 339 l 132 450 l 402 450 l 402 720 l 513 720 l 513 450 l 783 450 l 783 339 l 513 339 l 513 69 l 402 69 l 402 339 z "},",":{"ha":389,"x_min":93,"x_max":280,"o":"m 272 85 q 254 -5 266 43 q 229 -98 243 -53 q 203 -182 216 -143 q 182 -247 190 -221 l 93 -247 q 105 -187 98 -223 q 120 -109 112 -152 q 135 -16 128 -65 q 148 83 143 33 l 154 138 l 280 138 l 272 85 z "},"-":{"ha":639,"x_min":99,"x_max":541,"o":"m 541 379 l 99 379 l 99 487 l 541 487 l 541 379 z "},".":{"ha":383,"x_min":103,"x_max":280,"o":"m 191 -8 q 157 -1 173 -8 q 128 18 141 6 q 109 46 116 30 q 103 81 103 63 q 109 115 103 99 q 128 144 116 132 q 157 163 141 156 q 191 170 173 170 q 226 163 210 170 q 254 144 242 156 q 273 115 266 132 q 280 81 280 99 q 273 46 280 63 q 254 18 266 30 q 226 -1 242 6 q 191 -8 210 -8 z "},"/":{"ha":495,"x_min":32,"x_max":464,"o":"m 138 -152 l 32 -152 l 357 1057 l 464 1057 l 138 -152 z "},":":{"ha":383,"x_min":103,"x_max":280,"o":"m 191 -8 q 157 -1 173 -8 q 128 18 141 6 q 109 46 116 30 q 103 81 103 63 q 109 115 103 99 q 128 144 116 132 q 157 163 141 156 q 191 170 173 170 q 226 163 210 170 q 254 144 242 156 q 273 115 266 132 q 280 81 280 99 q 273 46 280 63 q 254 18 266 30 q 226 -1 242 6 q 191 -8 210 -8 m 191 554 q 157 561 173 554 q 128 580 141 568 q 109 609 116 592 q 103 643 103 625 q 109 678 103 661 q 128 706 116 694 q 157 725 141 718 q 191 732 173 732 q 226 725 210 732 q 254 706 242 718 q 273 678 266 694 q 280 643 280 661 q 273 609 280 625 q 254 580 266 592 q 226 561 242 568 q 191 554 210 554 z "},";":{"ha":389,"x_min":93,"x_max":298,"o":"m 272 85 q 254 -5 266 43 q 229 -98 243 -53 q 203 -182 216 -143 q 182 -247 190 -221 l 93 -247 q 105 -187 98 -223 q 120 -109 112 -152 q 135 -16 128 -65 q 148 83 143 33 l 154 138 l 280 138 l 272 85 m 209 554 q 175 561 191 554 q 146 580 158 568 q 127 609 134 592 q 120 643 120 625 q 127 678 120 661 q 146 706 134 694 q 175 725 158 718 q 209 732 191 732 q 244 725 227 732 q 272 706 260 718 q 291 678 284 694 q 298 643 298 661 q 291 609 298 625 q 272 580 284 592 q 244 561 260 568 q 209 554 227 554 z "},"<":{"ha":915,"x_min":140,"x_max":775,"o":"m 140 434 l 775 758 l 775 631 l 292 399 l 292 391 l 775 158 l 775 32 l 140 355 l 140 434 z "},"=":{"ha":915,"x_min":154,"x_max":762,"o":"m 154 302 l 762 302 l 762 195 l 154 195 l 154 302 m 154 594 l 762 594 l 762 487 l 154 487 l 154 594 z "},">":{"ha":915,"x_min":140,"x_max":775,"o":"m 140 32 l 140 158 l 623 391 l 623 399 l 140 631 l 140 758 l 775 434 l 775 355 l 140 32 z "},"?":{"ha":704,"x_min":55,"x_max":635,"o":"m 258 290 q 270 409 259 361 q 301 491 281 457 q 349 548 321 524 q 414 594 378 572 q 455 624 436 607 q 487 662 473 641 q 509 709 501 684 q 517 763 517 734 q 504 829 517 800 q 468 879 491 858 q 415 910 445 899 q 349 921 384 921 q 290 912 319 921 q 237 883 260 903 q 198 832 213 863 q 180 758 182 801 l 55 758 q 82 870 58 821 q 145 954 106 919 q 237 1006 184 988 q 349 1024 290 1024 q 467 1004 414 1024 q 557 948 520 984 q 615 864 595 913 q 635 758 635 815 q 599 618 635 676 q 497 520 562 559 q 442 478 465 500 q 405 431 419 457 q 384 370 391 404 q 377 290 378 336 l 377 284 l 258 284 l 258 290 m 322 -8 q 287 -1 303 -8 q 259 18 271 6 q 240 46 247 30 q 233 81 233 63 q 240 115 233 99 q 259 144 247 132 q 287 163 271 156 q 322 170 303 170 q 356 163 340 170 q 384 144 372 156 q 403 115 397 132 q 410 81 410 99 q 403 46 410 63 q 384 18 397 30 q 356 -1 372 6 q 322 -8 340 -8 z "},"@":{"ha":1300,"x_min":67,"x_max":1233,"o":"m 689 -266 q 422 -225 538 -266 q 227 -104 306 -183 q 108 91 148 -25 q 67 357 67 208 q 109 616 67 502 q 228 809 150 730 q 419 930 306 888 q 675 973 532 973 q 844 952 767 973 q 983 893 921 931 q 1092 806 1046 856 q 1170 695 1139 755 q 1217 570 1201 636 q 1233 436 1233 504 q 1231 339 1233 388 q 1220 243 1228 290 q 1197 156 1212 197 q 1156 85 1182 115 q 1094 37 1131 55 q 1004 20 1056 20 q 947 26 979 20 q 889 45 916 32 q 841 81 862 59 q 817 134 821 103 l 811 134 q 786 93 802 113 q 746 57 770 73 q 690 33 723 41 q 616 26 658 24 q 503 55 551 28 q 421 127 454 81 q 372 232 388 172 q 355 363 355 293 q 375 485 355 430 q 430 581 395 541 q 512 648 465 622 q 616 679 560 673 q 685 678 653 683 q 742 663 717 673 q 783 638 767 653 q 805 608 800 624 l 811 608 l 811 663 l 915 663 l 915 217 q 921 177 915 196 q 939 144 927 158 q 967 121 950 130 q 1006 112 984 112 q 1068 132 1044 112 q 1106 191 1092 151 q 1125 292 1120 231 q 1130 438 1130 354 q 1118 547 1130 493 q 1081 651 1106 602 q 1017 742 1055 700 q 928 814 979 784 q 812 862 876 845 q 669 880 747 880 q 461 844 553 880 q 306 740 369 808 q 209 575 243 672 q 176 353 176 477 q 209 130 176 227 q 308 -35 242 32 q 470 -137 373 -102 q 692 -172 566 -172 q 774 -165 733 -172 q 849 -150 814 -159 q 911 -133 884 -142 q 951 -120 938 -125 l 979 -211 q 922 -231 956 -221 q 849 -248 888 -240 q 768 -261 809 -256 q 689 -266 727 -266 m 631 126 q 716 141 681 126 q 774 186 751 156 q 806 262 796 217 q 817 369 817 308 q 805 472 817 431 q 771 538 794 513 q 714 572 748 562 q 635 582 680 582 q 560 565 593 582 q 504 518 527 547 q 470 451 481 489 q 458 369 458 412 q 467 278 458 322 q 496 200 476 234 q 550 146 517 167 q 631 126 583 126 z "},"A":{"ha":939,"x_min":36,"x_max":904,"o":"m 36 0 l 406 1010 l 533 1010 l 904 0 l 775 0 l 674 286 l 265 286 l 164 0 l 36 0 m 635 395 l 473 850 l 466 850 l 304 395 l 635 395 z "},"B":{"ha":904,"x_min":122,"x_max":825,"o":"m 122 1010 l 475 1010 q 613 989 555 1010 q 709 931 671 968 q 766 846 748 895 q 785 742 785 798 q 772 657 785 693 q 736 596 759 621 q 684 555 713 571 q 621 531 654 540 l 621 521 q 692 502 656 519 q 758 453 728 484 q 806 375 787 421 q 825 268 825 328 q 805 163 825 212 q 745 77 786 113 q 641 20 705 41 q 487 0 577 0 l 122 0 l 122 1010 m 487 109 q 589 121 547 109 q 658 155 631 134 q 696 206 684 177 q 708 268 708 235 q 693 342 708 307 q 650 402 678 376 q 583 444 622 429 q 493 460 543 460 l 245 460 l 245 109 l 487 109 m 472 566 q 549 579 513 566 q 612 614 585 591 q 654 670 638 637 q 669 742 669 702 q 657 804 669 775 q 622 855 646 834 q 562 889 599 876 q 475 902 526 902 l 245 902 l 245 566 l 472 566 z "},"C":{"ha":1010,"x_min":83,"x_max":935,"o":"m 813 694 q 775 787 802 747 q 710 854 748 827 q 626 896 672 882 q 529 909 579 909 q 400 883 460 909 q 296 806 340 857 q 227 679 252 755 q 201 505 201 604 q 227 331 201 407 q 296 204 252 255 q 400 127 340 153 q 529 101 460 101 q 626 114 579 101 q 710 156 672 128 q 775 223 748 183 q 813 316 802 263 l 935 316 q 885 177 921 238 q 794 73 848 115 q 673 9 740 31 q 529 -14 605 -14 q 406 2 464 -14 q 298 50 348 19 q 209 126 249 81 q 141 228 169 171 q 98 356 113 286 q 83 505 83 425 q 98 654 83 585 q 141 782 113 724 q 209 884 169 839 q 298 960 249 929 q 406 1008 348 991 q 529 1024 464 1024 q 673 1001 605 1024 q 794 937 740 979 q 885 834 848 895 q 935 694 921 772 l 813 694 z "},"D":{"ha":998,"x_min":122,"x_max":915,"o":"m 122 0 l 122 1010 l 448 1010 q 645 976 558 1010 q 792 876 732 941 q 884 718 852 811 q 915 507 915 625 q 884 295 915 389 q 790 135 852 201 q 639 35 729 70 q 434 0 549 0 l 122 0 m 426 109 q 590 136 520 109 q 706 215 659 164 q 774 341 752 267 q 797 507 797 415 q 775 672 797 599 q 707 796 752 745 q 596 874 662 847 q 440 902 529 902 l 245 902 l 245 109 l 426 109 z "},"E":{"ha":831,"x_min":122,"x_max":740,"o":"m 122 1010 l 732 1010 l 732 902 l 245 902 l 245 560 l 700 560 l 700 452 l 245 452 l 245 109 l 740 109 l 740 0 l 122 0 l 122 1010 z "},"F":{"ha":815,"x_min":122,"x_max":728,"o":"m 122 1010 l 728 1010 l 728 902 l 245 902 l 245 560 l 683 560 l 683 452 l 245 452 l 245 0 l 122 0 l 122 1010 z "},"G":{"ha":1032,"x_min":83,"x_max":945,"o":"m 813 694 q 770 784 797 744 q 708 852 744 824 q 625 894 671 879 q 525 909 580 909 q 399 883 458 909 q 296 806 339 857 q 227 679 252 755 q 201 505 201 604 q 227 331 201 407 q 297 204 252 255 q 402 127 341 153 q 533 101 463 101 q 650 121 597 101 q 743 181 704 142 q 803 274 781 219 q 827 397 825 328 l 560 397 l 560 505 l 945 505 l 945 397 q 914 227 945 303 q 829 97 884 151 q 699 15 774 44 q 533 -14 623 -14 q 349 22 432 -14 q 207 126 266 59 q 115 289 148 193 q 83 505 83 385 q 115 721 83 625 q 207 885 148 817 q 346 988 265 952 q 525 1024 428 1024 q 674 1000 605 1024 q 798 932 744 976 q 889 828 852 889 q 939 694 925 768 l 813 694 z "},"H":{"ha":1028,"x_min":122,"x_max":906,"o":"m 122 1010 l 245 1010 l 245 560 l 783 560 l 783 1010 l 906 1010 l 906 0 l 783 0 l 783 452 l 245 452 l 245 0 l 122 0 l 122 1010 z "},"I":{"ha":367,"x_min":122,"x_max":245,"o":"m 245 0 l 122 0 l 122 1010 l 245 1010 l 245 0 z "},"J":{"ha":754,"x_min":57,"x_max":631,"o":"m 631 1010 l 631 288 q 611 159 631 216 q 553 65 591 103 q 462 6 515 26 q 343 -14 409 -14 q 229 3 281 -14 q 138 53 176 21 q 79 132 100 86 q 57 237 57 179 l 178 237 q 190 178 178 205 q 224 133 202 152 q 277 105 247 115 q 343 95 307 95 q 466 144 423 95 q 509 288 509 193 l 509 1010 l 631 1010 z "},"K":{"ha":906,"x_min":122,"x_max":870,"o":"m 122 1010 l 245 1010 l 245 509 l 256 509 l 710 1010 l 870 1010 l 446 554 l 870 0 l 722 0 l 371 470 l 245 327 l 245 0 l 122 0 l 122 1010 z "},"L":{"ha":781,"x_min":122,"x_max":714,"o":"m 122 1010 l 245 1010 l 245 109 l 714 109 l 714 0 l 122 0 l 122 1010 z "},"M":{"ha":1235,"x_min":122,"x_max":1113,"o":"m 268 1010 l 612 172 l 623 172 l 967 1010 l 1113 1010 l 1113 0 l 998 0 l 998 767 l 988 767 l 673 0 l 562 0 l 247 767 l 237 767 l 237 0 l 122 0 l 122 1010 l 268 1010 z "},"N":{"ha":1046,"x_min":122,"x_max":923,"o":"m 923 0 l 805 0 l 254 793 l 245 793 l 245 0 l 122 0 l 122 1010 l 241 1010 l 793 215 l 803 215 l 803 1010 l 923 1010 l 923 0 z "},"O":{"ha":1057,"x_min":83,"x_max":975,"o":"m 975 505 q 941 289 975 385 q 849 126 908 193 q 708 22 789 59 q 529 -14 626 -14 q 406 2 464 -14 q 298 50 348 19 q 209 126 249 81 q 141 228 169 171 q 98 356 113 286 q 83 505 83 425 q 98 654 83 585 q 141 782 113 724 q 209 884 169 839 q 298 960 249 929 q 406 1008 348 991 q 529 1024 464 1024 q 708 988 626 1024 q 849 885 789 952 q 941 721 908 817 q 975 505 975 625 m 856 505 q 831 679 856 604 q 761 806 805 755 q 657 883 717 857 q 529 909 598 909 q 400 883 460 909 q 296 806 340 857 q 227 679 252 755 q 201 505 201 604 q 227 331 201 407 q 296 204 252 255 q 400 127 340 153 q 529 101 460 101 q 657 127 598 101 q 761 204 717 153 q 831 331 805 255 q 856 505 856 407 z "},"P":{"ha":882,"x_min":122,"x_max":807,"o":"m 122 1010 l 464 1010 q 617 985 552 1010 q 724 917 682 960 q 787 816 766 874 q 807 690 807 758 q 787 565 807 623 q 725 463 766 507 q 618 394 683 419 q 466 369 554 369 l 245 369 l 245 0 l 122 0 l 122 1010 m 462 477 q 565 494 522 477 q 635 539 608 510 q 674 606 662 567 q 687 690 687 645 q 674 775 687 736 q 635 841 662 813 q 564 886 608 870 q 460 902 521 902 l 245 902 l 245 477 l 462 477 z "},"Q":{"ha":1057,"x_min":83,"x_max":975,"o":"m 975 505 q 963 371 975 434 q 928 255 951 308 q 874 157 906 201 q 801 80 842 113 l 933 -95 l 799 -95 l 711 24 q 529 -14 627 -14 q 406 2 464 -14 q 298 50 348 19 q 209 126 249 81 q 141 228 169 171 q 98 356 113 286 q 83 505 83 425 q 98 654 83 585 q 141 782 113 724 q 209 884 169 839 q 298 960 249 929 q 406 1008 348 991 q 529 1024 464 1024 q 708 988 626 1024 q 849 885 789 952 q 941 721 908 817 q 975 505 975 625 m 623 316 l 731 174 q 822 308 789 224 q 856 505 856 391 q 831 679 856 604 q 761 806 805 755 q 657 883 717 857 q 529 909 598 909 q 400 883 460 909 q 296 806 340 857 q 227 679 252 755 q 201 505 201 604 q 227 331 201 407 q 296 204 252 255 q 400 127 340 153 q 529 101 460 101 q 639 119 587 101 l 489 316 l 623 316 z "},"R":{"ha":888,"x_min":122,"x_max":846,"o":"m 122 1010 l 464 1010 q 617 987 552 1010 q 724 922 682 964 q 787 824 766 881 q 807 700 807 767 q 796 606 807 650 q 761 525 784 561 q 702 461 737 489 q 618 417 666 434 l 846 0 l 704 0 l 491 395 q 479 395 485 395 q 466 395 472 395 l 245 395 l 245 0 l 122 0 l 122 1010 m 462 505 q 565 519 522 505 q 635 557 608 532 q 674 619 662 582 q 687 700 687 655 q 674 783 687 746 q 635 847 662 820 q 564 887 607 873 q 460 902 521 902 l 245 902 l 245 505 l 462 505 z "},"S":{"ha":886,"x_min":79,"x_max":807,"o":"m 675 758 q 652 824 670 795 q 603 874 633 854 q 533 905 573 894 q 448 915 494 915 q 356 903 398 915 q 286 868 315 890 q 241 815 257 845 q 225 748 225 784 q 234 699 225 721 q 259 660 244 677 q 294 631 274 644 q 336 608 315 618 q 380 592 358 599 q 420 580 401 585 l 523 552 q 580 535 549 545 q 643 510 612 525 q 704 474 675 495 q 756 424 733 453 q 793 359 779 396 q 807 274 807 322 q 783 160 807 213 q 712 67 759 106 q 597 5 665 28 q 442 -18 529 -18 q 295 2 361 -18 q 184 59 230 23 q 110 147 137 96 q 79 260 83 198 l 205 260 q 230 186 209 218 q 282 134 250 154 q 356 103 314 113 q 442 93 397 93 q 540 106 495 93 q 618 143 584 119 q 670 201 651 167 q 689 276 689 235 q 672 341 689 314 q 628 387 655 367 q 564 419 600 406 q 487 444 527 433 l 363 479 q 256 521 304 497 q 176 577 209 545 q 125 650 143 609 q 107 742 107 691 q 133 857 107 805 q 207 946 160 909 q 316 1004 254 983 q 452 1024 379 1024 q 587 1004 525 1024 q 694 948 649 983 q 765 864 739 912 q 793 758 791 815 l 675 758 z "},"T":{"ha":892,"x_min":67,"x_max":825,"o":"m 67 1010 l 825 1010 l 825 902 l 507 902 l 507 0 l 385 0 l 385 902 l 67 902 l 67 1010 z "},"U":{"ha":1030,"x_min":122,"x_max":908,"o":"m 908 1010 l 908 341 q 880 198 908 264 q 800 84 852 132 q 677 9 749 36 q 515 -18 604 -18 q 353 9 426 -18 q 229 84 281 36 q 150 198 178 132 q 122 341 122 264 l 122 1010 l 245 1010 l 245 351 q 263 249 245 296 q 316 168 282 202 q 401 116 351 135 q 515 97 452 97 q 628 116 578 97 q 713 168 679 135 q 767 249 748 202 q 785 351 785 296 l 785 1010 l 908 1010 z "},"V":{"ha":939,"x_min":36,"x_max":904,"o":"m 464 160 l 475 160 l 775 1010 l 904 1010 l 533 0 l 406 0 l 36 1010 l 164 1010 l 464 160 z "},"W":{"ha":1318,"x_min":30,"x_max":1288,"o":"m 30 1010 l 154 1010 l 365 187 l 375 187 l 590 1010 l 728 1010 l 943 187 l 953 187 l 1164 1010 l 1288 1010 l 1012 0 l 886 0 l 663 805 l 655 805 l 432 0 l 306 0 l 30 1010 z "},"X":{"ha":892,"x_min":37,"x_max":854,"o":"m 442 590 l 450 590 l 710 1010 l 854 1010 l 537 505 l 854 0 l 710 0 l 450 412 l 442 412 l 182 0 l 37 0 l 363 505 l 37 1010 l 182 1010 l 442 590 z "},"Y":{"ha":923,"x_min":36,"x_max":888,"o":"m 176 1010 l 456 539 l 468 539 l 748 1010 l 888 1010 l 523 416 l 523 0 l 400 0 l 400 416 l 36 1010 l 176 1010 z "},"Z":{"ha":868,"x_min":83,"x_max":785,"o":"m 89 89 l 633 902 l 83 902 l 83 1010 l 779 1010 l 779 921 l 235 109 l 785 109 l 785 0 l 89 0 l 89 89 z "},"[":{"ha":503,"x_min":164,"x_max":456,"o":"m 164 1057 l 456 1057 l 456 961 l 274 961 l 274 -109 l 456 -109 l 456 -205 l 164 -205 l 164 1057 z "},"\\":{"ha":495,"x_min":32,"x_max":464,"o":"m 32 1057 l 138 1057 l 464 -152 l 357 -152 l 32 1057 z "},"]":{"ha":503,"x_min":47,"x_max":339,"o":"m 339 -205 l 47 -205 l 47 -109 l 229 -109 l 229 961 l 47 961 l 47 1057 l 339 1057 l 339 -205 z "},"^":{"ha":651,"x_min":55,"x_max":596,"o":"m 258 979 l 393 979 l 596 552 l 479 552 l 329 874 l 323 874 l 174 552 l 55 552 l 258 979 z "},"_":{"ha":627,"x_min":-2,"x_max":629,"o":"m 629 -109 l -2 -109 l -2 0 l 629 0 l 629 -109 z "},"`":{"ha":690,"x_min":217,"x_max":473,"o":"m 217 1089 l 353 1089 l 473 860 l 371 860 l 217 1089 z "},"a":{"ha":783,"x_min":71,"x_max":677,"o":"m 329 -18 q 228 -2 276 -18 q 146 43 181 13 q 91 116 111 73 q 71 215 71 160 q 83 291 71 258 q 116 346 95 323 q 165 385 137 369 q 226 411 194 400 q 294 427 259 421 q 365 438 330 434 q 454 449 417 445 q 514 458 491 452 q 549 475 538 464 q 560 507 560 486 l 560 511 q 521 624 560 584 q 400 665 481 665 q 327 655 359 665 q 270 628 294 645 q 229 592 246 612 q 203 550 213 571 l 93 590 q 149 676 115 642 q 224 730 183 710 q 309 759 265 751 q 397 767 354 767 q 451 764 421 767 q 512 751 481 761 q 573 724 543 742 q 626 675 603 705 q 663 602 649 646 q 677 499 677 559 l 677 0 l 560 0 l 560 103 l 554 103 q 528 63 545 84 q 483 24 510 42 q 417 -6 455 6 q 329 -18 379 -18 m 347 87 q 439 103 399 87 q 506 145 478 119 q 546 205 533 171 q 560 274 560 239 l 560 381 q 542 370 555 375 q 510 360 529 364 q 471 352 492 356 q 429 346 449 349 q 390 341 408 343 q 359 337 371 339 q 294 325 325 333 q 239 302 263 317 q 201 265 216 288 q 187 209 187 243 q 199 156 187 179 q 233 118 211 133 q 283 94 254 102 q 347 87 313 87 z "},"b":{"ha":862,"x_min":122,"x_max":791,"o":"m 122 1010 l 239 1010 l 239 637 l 249 637 q 263 661 255 647 q 284 689 272 674 q 312 717 296 703 q 351 743 328 731 q 402 761 373 754 q 468 767 431 767 q 599 740 540 767 q 701 662 658 713 q 767 539 744 611 q 791 377 791 467 q 767 214 791 287 q 701 91 744 142 q 600 12 659 39 q 470 -16 541 -16 q 404 -9 433 -16 q 353 9 375 -2 q 314 35 330 21 q 285 64 297 49 q 264 92 272 78 q 249 116 255 106 l 235 116 l 235 0 l 122 0 l 122 1010 m 237 379 q 251 261 237 315 q 293 169 265 208 q 361 110 320 131 q 454 89 401 89 q 550 111 509 89 q 619 173 591 134 q 661 265 647 213 q 675 379 675 318 q 661 491 675 439 q 620 581 647 543 q 551 641 592 619 q 454 663 509 663 q 360 642 400 663 q 292 584 320 622 q 251 495 265 547 q 237 379 237 442 z "},"c":{"ha":775,"x_min":71,"x_max":712,"o":"m 414 -16 q 271 13 334 -16 q 163 94 207 42 q 95 218 118 146 q 71 375 71 290 q 95 534 71 462 q 165 658 120 606 q 273 739 210 710 q 412 767 335 767 q 524 750 472 767 q 615 702 576 733 q 679 628 654 671 q 712 531 705 584 l 596 531 q 575 581 589 557 q 537 623 560 604 q 483 652 514 641 q 414 663 453 663 q 322 643 363 663 q 250 585 280 622 q 204 496 220 548 q 187 379 187 443 q 203 259 187 313 q 249 168 219 206 q 321 109 279 130 q 414 89 363 89 q 478 98 448 89 q 531 124 508 107 q 571 165 554 141 q 596 221 588 190 l 712 221 q 681 127 705 171 q 619 53 657 84 q 529 2 581 21 q 414 -16 477 -16 z "},"d":{"ha":862,"x_min":71,"x_max":740,"o":"m 393 -16 q 262 12 322 -16 q 161 91 203 39 q 95 214 118 142 q 71 377 71 287 q 95 539 71 467 q 161 662 118 611 q 263 740 204 713 q 395 767 323 767 q 460 761 432 767 q 511 743 489 754 q 550 717 534 731 q 578 689 566 703 q 599 661 590 674 q 614 637 607 647 l 623 637 l 623 1010 l 740 1010 l 740 0 l 627 0 l 627 116 l 614 116 q 599 92 607 106 q 577 64 590 78 q 548 35 565 49 q 509 9 532 21 q 458 -9 487 -2 q 393 -16 429 -16 m 408 89 q 502 110 461 89 q 569 169 542 131 q 611 261 597 208 q 625 379 625 315 q 612 495 625 442 q 570 584 598 547 q 502 642 543 622 q 408 663 462 663 q 311 641 353 663 q 242 581 270 619 q 201 491 215 543 q 187 379 187 439 q 201 265 187 318 q 243 173 216 213 q 312 111 271 134 q 408 89 354 89 z "},"e":{"ha":809,"x_min":71,"x_max":738,"o":"m 424 -16 q 277 12 342 -16 q 165 91 211 40 q 95 214 120 143 q 71 373 71 286 q 95 533 71 460 q 165 657 120 605 q 273 739 210 710 q 412 767 335 767 q 491 759 452 767 q 567 732 531 751 q 634 684 603 713 q 689 612 665 654 q 725 515 712 570 q 738 389 738 459 l 738 339 l 188 339 q 208 232 190 279 q 257 153 226 185 q 330 105 288 121 q 424 89 373 89 q 542 118 493 89 q 614 207 591 148 l 726 176 q 686 97 713 133 q 619 37 658 62 q 531 -2 581 12 q 424 -16 482 -16 m 619 440 q 605 529 619 488 q 563 600 590 570 q 498 646 536 629 q 412 663 460 663 q 322 645 363 663 q 253 596 282 626 q 208 525 224 565 q 188 440 191 484 l 619 440 z "},"f":{"ha":501,"x_min":36,"x_max":481,"o":"m 444 659 l 274 659 l 274 0 l 158 0 l 158 659 l 36 659 l 36 758 l 158 758 l 158 862 q 176 948 158 911 q 224 1009 194 984 q 292 1045 254 1033 q 371 1057 330 1057 q 441 1051 414 1057 q 481 1038 468 1044 l 448 937 q 423 945 439 940 q 383 949 408 949 q 300 920 325 949 q 274 835 274 891 l 274 758 l 444 758 l 444 659 z "},"g":{"ha":846,"x_min":71,"x_max":740,"o":"m 412 -300 q 299 -287 349 -300 q 212 -254 250 -275 q 147 -205 174 -233 q 103 -148 120 -178 l 195 -83 q 223 -118 207 -99 q 264 -156 239 -138 q 325 -185 289 -173 q 412 -197 361 -197 q 497 -186 458 -197 q 564 -153 536 -176 q 608 -96 592 -130 q 623 -14 623 -61 l 623 140 l 614 140 q 599 116 607 130 q 578 88 590 103 q 549 60 566 74 q 510 36 532 47 q 458 18 487 25 q 393 12 430 12 q 265 36 324 12 q 163 109 206 61 q 95 225 120 156 q 71 383 71 294 q 95 541 71 470 q 161 662 118 612 q 263 740 204 713 q 395 767 323 767 q 460 761 432 767 q 512 743 489 754 q 551 717 534 731 q 580 689 568 703 q 600 661 592 674 q 616 637 609 647 l 627 637 l 627 758 l 740 758 l 740 -22 q 714 -148 740 -95 q 644 -234 689 -200 q 540 -284 600 -268 q 412 -300 480 -300 m 408 116 q 502 135 461 116 q 569 188 542 153 q 611 272 597 222 q 625 385 625 322 q 612 497 625 446 q 570 585 598 548 q 502 642 543 622 q 408 663 462 663 q 311 641 353 663 q 242 582 270 619 q 201 493 215 544 q 187 385 187 442 q 201 276 187 326 q 243 191 216 227 q 312 136 271 156 q 408 116 354 116 z "},"h":{"ha":821,"x_min":107,"x_max":714,"o":"m 223 0 l 107 0 l 107 1010 l 223 1010 l 223 639 l 233 639 q 266 692 246 669 q 313 733 286 716 q 376 758 340 749 q 456 767 411 767 q 562 750 514 767 q 643 697 609 733 q 696 608 677 662 q 714 481 714 554 l 714 0 l 598 0 l 598 473 q 586 554 598 519 q 551 613 574 589 q 496 650 528 638 q 422 663 463 663 q 343 649 379 663 q 280 609 306 635 q 238 544 253 582 q 223 456 223 506 l 223 0 z "},"i":{"ha":329,"x_min":83,"x_max":249,"o":"m 107 758 l 223 758 l 223 0 l 107 0 l 107 758 m 166 884 q 134 890 149 884 q 107 907 118 896 q 90 932 96 918 q 83 963 83 946 q 90 993 83 979 q 107 1018 96 1008 q 134 1036 118 1029 q 166 1042 149 1042 q 198 1036 183 1042 q 224 1018 213 1029 q 242 993 235 1008 q 249 963 249 979 q 242 932 249 946 q 224 907 235 918 q 198 890 213 896 q 166 884 183 884 z "},"j":{"ha":329,"x_min":-18,"x_max":247,"o":"m 223 758 l 223 -55 q 210 -150 223 -108 q 169 -222 196 -192 q 101 -268 142 -252 q 6 -284 61 -284 l -18 -284 l -18 -176 l 4 -176 q 82 -144 57 -176 q 107 -55 107 -113 l 107 758 l 223 758 m 164 884 q 132 890 147 884 q 105 907 116 896 q 88 932 94 918 q 81 963 81 946 q 88 993 81 979 q 105 1018 94 1008 q 132 1036 116 1029 q 164 1042 147 1042 q 196 1036 181 1042 q 222 1018 211 1029 q 240 993 233 1008 q 247 963 247 979 q 240 932 247 946 q 222 907 233 918 q 196 890 211 896 q 164 884 181 884 z "},"k":{"ha":756,"x_min":107,"x_max":736,"o":"m 107 1010 l 223 1010 l 223 420 l 237 420 l 568 758 l 712 758 l 392 434 l 736 0 l 588 0 l 304 359 l 223 284 l 223 0 l 107 0 l 107 1010 z "},"l":{"ha":329,"x_min":107,"x_max":223,"o":"m 223 0 l 107 0 l 107 1010 l 223 1010 l 223 0 z "},"m":{"ha":1207,"x_min":107,"x_max":1101,"o":"m 107 758 l 219 758 l 219 639 l 229 639 q 305 734 253 700 q 432 767 358 767 q 557 734 507 767 q 635 639 607 700 l 643 639 q 680 692 658 669 q 730 733 702 716 q 794 758 759 749 q 870 767 830 767 q 963 752 921 767 q 1036 704 1006 736 q 1084 623 1067 672 q 1101 507 1101 574 l 1101 0 l 984 0 l 984 507 q 972 579 984 549 q 939 627 960 608 q 890 654 917 646 q 831 663 862 663 q 760 650 791 663 q 707 615 728 637 q 674 561 686 592 q 663 493 663 530 l 663 0 l 545 0 l 545 519 q 533 578 545 551 q 503 623 522 604 q 455 653 483 642 q 395 663 428 663 q 329 649 361 663 q 275 610 298 635 q 237 550 251 584 q 223 473 223 515 l 223 0 l 107 0 l 107 758 z "},"n":{"ha":813,"x_min":107,"x_max":706,"o":"m 223 0 l 107 0 l 107 758 l 219 758 l 219 639 l 229 639 q 262 692 242 668 q 310 732 283 715 q 372 758 337 749 q 450 767 407 767 q 555 750 508 767 q 636 697 602 732 q 688 608 669 661 q 706 481 706 554 l 706 0 l 590 0 l 590 473 q 578 553 590 518 q 544 613 566 588 q 489 650 521 637 q 416 663 457 663 q 339 649 374 663 q 278 609 304 635 q 237 544 252 582 q 223 456 223 506 l 223 0 z "},"o":{"ha":829,"x_min":71,"x_max":758,"o":"m 414 -16 q 274 12 337 -16 q 166 91 211 40 q 96 215 121 143 q 71 375 71 287 q 96 536 71 464 q 166 660 121 609 q 274 739 211 711 q 414 767 337 767 q 555 739 491 767 q 663 660 618 711 q 733 536 708 609 q 758 375 758 464 q 733 215 758 287 q 663 91 708 143 q 555 12 618 40 q 414 -16 491 -16 m 414 89 q 516 112 473 89 q 586 175 558 136 q 628 266 614 214 q 641 375 641 318 q 628 484 641 432 q 586 576 614 536 q 516 639 558 616 q 414 663 473 663 q 313 639 356 663 q 242 576 270 616 q 201 484 215 536 q 187 375 187 432 q 201 266 187 318 q 242 175 215 214 q 313 112 270 136 q 414 89 356 89 z "},"p":{"ha":846,"x_min":107,"x_max":775,"o":"m 107 758 l 219 758 l 219 637 l 233 637 q 248 661 239 647 q 268 689 256 674 q 296 717 280 703 q 335 743 313 731 q 386 761 357 754 q 452 767 415 767 q 583 740 524 767 q 685 662 643 713 q 752 539 728 611 q 775 377 775 467 q 752 214 775 287 q 686 91 728 142 q 584 12 643 39 q 454 -16 525 -16 q 388 -9 417 -16 q 337 9 360 -2 q 298 35 315 21 q 269 64 282 49 q 248 92 256 78 q 233 116 239 106 l 223 116 l 223 -284 l 107 -284 l 107 758 m 221 379 q 235 261 221 315 q 277 169 250 208 q 345 110 304 131 q 438 89 386 89 q 534 111 493 89 q 603 173 576 134 q 645 265 631 213 q 659 379 659 318 q 645 491 659 439 q 604 581 631 543 q 535 641 577 619 q 438 663 494 663 q 344 642 385 663 q 276 584 304 622 q 235 495 249 547 q 221 379 221 442 z "},"q":{"ha":846,"x_min":71,"x_max":740,"o":"m 623 116 l 614 116 q 599 92 607 106 q 577 64 590 78 q 548 35 565 49 q 509 9 532 21 q 458 -9 487 -2 q 393 -16 429 -16 q 262 12 322 -16 q 161 91 203 39 q 95 214 118 142 q 71 377 71 287 q 95 539 71 467 q 161 662 118 611 q 263 740 204 713 q 395 767 323 767 q 460 761 432 767 q 511 743 489 754 q 550 717 534 731 q 578 689 566 703 q 599 661 590 674 q 614 637 607 647 l 627 637 l 627 758 l 740 758 l 740 -284 l 623 -284 l 623 116 m 408 89 q 502 110 461 89 q 569 169 542 131 q 611 261 597 208 q 625 379 625 315 q 612 495 625 442 q 570 584 598 547 q 502 642 543 622 q 408 663 462 663 q 311 641 353 663 q 242 581 270 619 q 201 491 215 543 q 187 379 187 439 q 201 265 187 318 q 243 173 216 213 q 312 111 271 134 q 408 89 354 89 z "},"r":{"ha":517,"x_min":107,"x_max":485,"o":"m 107 758 l 219 758 l 219 643 l 227 643 q 257 694 237 671 q 302 734 276 718 q 359 760 328 751 q 424 769 390 769 q 439 769 431 769 q 456 769 448 769 q 472 768 465 768 q 485 767 480 768 l 485 649 q 475 651 482 650 q 458 654 468 653 q 437 656 449 655 q 414 657 426 657 q 338 644 373 657 q 277 607 303 630 q 237 550 252 583 q 223 479 223 518 l 223 0 l 107 0 l 107 758 z "},"s":{"ha":726,"x_min":73,"x_max":657,"o":"m 539 558 q 519 597 531 578 q 487 632 507 617 q 440 657 468 648 q 375 667 413 667 q 310 658 340 667 q 259 635 281 650 q 225 600 238 620 q 213 554 213 579 q 221 516 213 533 q 244 486 228 499 q 285 462 260 472 q 343 444 310 452 l 456 416 q 607 341 557 392 q 657 211 657 291 q 636 121 657 162 q 575 49 614 79 q 482 1 536 18 q 361 -16 427 -16 q 254 -3 303 -16 q 169 35 206 10 q 108 96 132 60 q 73 182 83 133 l 183 209 q 243 117 199 147 q 359 87 287 87 q 433 96 400 87 q 489 122 466 106 q 524 159 511 138 q 537 205 537 181 q 509 272 537 245 q 424 312 482 298 l 298 341 q 145 418 194 366 q 97 548 97 470 q 118 637 97 597 q 176 706 139 677 q 264 751 213 735 q 375 767 315 767 q 475 755 431 767 q 552 718 519 742 q 607 661 584 694 q 643 588 629 628 l 539 558 z "},"t":{"ha":505,"x_min":43,"x_max":450,"o":"m 436 659 l 274 659 l 274 217 q 283 158 274 180 q 306 123 291 135 q 338 107 320 110 q 375 103 356 103 q 406 105 394 103 q 426 109 419 107 l 450 4 q 417 -5 438 0 q 363 -10 396 -10 q 289 2 326 -10 q 223 38 253 14 q 176 99 194 63 q 158 185 158 136 l 158 659 l 43 659 l 43 758 l 158 758 l 158 939 l 274 939 l 274 758 l 436 758 l 436 659 z "},"u":{"ha":807,"x_min":107,"x_max":700,"o":"m 584 758 l 700 758 l 700 0 l 584 0 l 584 128 l 576 128 q 542 74 563 100 q 493 30 521 49 q 430 1 465 12 q 351 -10 394 -10 q 253 8 298 -10 q 176 61 208 25 q 125 150 143 96 q 107 276 107 204 l 107 758 l 223 758 l 223 284 q 235 209 223 243 q 270 152 248 176 q 322 115 291 128 q 389 103 353 103 q 456 115 421 103 q 519 153 490 127 q 566 218 547 179 q 584 310 584 256 l 584 758 z "},"v":{"ha":773,"x_min":47,"x_max":726,"o":"m 446 0 l 327 0 l 47 758 l 174 758 l 383 154 l 391 154 l 600 758 l 726 758 l 446 0 z "},"w":{"ha":1128,"x_min":47,"x_max":1081,"o":"m 47 758 l 170 758 l 333 178 l 341 178 l 503 758 l 627 758 l 787 180 l 795 180 l 959 758 l 1081 758 l 850 0 l 736 0 l 570 582 l 558 582 l 393 0 l 278 0 l 47 758 z "},"x":{"ha":750,"x_min":59,"x_max":690,"o":"m 375 448 l 556 758 l 690 758 l 446 379 l 690 0 l 556 0 l 375 294 l 193 0 l 59 0 l 300 379 l 59 758 l 193 758 l 375 448 z "},"y":{"ha":773,"x_min":47,"x_max":726,"o":"m 182 -284 q 129 -279 152 -284 q 97 -270 106 -275 l 126 -168 q 184 -177 158 -176 q 232 -167 210 -178 q 272 -131 254 -156 q 306 -63 290 -107 l 327 -4 l 47 758 l 174 758 l 383 154 l 391 154 l 600 758 l 726 758 l 404 -110 q 316 -242 371 -199 q 182 -284 261 -284 z "},"z":{"ha":752,"x_min":85,"x_max":679,"o":"m 85 89 l 515 641 l 515 649 l 99 649 l 99 758 l 665 758 l 665 665 l 247 116 l 247 109 l 679 109 l 679 0 l 85 0 l 85 89 z "},"{":{"ha":503,"x_min":51,"x_max":456,"o":"m 456 -205 q 334 -189 383 -205 q 255 -141 285 -174 q 212 -59 225 -109 q 199 59 199 -9 l 199 217 q 192 286 199 257 q 166 333 184 315 q 121 359 149 351 q 51 367 93 367 l 51 485 q 121 493 93 485 q 166 520 149 502 q 192 566 184 538 q 199 635 199 595 l 199 793 q 212 911 199 861 q 255 993 225 961 q 334 1042 285 1026 q 456 1057 383 1057 l 456 961 q 384 951 413 961 q 338 920 355 941 q 313 868 321 900 q 306 793 306 836 l 306 596 q 300 540 306 566 q 279 493 294 513 q 237 457 264 472 q 168 434 210 442 l 168 419 q 237 395 210 410 q 279 360 264 380 q 300 313 294 339 q 306 256 306 287 l 306 59 q 313 -16 306 16 q 338 -68 321 -47 q 384 -99 355 -89 q 456 -109 413 -109 l 456 -205 z "},"|":{"ha":454,"x_min":178,"x_max":276,"o":"m 276 -326 l 178 -326 l 178 1336 l 276 1336 l 276 -326 z "},"}":{"ha":503,"x_min":47,"x_max":452,"o":"m 47 1057 q 169 1042 120 1057 q 248 993 218 1026 q 291 911 278 961 q 304 793 304 861 l 304 635 q 311 566 304 595 q 337 520 319 538 q 382 493 354 502 q 452 485 410 485 l 452 367 q 382 359 410 367 q 337 333 354 351 q 311 286 319 315 q 304 217 304 257 l 304 59 q 291 -59 304 -9 q 248 -141 278 -109 q 169 -189 218 -174 q 47 -205 120 -205 l 47 -109 q 119 -99 90 -109 q 165 -68 148 -89 q 190 -16 182 -47 q 197 59 197 16 l 197 256 q 203 313 197 287 q 224 360 209 339 q 266 395 239 380 q 335 419 293 410 l 335 434 q 266 457 293 442 q 224 493 239 472 q 203 540 209 513 q 197 596 197 566 l 197 793 q 190 868 197 836 q 165 920 182 900 q 119 951 148 941 q 47 961 90 961 l 47 1057 z "},"~":{"ha":915,"x_min":113,"x_max":802,"o":"m 114 300 q 130 404 113 362 q 173 475 146 447 q 236 514 201 502 q 310 527 272 527 q 357 521 335 527 q 401 505 379 516 q 447 477 424 494 q 497 436 470 460 q 529 409 515 420 q 555 392 543 399 q 579 382 568 385 q 604 379 590 379 q 671 409 646 379 q 694 499 695 440 l 801 499 q 786 395 802 438 q 742 324 769 352 q 679 285 715 297 q 606 272 644 272 q 558 278 581 272 q 514 294 536 283 q 469 322 492 305 q 418 363 445 339 q 386 390 400 379 q 360 407 372 400 q 336 417 348 414 q 312 420 325 420 q 275 414 292 420 q 246 392 258 407 q 227 355 234 378 q 221 300 220 332 l 114 300 z "}," ":{"ha":391,"x_min":0,"x_max":0,"o":""},"¡":{"ha":387,"x_min":105,"x_max":282,"o":"m 126 -256 l 136 470 l 251 470 l 260 -256 l 126 -256 m 193 762 q 228 755 212 762 q 256 736 244 748 q 275 707 268 724 q 282 673 282 691 q 275 638 282 654 q 256 610 268 622 q 228 591 244 598 q 193 584 212 584 q 159 591 175 584 q 130 610 143 598 q 111 638 118 622 q 105 673 105 654 q 111 707 105 691 q 130 736 118 724 q 159 755 143 748 q 193 762 175 762 z "},"¢":{"ha":775,"x_min":71,"x_max":712,"o":"m 367 116 q 243 157 297 125 q 150 240 188 189 q 91 358 111 291 q 71 504 71 426 q 92 652 71 584 q 152 771 113 720 q 245 854 190 822 q 367 894 300 886 l 367 1010 l 448 1010 l 448 895 q 546 871 501 890 q 626 822 592 852 q 683 750 661 791 q 712 660 705 709 l 596 660 q 578 705 590 683 q 547 743 565 726 q 504 773 528 761 q 448 790 479 785 l 448 220 q 543 262 504 229 q 596 350 581 295 l 712 350 q 684 263 705 303 q 629 191 663 222 q 549 140 595 159 q 448 115 504 120 l 448 0 l 367 0 l 367 116 m 367 787 q 293 755 326 778 q 236 695 259 731 q 200 612 213 659 q 187 508 187 565 q 200 402 187 450 q 236 316 213 353 q 292 256 259 280 q 367 223 326 232 l 367 787 z "},"£":{"ha":876,"x_min":87,"x_max":779,"o":"m 91 0 l 91 109 l 130 109 q 156 117 145 109 q 175 139 167 125 q 189 170 183 152 q 197 206 194 188 q 201 243 200 225 q 201 276 202 261 l 197 393 l 87 393 l 87 505 l 194 505 l 187 704 q 196 803 185 758 q 228 883 207 847 q 277 945 248 918 q 339 989 305 971 q 411 1015 373 1007 q 487 1024 449 1024 q 576 1012 534 1024 q 652 980 618 1000 q 713 930 687 959 q 755 868 739 902 q 775 798 770 835 q 769 724 779 762 l 655 756 q 648 824 660 794 q 613 874 636 854 q 558 905 589 894 q 493 915 527 915 q 423 903 458 915 q 362 865 389 891 q 318 799 335 839 q 302 704 302 759 l 309 505 l 546 505 l 546 393 l 313 393 l 318 276 q 312 183 320 227 q 281 109 304 140 l 760 109 l 760 0 l 91 0 z "},"¤":{"ha":1004,"x_min":81,"x_max":923,"o":"m 499 -14 q 363 10 427 -14 q 247 78 299 35 l 160 -10 l 81 73 l 171 164 q 116 279 135 216 q 97 412 97 342 q 118 551 97 486 q 177 669 139 616 l 81 767 l 160 850 l 256 753 q 368 815 307 793 q 499 836 430 836 q 632 814 569 836 q 745 751 694 792 l 842 850 l 923 767 l 824 667 q 883 550 862 614 q 904 412 904 486 q 884 280 904 342 q 831 166 865 218 l 923 73 l 842 -10 l 755 80 q 637 11 702 36 q 499 -14 572 -14 m 499 95 q 613 120 560 95 q 706 188 666 145 q 768 290 745 232 q 791 412 791 347 q 768 536 791 478 q 706 637 745 594 q 613 705 666 680 q 499 730 560 730 q 385 705 438 730 q 291 637 331 680 q 228 536 252 594 q 205 412 205 478 q 228 290 205 347 q 291 188 252 232 q 385 120 331 145 q 499 95 438 95 z "},"¥":{"ha":762,"x_min":20,"x_max":742,"o":"m 376 531 l 385 531 l 606 1010 l 742 1010 l 489 503 l 663 503 l 663 414 l 445 414 l 442 408 l 442 308 l 663 308 l 663 219 l 442 219 l 442 0 l 320 0 l 320 219 l 99 219 l 99 308 l 320 308 l 320 408 l 317 414 l 99 414 l 99 503 l 272 503 l 20 1010 l 156 1010 l 376 531 z "},"¦":{"ha":369,"x_min":130,"x_max":239,"o":"m 239 272 l 239 -189 l 130 -189 l 130 272 l 239 272 m 239 550 l 130 550 l 130 1010 l 239 1010 l 239 550 z "},"§":{"ha":765,"x_min":71,"x_max":694,"o":"m 515 771 q 507 830 515 803 q 483 877 499 857 q 441 908 466 897 q 381 919 416 919 q 323 910 348 919 q 283 885 299 900 q 260 850 268 869 q 253 813 253 832 q 263 770 253 791 q 288 733 273 750 q 323 701 304 716 q 359 677 341 687 l 550 564 q 595 535 570 553 q 642 491 619 517 q 679 429 664 464 q 694 347 694 393 q 683 292 694 320 q 654 240 672 264 q 610 197 635 216 q 556 170 584 179 l 556 168 q 609 96 592 137 q 625 8 625 56 q 605 -87 625 -47 q 549 -153 584 -127 q 469 -192 514 -180 q 375 -205 424 -205 q 267 -188 317 -205 q 182 -137 218 -170 q 127 -57 146 -104 q 107 49 107 -10 l 221 49 q 233 -15 221 13 q 265 -62 244 -43 q 313 -91 285 -81 q 375 -101 342 -101 q 427 -94 402 -101 q 471 -74 452 -87 q 502 -40 490 -60 q 513 8 513 -20 q 503 57 513 36 q 478 94 493 78 q 443 122 462 109 q 406 144 424 134 l 215 254 q 171 284 196 266 q 124 329 146 302 q 86 392 102 356 q 71 473 71 428 q 81 528 71 500 q 110 581 91 556 q 154 625 128 606 q 209 653 179 644 l 209 657 q 159 727 178 688 q 140 813 140 765 q 158 897 140 859 q 208 964 176 936 q 284 1008 240 992 q 381 1024 328 1024 q 484 1005 438 1024 q 561 953 529 986 q 610 873 593 920 q 627 771 627 827 l 515 771 m 586 347 q 578 388 586 369 q 557 422 570 406 q 528 452 545 438 q 493 475 511 465 l 300 588 q 263 593 284 598 q 224 571 242 587 q 192 530 205 555 q 180 473 180 505 q 187 431 180 450 q 208 396 195 411 q 239 367 221 380 q 274 343 256 355 l 458 237 q 482 231 468 231 q 509 237 495 231 q 537 253 524 243 q 562 277 551 263 q 579 309 573 291 q 586 347 586 327 z "},"¨":{"ha":821,"x_min":189,"x_max":631,"o":"m 268 884 q 239 890 253 884 q 213 908 224 897 q 196 933 202 919 q 189 963 189 947 q 196 994 189 980 q 213 1019 202 1009 q 239 1036 224 1030 q 268 1042 253 1042 q 300 1036 286 1042 q 325 1019 314 1030 q 341 994 335 1009 q 347 963 347 980 q 341 933 347 947 q 325 908 335 919 q 300 890 314 897 q 268 884 286 884 m 552 884 q 523 890 537 884 q 497 908 509 897 q 480 933 486 919 q 473 963 473 947 q 480 994 473 980 q 497 1019 486 1009 q 523 1036 509 1030 q 552 1042 537 1042 q 584 1036 570 1042 q 609 1019 598 1030 q 625 994 619 1009 q 631 963 631 980 q 625 933 631 947 q 609 908 619 919 q 584 890 598 897 q 552 884 570 884 z "},"©":{"ha":1271,"x_min":114,"x_max":1157,"o":"m 635 -16 q 497 3 564 -16 q 373 55 431 21 q 267 137 315 89 q 185 242 219 184 q 133 366 151 300 q 114 505 114 433 q 134 644 115 577 q 186 768 152 710 q 268 873 220 826 q 373 955 315 921 q 497 1007 431 989 q 635 1026 564 1026 q 774 1007 707 1026 q 898 955 840 989 q 1003 873 956 921 q 1085 768 1051 826 q 1137 644 1119 710 q 1156 505 1156 577 q 1138 366 1157 433 q 1086 242 1120 300 q 1004 137 1052 184 q 899 55 957 89 q 774 3 841 21 q 635 -16 707 -16 m 635 99 q 744 113 691 99 q 841 154 796 128 q 923 218 886 181 q 987 300 960 254 q 1027 397 1013 345 q 1042 505 1042 449 q 1027 613 1042 561 q 986 710 1012 665 q 922 793 959 756 q 840 856 885 830 q 743 897 795 882 q 635 911 691 911 q 528 897 580 911 q 431 856 476 882 q 349 792 386 829 q 285 710 312 755 q 244 613 258 664 q 229 505 229 561 q 243 397 229 449 q 284 300 257 345 q 347 218 310 255 q 430 154 385 181 q 527 113 475 128 q 635 99 579 99 m 347 505 q 370 619 347 566 q 433 712 393 672 q 526 775 473 752 q 640 798 580 798 q 740 781 693 798 q 824 732 787 763 q 885 659 861 701 q 916 568 909 618 l 797 568 q 778 615 792 593 q 742 651 763 636 q 695 675 721 666 q 640 684 669 684 q 571 670 603 684 q 514 631 538 655 q 476 575 490 607 q 462 505 462 542 q 476 436 462 468 q 514 379 490 403 q 571 341 538 355 q 640 327 603 327 q 693 335 669 327 q 737 359 718 344 q 769 396 756 374 q 787 442 782 417 l 907 442 q 877 351 900 393 q 819 278 854 309 q 738 230 784 247 q 640 212 693 212 q 526 235 580 212 q 433 298 473 258 q 370 391 393 338 q 347 505 347 444 z "},"ª":{"ha":623,"x_min":93,"x_max":531,"o":"m 400 526 q 376 504 389 514 q 345 486 362 494 q 307 474 328 478 q 262 470 287 470 q 190 481 222 470 q 137 512 158 492 q 104 560 115 532 q 93 623 93 589 q 151 740 93 699 q 326 781 209 781 l 395 781 l 395 815 q 316 902 395 902 q 246 884 271 902 q 221 835 221 867 l 105 844 q 120 907 105 878 q 162 957 135 936 q 229 990 189 979 q 316 1002 268 1002 q 397 990 360 1002 q 459 955 433 979 q 499 897 485 932 q 513 815 513 862 l 513 602 q 517 539 513 569 q 531 479 520 509 l 410 479 q 404 502 407 490 q 400 526 401 513 m 326 702 q 275 696 296 702 q 240 680 254 690 q 219 656 226 669 q 213 627 213 642 q 232 584 213 599 q 292 568 250 568 q 320 572 306 568 q 348 581 334 575 q 374 594 362 586 q 395 610 386 602 l 395 702 l 326 702 z "},"«":{"ha":750,"x_min":93,"x_max":647,"o":"m 292 109 l 93 404 l 93 418 l 292 714 l 395 714 l 207 411 l 395 109 l 292 109 m 545 109 l 345 404 l 345 418 l 545 714 l 647 714 l 460 411 l 647 109 l 545 109 z "},"¬":{"ha":750,"x_min":93,"x_max":659,"o":"m 659 254 l 523 254 l 523 430 l 93 430 l 93 546 l 659 546 l 659 254 z "},"­":{"ha":639,"x_min":99,"x_max":541,"o":"m 541 379 l 99 379 l 99 487 l 541 487 l 541 379 z "},"®":{"ha":931,"x_min":71,"x_max":860,"o":"m 466 235 q 361 249 411 235 q 266 289 310 263 q 186 350 222 314 q 125 430 150 386 q 85 525 99 474 q 71 629 71 575 q 85 734 71 684 q 125 829 99 785 q 186 908 150 872 q 266 970 222 945 q 361 1010 310 996 q 466 1024 411 1024 q 571 1010 520 1024 q 665 970 621 996 q 745 908 709 945 q 806 829 781 872 q 846 734 832 785 q 860 629 860 684 q 846 525 860 575 q 806 430 832 474 q 745 350 781 386 q 665 289 709 314 q 570 249 621 263 q 466 235 520 235 m 466 329 q 545 340 507 329 q 617 370 583 351 q 678 417 651 390 q 725 478 705 444 q 755 550 744 511 q 765 629 765 588 q 742 746 765 691 q 678 842 719 801 q 582 906 637 882 q 466 929 528 929 q 386 919 424 929 q 314 888 348 908 q 254 841 281 869 q 207 781 226 814 q 176 709 187 747 q 166 629 166 671 q 189 513 166 567 q 254 418 213 458 q 349 353 294 377 q 466 329 403 329 m 327 816 l 512 816 q 548 809 529 816 q 584 787 568 801 q 612 751 601 773 q 623 699 623 729 q 618 664 623 681 q 605 635 614 648 q 586 611 597 621 q 564 593 576 600 l 638 452 l 550 452 l 487 575 l 407 575 l 407 452 l 327 452 l 327 816 m 481 634 q 499 638 490 634 q 517 651 509 643 q 530 671 525 659 q 536 699 536 683 q 530 727 536 716 q 517 745 525 738 q 499 754 509 751 q 483 757 490 757 l 407 757 l 407 634 l 481 634 z "},"¯":{"ha":623,"x_min":81,"x_max":543,"o":"m 543 911 l 81 911 l 81 1010 l 543 1010 l 543 911 z "},"°":{"ha":631,"x_min":89,"x_max":543,"o":"m 316 564 q 227 582 269 564 q 155 631 186 600 q 107 703 124 661 q 89 791 89 744 q 107 879 89 838 q 155 952 124 921 q 227 1000 186 982 q 316 1018 269 1018 q 404 1000 363 1018 q 476 952 445 982 q 525 879 507 921 q 543 791 543 838 q 525 703 543 744 q 476 631 507 661 q 404 582 445 600 q 316 564 363 564 m 316 663 q 366 673 342 663 q 406 700 389 683 q 434 741 424 718 q 444 791 444 764 q 434 841 444 818 q 406 882 424 865 q 366 909 389 899 q 316 919 342 919 q 266 909 289 919 q 225 882 242 899 q 198 841 208 865 q 187 791 187 818 q 198 741 187 764 q 225 700 208 718 q 266 673 242 683 q 316 663 289 663 z "},"±":{"ha":915,"x_min":140,"x_max":775,"o":"m 140 556 l 402 556 l 402 758 l 513 758 l 513 556 l 775 556 l 775 446 l 513 446 l 513 245 l 402 245 l 402 446 l 140 446 l 140 556 m 140 158 l 775 158 l 775 47 l 140 47 l 140 158 z "},"²":{"ha":584,"x_min":65,"x_max":525,"o":"m 69 582 l 300 787 q 345 829 326 810 q 378 866 365 848 q 398 901 391 883 q 404 937 404 918 q 395 977 404 959 q 370 1008 386 995 q 333 1027 355 1020 q 286 1034 311 1034 q 238 1026 259 1034 q 200 1005 216 1019 q 176 973 185 992 q 168 931 168 954 l 65 931 q 82 1008 65 974 q 128 1067 98 1043 q 198 1105 157 1091 q 288 1119 239 1119 q 377 1105 337 1119 q 447 1067 418 1091 q 491 1010 475 1043 q 507 939 507 978 q 498 882 507 909 q 470 829 489 856 q 421 773 451 802 q 351 708 392 744 l 223 596 l 223 592 l 525 592 l 525 505 l 69 505 l 69 582 z "},"³":{"ha":598,"x_min":59,"x_max":541,"o":"m 298 497 q 204 510 247 497 q 128 547 160 523 q 78 603 97 570 q 59 675 60 636 l 168 675 q 179 638 169 655 q 206 610 189 622 q 247 592 223 599 q 298 586 271 586 q 351 593 327 586 q 393 613 375 600 q 420 643 410 625 q 430 681 430 660 q 420 719 430 701 q 390 749 409 736 q 345 768 371 762 q 284 775 318 775 l 235 775 l 235 854 l 284 854 q 335 861 312 854 q 376 879 359 867 q 402 908 393 891 q 412 945 412 924 q 404 981 412 964 q 381 1009 396 997 q 346 1027 366 1020 q 300 1034 325 1034 q 253 1027 275 1034 q 213 1009 230 1021 q 186 981 196 997 q 176 943 177 964 l 73 943 q 92 1015 74 982 q 140 1070 109 1047 q 211 1106 170 1093 q 300 1119 253 1119 q 388 1106 348 1119 q 456 1071 428 1093 q 501 1018 485 1049 q 517 951 517 987 q 507 902 517 924 q 481 864 498 880 q 440 836 464 847 q 391 821 417 825 l 391 817 q 455 799 427 812 q 502 767 483 786 q 531 724 521 748 q 541 673 541 700 q 523 603 541 635 q 472 547 505 571 q 396 510 440 524 q 298 497 351 497 z "},"´":{"ha":690,"x_min":276,"x_max":533,"o":"m 397 1089 l 533 1089 l 379 860 l 276 860 l 397 1089 z "},"µ":{"ha":864,"x_min":107,"x_max":758,"o":"m 107 758 l 223 758 l 223 310 q 238 225 223 263 q 280 160 253 187 q 346 118 308 133 q 432 103 385 103 q 518 118 479 103 q 584 161 557 133 q 626 226 612 188 q 641 310 641 264 l 641 758 l 758 758 l 758 0 l 641 0 l 641 112 l 635 112 q 598 60 620 82 q 550 21 576 37 q 494 -2 524 6 q 432 -10 464 -10 q 371 -2 400 -10 q 314 21 341 6 q 266 60 288 37 q 229 112 245 82 l 223 112 l 223 -284 l 107 -284 l 107 758 z "},"¶":{"ha":833,"x_min":75,"x_max":710,"o":"m 588 902 l 466 902 l 466 375 l 408 375 q 266 399 328 375 q 161 465 203 423 q 97 565 119 507 q 75 692 75 624 q 97 819 75 761 q 161 919 119 877 q 266 986 203 962 q 408 1010 328 1010 l 710 1010 l 710 0 l 588 0 l 588 902 z "},"·":{"ha":383,"x_min":103,"x_max":280,"o":"m 191 353 q 157 360 173 353 q 128 379 141 367 q 109 407 116 391 q 103 442 103 424 q 109 476 103 460 q 128 505 116 493 q 157 524 141 517 q 191 531 173 531 q 226 524 210 531 q 254 505 242 517 q 273 476 266 493 q 280 442 280 460 q 273 407 280 424 q 254 379 266 391 q 226 360 242 367 q 191 353 210 353 z "},"¸":{"ha":371,"x_min":118,"x_max":329,"o":"m 235 4 l 227 -36 q 265 -46 246 -38 q 297 -68 283 -54 q 321 -103 312 -82 q 329 -152 329 -123 q 316 -210 329 -184 q 277 -256 303 -237 q 212 -285 251 -275 q 122 -296 174 -296 l 118 -219 q 161 -216 142 -219 q 195 -204 181 -212 q 217 -185 209 -197 q 225 -156 225 -173 q 219 -128 225 -139 q 200 -109 213 -116 q 167 -99 187 -103 q 118 -93 146 -95 l 138 4 l 235 4 z "},"¹":{"ha":435,"x_min":55,"x_max":319,"o":"m 216 1003 l 211 1003 l 55 900 l 55 1004 l 216 1111 l 319 1111 l 319 505 l 216 505 l 216 1003 z "},"º":{"ha":623,"x_min":77,"x_max":546,"o":"m 77 762 q 93 858 77 814 q 140 934 110 903 q 214 984 171 966 q 312 1002 258 1002 q 410 984 366 1002 q 484 934 454 966 q 530 858 514 903 q 546 762 546 814 l 546 708 q 530 612 546 656 q 484 536 514 568 q 411 487 454 505 q 314 470 368 470 q 215 487 259 470 q 141 536 171 505 q 93 612 110 568 q 77 708 77 656 l 77 762 m 195 708 q 203 652 195 678 q 225 608 210 626 q 262 579 240 589 q 314 568 284 568 q 364 579 343 568 q 400 608 386 589 q 421 652 414 626 q 428 708 428 678 l 428 762 q 421 817 428 791 q 400 861 414 842 q 363 891 385 880 q 312 902 341 902 q 261 891 283 902 q 225 861 239 880 q 203 817 210 842 q 195 762 195 791 l 195 708 z "},"»":{"ha":750,"x_min":93,"x_max":647,"o":"m 533 411 l 345 714 l 448 714 l 647 418 l 647 404 l 448 109 l 345 109 l 533 411 m 280 411 l 93 714 l 195 714 l 395 418 l 395 404 l 195 109 l 93 109 l 280 411 z "},"¼":{"ha":1227,"x_min":47,"x_max":1186,"o":"m 724 178 l 982 537 l 1111 537 l 1111 180 l 1186 180 l 1186 97 l 1111 97 l 1111 0 l 1012 0 l 1012 97 l 724 97 l 724 178 m 884 1010 l 996 1010 l 302 0 l 189 0 l 884 1010 m 184 903 l 180 903 l 47 815 l 47 919 l 184 1010 l 287 1010 l 287 473 l 184 473 l 184 903 m 1014 424 l 1010 424 l 831 182 l 831 180 l 1014 180 l 1014 424 z "},"½":{"ha":1286,"x_min":47,"x_max":1235,"o":"m 884 1010 l 996 1010 l 302 0 l 189 0 l 884 1010 m 815 75 l 1026 253 q 1067 289 1050 273 q 1095 320 1084 305 q 1111 349 1106 335 q 1117 379 1117 363 q 1109 414 1117 398 q 1087 441 1101 430 q 1054 458 1073 452 q 1012 464 1034 464 q 971 457 990 464 q 938 439 952 451 q 916 411 924 428 q 908 375 908 395 l 809 375 q 824 444 809 413 q 866 497 838 475 q 930 532 893 520 q 1014 545 968 545 q 1097 532 1060 545 q 1161 497 1134 519 q 1201 446 1187 475 q 1215 381 1215 416 q 1208 331 1215 354 q 1183 283 1200 307 q 1139 234 1166 259 q 1073 176 1112 208 l 965 87 l 965 83 l 1235 83 l 1235 0 l 815 0 l 815 75 m 184 903 l 180 903 l 47 815 l 47 919 l 184 1010 l 287 1010 l 287 473 l 184 473 l 184 903 z "},"¾":{"ha":1318,"x_min":51,"x_max":1276,"o":"m 815 178 l 1073 537 l 1201 537 l 1201 180 l 1276 180 l 1276 97 l 1201 97 l 1201 0 l 1103 0 l 1103 97 l 815 97 l 815 178 m 270 466 q 183 478 223 466 q 113 512 143 490 q 68 564 84 534 q 51 629 51 594 l 156 629 q 164 598 156 613 q 189 573 173 583 q 225 556 204 562 q 270 550 246 550 q 315 557 295 550 q 351 574 336 563 q 374 600 366 585 q 383 631 383 615 q 374 664 383 649 q 348 689 364 678 q 308 705 331 699 q 256 710 285 710 l 213 710 l 213 783 l 256 783 q 302 789 281 783 q 338 805 323 795 q 362 829 354 815 q 371 860 371 843 q 363 890 371 876 q 343 915 356 905 q 311 931 329 925 q 270 937 292 937 q 229 931 248 937 q 195 915 209 925 q 172 890 181 904 q 164 858 164 875 l 63 858 q 80 922 64 893 q 123 973 96 951 q 188 1006 150 994 q 270 1018 226 1018 q 352 1007 315 1018 q 415 976 389 996 q 457 928 442 956 q 472 868 472 901 q 463 826 472 845 q 439 792 455 806 q 402 767 424 777 q 353 754 380 758 l 353 750 q 412 734 387 745 q 455 707 438 723 q 482 669 473 690 q 491 623 491 648 q 475 561 491 589 q 430 510 459 532 q 360 477 400 489 q 270 466 319 466 m 975 1010 l 1087 1010 l 393 0 l 280 0 l 975 1010 m 1105 424 l 1101 424 l 921 182 l 921 180 l 1105 180 l 1105 424 z "},"¿":{"ha":704,"x_min":69,"x_max":649,"o":"m 446 466 q 435 347 445 395 q 404 265 424 299 q 355 208 384 231 q 290 162 327 184 q 250 131 268 148 q 217 93 231 114 q 195 47 203 72 q 187 -8 187 22 q 200 -73 187 -44 q 236 -123 214 -103 q 290 -155 259 -144 q 355 -166 321 -166 q 415 -157 386 -166 q 468 -127 444 -147 q 507 -77 491 -108 q 525 -2 522 -46 l 649 -2 q 622 -114 646 -65 q 559 -198 599 -164 q 468 -250 520 -232 q 355 -268 415 -268 q 237 -248 290 -268 q 147 -193 184 -228 q 89 -109 109 -157 q 69 -2 69 -60 q 106 138 69 80 q 207 236 142 196 q 262 277 240 256 q 299 325 285 298 q 320 386 313 352 q 327 466 327 420 l 327 472 l 446 472 l 446 466 m 383 763 q 417 757 401 763 q 446 738 434 750 q 465 709 458 726 q 472 675 472 693 q 465 640 472 656 q 446 612 458 624 q 417 593 434 600 q 383 586 401 586 q 348 593 364 586 q 320 612 332 600 q 301 640 308 624 q 294 675 294 656 q 301 709 294 693 q 320 738 308 726 q 348 757 332 750 q 383 763 364 763 z "},"À":{"ha":939,"x_min":36,"x_max":904,"o":"m 36 0 l 406 1010 l 533 1010 l 904 0 l 775 0 l 674 286 l 265 286 l 164 0 l 36 0 m 635 395 l 473 850 l 466 850 l 304 395 l 635 395 m 266 1342 l 402 1342 l 523 1113 l 420 1113 l 266 1342 z "},"Á":{"ha":939,"x_min":36,"x_max":904,"o":"m 36 0 l 406 1010 l 533 1010 l 904 0 l 775 0 l 674 286 l 265 286 l 164 0 l 36 0 m 635 395 l 473 850 l 466 850 l 304 395 l 635 395 m 537 1342 l 673 1342 l 519 1113 l 416 1113 l 537 1342 z "},"Â":{"ha":939,"x_min":36,"x_max":904,"o":"m 36 0 l 406 1010 l 533 1010 l 904 0 l 775 0 l 674 286 l 265 286 l 164 0 l 36 0 m 635 395 l 473 850 l 466 850 l 304 395 l 635 395 m 470 1239 l 367 1101 l 256 1101 l 256 1109 l 416 1314 l 523 1314 l 683 1109 l 683 1101 l 572 1101 l 470 1239 z "},"Ã":{"ha":939,"x_min":36,"x_max":904,"o":"m 36 0 l 406 1010 l 533 1010 l 904 0 l 775 0 l 674 286 l 265 286 l 164 0 l 36 0 m 635 395 l 473 850 l 466 850 l 304 395 l 635 395 m 227 1115 q 238 1184 227 1153 q 270 1238 250 1215 q 318 1274 290 1261 q 377 1286 345 1286 q 427 1276 405 1286 q 468 1255 448 1267 q 509 1233 488 1243 q 556 1223 530 1223 q 583 1229 571 1223 q 604 1245 595 1235 q 618 1269 613 1255 q 623 1298 623 1283 l 712 1290 q 701 1221 712 1252 q 669 1168 689 1190 q 622 1134 649 1146 q 562 1123 594 1123 q 523 1127 540 1123 q 492 1139 506 1132 q 467 1154 478 1146 q 442 1169 455 1163 q 416 1181 430 1176 q 383 1186 401 1186 q 357 1180 369 1186 q 336 1164 345 1174 q 323 1140 327 1154 q 318 1111 318 1126 l 227 1115 z "},"Ä":{"ha":939,"x_min":36,"x_max":904,"o":"m 36 0 l 406 1010 l 533 1010 l 904 0 l 775 0 l 674 286 l 265 286 l 164 0 l 36 0 m 635 395 l 473 850 l 466 850 l 304 395 l 635 395 m 327 1136 q 298 1143 312 1136 q 273 1160 284 1149 q 255 1186 261 1171 q 249 1215 249 1200 q 255 1247 249 1233 q 273 1272 261 1261 q 298 1288 284 1282 q 327 1294 312 1294 q 359 1288 345 1294 q 384 1272 373 1282 q 400 1247 395 1261 q 406 1215 406 1233 q 400 1186 406 1200 q 384 1160 395 1171 q 359 1143 373 1149 q 327 1136 345 1136 m 612 1136 q 582 1143 596 1136 q 557 1160 568 1149 q 539 1186 545 1171 q 533 1215 533 1200 q 539 1247 533 1233 q 557 1272 545 1261 q 582 1288 568 1282 q 612 1294 596 1294 q 643 1288 629 1294 q 668 1272 657 1282 q 685 1247 679 1261 q 690 1215 690 1233 q 685 1186 690 1200 q 668 1160 679 1171 q 643 1143 657 1149 q 612 1136 629 1136 z "},"Å":{"ha":939,"x_min":36,"x_max":904,"o":"m 36 0 l 406 1010 l 533 1010 l 904 0 l 775 0 l 674 286 l 265 286 l 164 0 l 36 0 m 635 395 l 473 850 l 466 850 l 304 395 l 635 395 m 470 1079 q 414 1090 440 1079 q 368 1121 388 1102 q 338 1166 349 1140 q 327 1222 327 1193 q 338 1278 327 1252 q 368 1323 349 1304 q 414 1354 388 1343 q 470 1365 440 1365 q 525 1354 499 1365 q 571 1323 551 1343 q 601 1278 590 1304 q 613 1222 613 1252 q 601 1166 613 1193 q 571 1121 590 1140 q 525 1090 551 1102 q 470 1079 499 1079 m 470 1150 q 498 1156 485 1150 q 520 1171 511 1162 q 535 1194 530 1181 q 541 1222 541 1207 q 535 1250 541 1237 q 520 1273 530 1264 q 498 1289 511 1283 q 470 1294 485 1294 q 441 1289 454 1294 q 419 1273 428 1283 q 404 1250 409 1264 q 399 1222 399 1237 q 404 1194 399 1207 q 419 1171 409 1181 q 441 1156 428 1162 q 470 1150 454 1150 z "},"Æ":{"ha":1375,"x_min":36,"x_max":1284,"o":"m 525 1010 l 1276 1010 l 1276 902 l 789 902 l 789 560 l 1245 560 l 1245 452 l 789 452 l 789 109 l 1284 109 l 1284 0 l 667 0 l 667 286 l 304 286 l 170 0 l 36 0 l 525 1010 m 667 395 l 667 902 l 594 902 l 355 395 l 667 395 z "},"Ç":{"ha":1010,"x_min":83,"x_max":935,"o":"m 813 694 q 775 787 802 747 q 710 854 748 827 q 626 896 672 882 q 529 909 579 909 q 400 883 460 909 q 296 806 340 857 q 227 679 252 755 q 201 505 201 604 q 227 331 201 407 q 296 204 252 255 q 400 127 340 153 q 529 101 460 101 q 626 114 579 101 q 710 156 672 128 q 775 223 748 183 q 813 316 802 263 l 935 316 q 890 186 922 244 q 810 86 857 128 q 702 19 762 44 q 573 -12 641 -6 l 566 -43 q 604 -54 585 -46 q 637 -76 622 -62 q 660 -110 651 -90 q 669 -160 669 -131 q 655 -218 669 -192 q 616 -264 642 -245 q 552 -293 590 -283 q 462 -304 513 -304 l 458 -227 q 500 -223 481 -227 q 534 -212 520 -220 q 556 -193 548 -205 q 564 -164 564 -181 q 558 -136 564 -147 q 539 -117 552 -124 q 506 -107 526 -110 q 458 -101 486 -103 l 476 -11 q 317 38 390 -1 q 193 145 245 78 q 112 303 141 212 q 83 505 83 394 q 98 654 83 585 q 141 782 113 724 q 209 884 169 839 q 298 960 249 929 q 406 1008 348 991 q 529 1024 464 1024 q 673 1001 605 1024 q 794 937 740 979 q 885 834 848 895 q 935 694 921 772 l 813 694 z "},"È":{"ha":831,"x_min":122,"x_max":740,"o":"m 122 1010 l 732 1010 l 732 902 l 245 902 l 245 560 l 700 560 l 700 452 l 245 452 l 245 109 l 740 109 l 740 0 l 122 0 l 122 1010 m 223 1342 l 359 1342 l 479 1113 l 377 1113 l 223 1342 z "},"É":{"ha":831,"x_min":122,"x_max":740,"o":"m 122 1010 l 732 1010 l 732 902 l 245 902 l 245 560 l 700 560 l 700 452 l 245 452 l 245 109 l 740 109 l 740 0 l 122 0 l 122 1010 m 493 1342 l 629 1342 l 475 1113 l 373 1113 l 493 1342 z "},"Ê":{"ha":831,"x_min":122,"x_max":740,"o":"m 122 1010 l 732 1010 l 732 902 l 245 902 l 245 560 l 700 560 l 700 452 l 245 452 l 245 109 l 740 109 l 740 0 l 122 0 l 122 1010 m 426 1239 l 324 1101 l 213 1101 l 213 1109 l 373 1314 l 479 1314 l 639 1109 l 639 1101 l 529 1101 l 426 1239 z "},"Ë":{"ha":831,"x_min":122,"x_max":740,"o":"m 122 1010 l 732 1010 l 732 902 l 245 902 l 245 560 l 700 560 l 700 452 l 245 452 l 245 109 l 740 109 l 740 0 l 122 0 l 122 1010 m 284 1136 q 254 1143 269 1136 q 229 1160 240 1149 q 212 1186 218 1171 q 205 1215 205 1200 q 212 1247 205 1233 q 229 1272 218 1261 q 254 1288 240 1282 q 284 1294 269 1294 q 316 1288 301 1294 q 341 1272 330 1282 q 357 1247 351 1261 q 363 1215 363 1233 q 357 1186 363 1200 q 341 1160 351 1171 q 316 1143 330 1149 q 284 1136 301 1136 m 568 1136 q 539 1143 553 1136 q 513 1160 524 1149 q 496 1186 502 1171 q 489 1215 489 1200 q 496 1247 489 1233 q 513 1272 502 1261 q 539 1288 524 1282 q 568 1294 553 1294 q 600 1288 585 1294 q 625 1272 614 1282 q 641 1247 635 1261 q 647 1215 647 1233 q 641 1186 647 1200 q 625 1160 635 1171 q 600 1143 614 1149 q 568 1136 585 1136 z "},"Ì":{"ha":367,"x_min":-20,"x_max":245,"o":"m 245 0 l 122 0 l 122 1010 l 245 1010 l 245 0 m -20 1342 l 116 1342 l 237 1113 l 134 1113 l -20 1342 z "},"Í":{"ha":367,"x_min":122,"x_max":387,"o":"m 245 0 l 122 0 l 122 1010 l 245 1010 l 245 0 m 251 1342 l 387 1342 l 233 1113 l 130 1113 l 251 1342 z "},"Î":{"ha":367,"x_min":-30,"x_max":397,"o":"m 245 0 l 122 0 l 122 1010 l 245 1010 l 245 0 m 183 1239 l 81 1101 l -30 1101 l -30 1109 l 130 1314 l 237 1314 l 397 1109 l 397 1101 l 286 1101 l 183 1239 z "},"Ï":{"ha":367,"x_min":-37,"x_max":404,"o":"m 245 0 l 122 0 l 122 1010 l 245 1010 l 245 0 m 41 1136 q 12 1143 26 1136 q -14 1160 -2 1149 q -31 1186 -25 1171 q -37 1215 -37 1200 q -31 1247 -37 1233 q -14 1272 -25 1261 q 12 1288 -2 1282 q 41 1294 26 1294 q 73 1288 59 1294 q 98 1272 87 1282 q 114 1247 109 1261 q 120 1215 120 1233 q 114 1186 120 1200 q 98 1160 109 1171 q 73 1143 87 1149 q 41 1136 59 1136 m 326 1136 q 296 1143 310 1136 q 271 1160 282 1149 q 253 1186 259 1171 q 247 1215 247 1200 q 253 1247 247 1233 q 271 1272 259 1261 q 296 1288 282 1282 q 326 1294 310 1294 q 357 1288 343 1294 q 382 1272 371 1282 q 399 1247 393 1261 q 404 1215 404 1233 q 399 1186 404 1200 q 382 1160 393 1171 q 357 1143 371 1149 q 326 1136 343 1136 z "},"Ð":{"ha":998,"x_min":-34,"x_max":915,"o":"m 122 0 l 122 475 l -34 475 l -34 566 l 122 566 l 122 1010 l 448 1010 q 645 976 558 1010 q 792 876 732 941 q 884 718 852 811 q 915 507 915 625 q 884 295 915 389 q 790 135 852 201 q 639 35 729 70 q 434 0 549 0 l 122 0 m 426 109 q 590 136 520 109 q 706 215 659 164 q 774 341 752 267 q 797 507 797 415 q 775 672 797 599 q 707 796 752 745 q 596 874 662 847 q 440 902 529 902 l 245 902 l 245 566 l 400 566 l 400 475 l 245 475 l 245 109 l 426 109 z "},"Ñ":{"ha":1046,"x_min":122,"x_max":923,"o":"m 923 0 l 805 0 l 254 793 l 245 793 l 245 0 l 122 0 l 122 1010 l 241 1010 l 793 215 l 803 215 l 803 1010 l 923 1010 l 923 0 m 280 1105 q 292 1174 280 1143 q 323 1228 303 1205 q 371 1264 343 1251 q 430 1276 399 1276 q 480 1267 458 1276 q 522 1245 502 1257 q 562 1223 542 1233 q 610 1213 583 1213 q 636 1219 624 1213 q 657 1235 648 1225 q 672 1259 666 1245 q 677 1288 677 1273 l 765 1280 q 754 1211 765 1242 q 722 1158 742 1180 q 675 1125 702 1136 q 616 1113 648 1113 q 576 1117 593 1113 q 545 1129 559 1122 q 520 1144 532 1136 q 496 1160 508 1153 q 469 1171 483 1166 q 436 1176 455 1176 q 410 1170 422 1176 q 389 1154 398 1164 q 376 1130 381 1144 q 371 1101 371 1117 l 280 1105 z "},"Ò":{"ha":1057,"x_min":83,"x_max":975,"o":"m 975 505 q 941 289 975 385 q 849 126 908 193 q 708 22 789 59 q 529 -14 626 -14 q 406 2 464 -14 q 298 50 348 19 q 209 126 249 81 q 141 228 169 171 q 98 356 113 286 q 83 505 83 425 q 98 654 83 585 q 141 782 113 724 q 209 884 169 839 q 298 960 249 929 q 406 1008 348 991 q 529 1024 464 1024 q 708 988 626 1024 q 849 885 789 952 q 941 721 908 817 q 975 505 975 625 m 856 505 q 831 679 856 604 q 761 806 805 755 q 657 883 717 857 q 529 909 598 909 q 400 883 460 909 q 296 806 340 857 q 227 679 252 755 q 201 505 201 604 q 227 331 201 407 q 296 204 252 255 q 400 127 340 153 q 529 101 460 101 q 657 127 598 101 q 761 204 717 153 q 831 331 805 255 q 856 505 856 407 m 326 1342 l 462 1342 l 582 1113 l 479 1113 l 326 1342 z "},"Ó":{"ha":1057,"x_min":83,"x_max":975,"o":"m 975 505 q 941 289 975 385 q 849 126 908 193 q 708 22 789 59 q 529 -14 626 -14 q 406 2 464 -14 q 298 50 348 19 q 209 126 249 81 q 141 228 169 171 q 98 356 113 286 q 83 505 83 425 q 98 654 83 585 q 141 782 113 724 q 209 884 169 839 q 298 960 249 929 q 406 1008 348 991 q 529 1024 464 1024 q 708 988 626 1024 q 849 885 789 952 q 941 721 908 817 q 975 505 975 625 m 856 505 q 831 679 856 604 q 761 806 805 755 q 657 883 717 857 q 529 909 598 909 q 400 883 460 909 q 296 806 340 857 q 227 679 252 755 q 201 505 201 604 q 227 331 201 407 q 296 204 252 255 q 400 127 340 153 q 529 101 460 101 q 657 127 598 101 q 761 204 717 153 q 831 331 805 255 q 856 505 856 407 m 596 1342 l 732 1342 l 578 1113 l 475 1113 l 596 1342 z "},"Ô":{"ha":1057,"x_min":83,"x_max":975,"o":"m 975 505 q 941 289 975 385 q 849 126 908 193 q 708 22 789 59 q 529 -14 626 -14 q 406 2 464 -14 q 298 50 348 19 q 209 126 249 81 q 141 228 169 171 q 98 356 113 286 q 83 505 83 425 q 98 654 83 585 q 141 782 113 724 q 209 884 169 839 q 298 960 249 929 q 406 1008 348 991 q 529 1024 464 1024 q 708 988 626 1024 q 849 885 789 952 q 941 721 908 817 q 975 505 975 625 m 856 505 q 831 679 856 604 q 761 806 805 755 q 657 883 717 857 q 529 909 598 909 q 400 883 460 909 q 296 806 340 857 q 227 679 252 755 q 201 505 201 604 q 227 331 201 407 q 296 204 252 255 q 400 127 340 153 q 529 101 460 101 q 657 127 598 101 q 761 204 717 153 q 831 331 805 255 q 856 505 856 407 m 529 1239 l 426 1101 l 316 1101 l 316 1109 l 475 1314 l 582 1314 l 742 1109 l 742 1101 l 631 1101 l 529 1239 z "},"Õ":{"ha":1057,"x_min":83,"x_max":975,"o":"m 975 505 q 941 289 975 385 q 849 126 908 193 q 708 22 789 59 q 529 -14 626 -14 q 406 2 464 -14 q 298 50 348 19 q 209 126 249 81 q 141 228 169 171 q 98 356 113 286 q 83 505 83 425 q 98 654 83 585 q 141 782 113 724 q 209 884 169 839 q 298 960 249 929 q 406 1008 348 991 q 529 1024 464 1024 q 708 988 626 1024 q 849 885 789 952 q 941 721 908 817 q 975 505 975 625 m 856 505 q 831 679 856 604 q 761 806 805 755 q 657 883 717 857 q 529 909 598 909 q 400 883 460 909 q 296 806 340 857 q 227 679 252 755 q 201 505 201 604 q 227 331 201 407 q 296 204 252 255 q 400 127 340 153 q 529 101 460 101 q 657 127 598 101 q 761 204 717 153 q 831 331 805 255 q 856 505 856 407 m 286 1115 q 298 1184 286 1153 q 329 1238 309 1215 q 377 1274 349 1261 q 436 1286 404 1286 q 486 1276 464 1286 q 527 1255 508 1267 q 568 1233 547 1243 q 616 1223 589 1223 q 642 1229 630 1223 q 663 1245 654 1235 q 677 1269 672 1255 q 683 1298 683 1283 l 771 1290 q 760 1221 771 1252 q 728 1168 748 1190 q 681 1134 708 1146 q 621 1123 654 1123 q 582 1127 599 1123 q 551 1139 565 1132 q 526 1154 538 1146 q 502 1169 514 1163 q 475 1181 489 1176 q 442 1186 461 1186 q 416 1180 428 1186 q 395 1164 404 1174 q 382 1140 387 1154 q 377 1111 377 1126 l 286 1115 z "},"Ö":{"ha":1057,"x_min":83,"x_max":975,"o":"m 975 505 q 941 289 975 385 q 849 126 908 193 q 708 22 789 59 q 529 -14 626 -14 q 406 2 464 -14 q 298 50 348 19 q 209 126 249 81 q 141 228 169 171 q 98 356 113 286 q 83 505 83 425 q 98 654 83 585 q 141 782 113 724 q 209 884 169 839 q 298 960 249 929 q 406 1008 348 991 q 529 1024 464 1024 q 708 988 626 1024 q 849 885 789 952 q 941 721 908 817 q 975 505 975 625 m 856 505 q 831 679 856 604 q 761 806 805 755 q 657 883 717 857 q 529 909 598 909 q 400 883 460 909 q 296 806 340 857 q 227 679 252 755 q 201 505 201 604 q 227 331 201 407 q 296 204 252 255 q 400 127 340 153 q 529 101 460 101 q 657 127 598 101 q 761 204 717 153 q 831 331 805 255 q 856 505 856 407 m 387 1136 q 357 1143 371 1136 q 332 1160 343 1149 q 314 1186 321 1171 q 308 1215 308 1200 q 314 1247 308 1233 q 332 1272 321 1261 q 357 1288 343 1282 q 387 1294 371 1294 q 418 1288 404 1294 q 443 1272 433 1282 q 460 1247 454 1261 q 466 1215 466 1233 q 460 1186 466 1200 q 443 1160 454 1171 q 418 1143 433 1149 q 387 1136 404 1136 m 671 1136 q 641 1143 655 1136 q 616 1160 627 1149 q 598 1186 605 1171 q 592 1215 592 1200 q 598 1247 592 1233 q 616 1272 605 1261 q 641 1288 627 1282 q 671 1294 655 1294 q 702 1288 688 1294 q 727 1272 717 1282 q 744 1247 738 1261 q 750 1215 750 1233 q 744 1186 750 1200 q 727 1160 738 1171 q 702 1143 717 1149 q 671 1136 688 1136 z "},"×":{"ha":915,"x_min":142,"x_max":773,"o":"m 458 320 l 217 79 l 142 154 l 383 395 l 142 635 l 217 710 l 458 470 l 698 710 l 773 635 l 533 395 l 773 154 l 698 79 l 458 320 z "},"Ø":{"ha":1057,"x_min":83,"x_max":975,"o":"m 138 10 l 213 121 q 117 286 151 189 q 83 505 83 382 q 98 654 83 585 q 141 782 113 724 q 209 884 169 839 q 298 960 249 929 q 406 1008 348 991 q 529 1024 464 1024 q 660 1005 599 1024 q 774 951 722 986 l 840 1050 l 915 998 l 843 891 q 940 726 905 823 q 975 505 975 629 q 941 289 975 385 q 849 126 908 193 q 708 22 789 59 q 529 -14 626 -14 q 396 5 458 -14 q 282 61 334 24 l 213 -41 l 138 10 m 856 505 q 835 668 856 597 q 774 790 813 738 l 347 157 q 432 115 386 129 q 529 101 478 101 q 657 127 598 101 q 761 204 717 153 q 831 331 805 255 q 856 505 856 407 m 708 854 q 624 896 670 882 q 529 909 579 909 q 400 883 460 909 q 296 806 340 857 q 227 679 252 755 q 201 505 201 604 q 222 344 201 414 q 282 222 244 273 l 708 854 z "},"Ù":{"ha":1030,"x_min":122,"x_max":908,"o":"m 908 1010 l 908 341 q 880 198 908 264 q 800 84 852 132 q 677 9 749 36 q 515 -18 604 -18 q 353 9 426 -18 q 229 84 281 36 q 150 198 178 132 q 122 341 122 264 l 122 1010 l 245 1010 l 245 351 q 263 249 245 296 q 316 168 282 202 q 401 116 351 135 q 515 97 452 97 q 628 116 578 97 q 713 168 679 135 q 767 249 748 202 q 785 351 785 296 l 785 1010 l 908 1010 m 312 1342 l 448 1342 l 568 1113 l 466 1113 l 312 1342 z "},"Ú":{"ha":1030,"x_min":122,"x_max":908,"o":"m 908 1010 l 908 341 q 880 198 908 264 q 800 84 852 132 q 677 9 749 36 q 515 -18 604 -18 q 353 9 426 -18 q 229 84 281 36 q 150 198 178 132 q 122 341 122 264 l 122 1010 l 245 1010 l 245 351 q 263 249 245 296 q 316 168 282 202 q 401 116 351 135 q 515 97 452 97 q 628 116 578 97 q 713 168 679 135 q 767 249 748 202 q 785 351 785 296 l 785 1010 l 908 1010 m 582 1342 l 718 1342 l 564 1113 l 462 1113 l 582 1342 z "},"Û":{"ha":1030,"x_min":122,"x_max":908,"o":"m 908 1010 l 908 341 q 880 198 908 264 q 800 84 852 132 q 677 9 749 36 q 515 -18 604 -18 q 353 9 426 -18 q 229 84 281 36 q 150 198 178 132 q 122 341 122 264 l 122 1010 l 245 1010 l 245 351 q 263 249 245 296 q 316 168 282 202 q 401 116 351 135 q 515 97 452 97 q 628 116 578 97 q 713 168 679 135 q 767 249 748 202 q 785 351 785 296 l 785 1010 l 908 1010 m 515 1239 l 412 1101 l 302 1101 l 302 1109 l 462 1314 l 568 1314 l 728 1109 l 728 1101 l 618 1101 l 515 1239 z "},"Ü":{"ha":1030,"x_min":122,"x_max":908,"o":"m 908 1010 l 908 341 q 880 198 908 264 q 800 84 852 132 q 677 9 749 36 q 515 -18 604 -18 q 353 9 426 -18 q 229 84 281 36 q 150 198 178 132 q 122 341 122 264 l 122 1010 l 245 1010 l 245 351 q 263 249 245 296 q 316 168 282 202 q 401 116 351 135 q 515 97 452 97 q 628 116 578 97 q 713 168 679 135 q 767 249 748 202 q 785 351 785 296 l 785 1010 l 908 1010 m 373 1136 q 343 1143 358 1136 q 318 1160 329 1149 q 300 1186 307 1171 q 294 1215 294 1200 q 300 1247 294 1233 q 318 1272 307 1261 q 343 1288 329 1282 q 373 1294 358 1294 q 404 1288 390 1294 q 429 1272 419 1282 q 446 1247 440 1261 q 452 1215 452 1233 q 446 1186 452 1200 q 429 1160 440 1171 q 404 1143 419 1149 q 373 1136 390 1136 m 657 1136 q 627 1143 642 1136 q 602 1160 613 1149 q 584 1186 591 1171 q 578 1215 578 1200 q 584 1247 578 1233 q 602 1272 591 1261 q 627 1288 613 1282 q 657 1294 642 1294 q 689 1288 674 1294 q 713 1272 703 1282 q 730 1247 724 1261 q 736 1215 736 1233 q 730 1186 736 1200 q 713 1160 724 1171 q 689 1143 703 1149 q 657 1136 674 1136 z "},"Ý":{"ha":923,"x_min":36,"x_max":888,"o":"m 176 1010 l 456 539 l 468 539 l 748 1010 l 888 1010 l 523 416 l 523 0 l 400 0 l 400 416 l 36 1010 l 176 1010 m 529 1342 l 665 1342 l 511 1113 l 408 1113 l 529 1342 z "},"Þ":{"ha":876,"x_min":114,"x_max":765,"o":"m 237 1010 l 237 801 l 432 801 q 575 778 513 801 q 679 716 637 755 q 744 624 722 677 q 765 511 765 571 q 744 398 765 451 q 679 306 722 345 q 575 244 637 267 q 432 221 513 221 l 237 221 l 237 0 l 114 0 l 114 1010 l 237 1010 m 432 329 q 593 376 538 329 q 649 509 649 423 q 635 586 649 552 q 593 644 620 620 q 525 680 566 667 q 432 692 485 692 l 237 692 l 237 329 l 432 329 z "},"ß":{"ha":846,"x_min":122,"x_max":767,"o":"m 122 752 q 144 865 122 815 q 204 951 165 916 q 296 1005 243 986 q 414 1024 350 1024 q 531 1006 477 1024 q 624 954 585 988 q 686 872 663 920 q 708 763 708 824 q 697 684 708 720 q 664 618 685 647 q 613 568 643 589 q 548 535 584 547 l 548 525 q 637 501 597 520 q 706 450 677 481 q 751 374 735 418 q 767 278 767 331 q 746 167 767 218 q 687 79 726 116 q 594 21 649 42 q 473 0 540 0 l 363 0 l 363 109 l 475 109 q 548 121 515 109 q 603 156 581 134 q 639 210 626 179 q 651 278 651 241 q 637 350 651 317 q 599 407 624 383 q 537 444 573 431 q 456 458 501 458 l 367 458 l 367 568 l 430 568 q 497 583 468 568 q 548 623 527 598 q 581 680 569 648 q 592 746 592 712 q 580 812 592 781 q 545 866 568 843 q 490 902 522 889 q 416 915 457 915 q 345 903 378 915 q 289 870 313 891 q 252 818 265 848 q 239 752 239 788 l 239 0 l 122 0 l 122 752 z "},"à":{"ha":783,"x_min":71,"x_max":677,"o":"m 329 -18 q 228 -2 276 -18 q 146 43 181 13 q 91 116 111 73 q 71 215 71 160 q 83 291 71 258 q 116 346 95 323 q 165 385 137 369 q 226 411 194 400 q 294 427 259 421 q 365 438 330 434 q 454 449 417 445 q 514 458 491 452 q 549 475 538 464 q 560 507 560 486 l 560 511 q 521 624 560 584 q 400 665 481 665 q 327 655 359 665 q 270 628 294 645 q 229 592 246 612 q 203 550 213 571 l 93 590 q 149 676 115 642 q 224 730 183 710 q 309 759 265 751 q 397 767 354 767 q 451 764 421 767 q 512 751 481 761 q 573 724 543 742 q 626 675 603 705 q 663 602 649 646 q 677 499 677 559 l 677 0 l 560 0 l 560 103 l 554 103 q 528 63 545 84 q 483 24 510 42 q 417 -6 455 6 q 329 -18 379 -18 m 347 87 q 439 103 399 87 q 506 145 478 119 q 546 205 533 171 q 560 274 560 239 l 560 381 q 542 370 555 375 q 510 360 529 364 q 471 352 492 356 q 429 346 449 349 q 390 341 408 343 q 359 337 371 339 q 294 325 325 333 q 239 302 263 317 q 201 265 216 288 q 187 209 187 243 q 199 156 187 179 q 233 118 211 133 q 283 94 254 102 q 347 87 313 87 m 201 1089 l 337 1089 l 458 860 l 355 860 l 201 1089 z "},"á":{"ha":783,"x_min":71,"x_max":677,"o":"m 329 -18 q 228 -2 276 -18 q 146 43 181 13 q 91 116 111 73 q 71 215 71 160 q 83 291 71 258 q 116 346 95 323 q 165 385 137 369 q 226 411 194 400 q 294 427 259 421 q 365 438 330 434 q 454 449 417 445 q 514 458 491 452 q 549 475 538 464 q 560 507 560 486 l 560 511 q 521 624 560 584 q 400 665 481 665 q 327 655 359 665 q 270 628 294 645 q 229 592 246 612 q 203 550 213 571 l 93 590 q 149 676 115 642 q 224 730 183 710 q 309 759 265 751 q 397 767 354 767 q 451 764 421 767 q 512 751 481 761 q 573 724 543 742 q 626 675 603 705 q 663 602 649 646 q 677 499 677 559 l 677 0 l 560 0 l 560 103 l 554 103 q 528 63 545 84 q 483 24 510 42 q 417 -6 455 6 q 329 -18 379 -18 m 347 87 q 439 103 399 87 q 506 145 478 119 q 546 205 533 171 q 560 274 560 239 l 560 381 q 542 370 555 375 q 510 360 529 364 q 471 352 492 356 q 429 346 449 349 q 390 341 408 343 q 359 337 371 339 q 294 325 325 333 q 239 302 263 317 q 201 265 216 288 q 187 209 187 243 q 199 156 187 179 q 233 118 211 133 q 283 94 254 102 q 347 87 313 87 m 472 1089 l 608 1089 l 454 860 l 351 860 l 472 1089 z "},"â":{"ha":783,"x_min":71,"x_max":677,"o":"m 329 -18 q 228 -2 276 -18 q 146 43 181 13 q 91 116 111 73 q 71 215 71 160 q 83 291 71 258 q 116 346 95 323 q 165 385 137 369 q 226 411 194 400 q 294 427 259 421 q 365 438 330 434 q 454 449 417 445 q 514 458 491 452 q 549 475 538 464 q 560 507 560 486 l 560 511 q 521 624 560 584 q 400 665 481 665 q 327 655 359 665 q 270 628 294 645 q 229 592 246 612 q 203 550 213 571 l 93 590 q 149 676 115 642 q 224 730 183 710 q 309 759 265 751 q 397 767 354 767 q 451 764 421 767 q 512 751 481 761 q 573 724 543 742 q 626 675 603 705 q 663 602 649 646 q 677 499 677 559 l 677 0 l 560 0 l 560 103 l 554 103 q 528 63 545 84 q 483 24 510 42 q 417 -6 455 6 q 329 -18 379 -18 m 347 87 q 439 103 399 87 q 506 145 478 119 q 546 205 533 171 q 560 274 560 239 l 560 381 q 542 370 555 375 q 510 360 529 364 q 471 352 492 356 q 429 346 449 349 q 390 341 408 343 q 359 337 371 339 q 294 325 325 333 q 239 302 263 317 q 201 265 216 288 q 187 209 187 243 q 199 156 187 179 q 233 118 211 133 q 283 94 254 102 q 347 87 313 87 m 404 986 l 302 848 l 191 848 l 191 856 l 351 1061 l 458 1061 l 618 856 l 618 848 l 507 848 l 404 986 z "},"ã":{"ha":783,"x_min":71,"x_max":677,"o":"m 329 -18 q 228 -2 276 -18 q 146 43 181 13 q 91 116 111 73 q 71 215 71 160 q 83 291 71 258 q 116 346 95 323 q 165 385 137 369 q 226 411 194 400 q 294 427 259 421 q 365 438 330 434 q 454 449 417 445 q 514 458 491 452 q 549 475 538 464 q 560 507 560 486 l 560 511 q 521 624 560 584 q 400 665 481 665 q 327 655 359 665 q 270 628 294 645 q 229 592 246 612 q 203 550 213 571 l 93 590 q 149 676 115 642 q 224 730 183 710 q 309 759 265 751 q 397 767 354 767 q 451 764 421 767 q 512 751 481 761 q 573 724 543 742 q 626 675 603 705 q 663 602 649 646 q 677 499 677 559 l 677 0 l 560 0 l 560 103 l 554 103 q 528 63 545 84 q 483 24 510 42 q 417 -6 455 6 q 329 -18 379 -18 m 347 87 q 439 103 399 87 q 506 145 478 119 q 546 205 533 171 q 560 274 560 239 l 560 381 q 542 370 555 375 q 510 360 529 364 q 471 352 492 356 q 429 346 449 349 q 390 341 408 343 q 359 337 371 339 q 294 325 325 333 q 239 302 263 317 q 201 265 216 288 q 187 209 187 243 q 199 156 187 179 q 233 118 211 133 q 283 94 254 102 q 347 87 313 87 m 162 852 q 173 922 162 890 q 205 976 185 953 q 253 1011 225 999 q 312 1024 280 1024 q 362 1014 340 1024 q 403 992 383 1004 q 444 971 423 981 q 491 961 465 961 q 518 967 506 961 q 539 983 530 973 q 553 1007 548 993 q 558 1036 558 1020 l 647 1028 q 636 958 647 989 q 604 906 624 927 q 557 872 584 884 q 497 860 529 860 q 457 865 474 860 q 427 876 440 870 q 401 892 413 883 q 377 907 390 900 q 351 919 365 914 q 318 923 336 923 q 292 917 304 923 q 271 901 280 911 q 257 878 262 891 q 253 848 253 864 l 162 852 z "},"ä":{"ha":783,"x_min":71,"x_max":677,"o":"m 329 -18 q 228 -2 276 -18 q 146 43 181 13 q 91 116 111 73 q 71 215 71 160 q 83 291 71 258 q 116 346 95 323 q 165 385 137 369 q 226 411 194 400 q 294 427 259 421 q 365 438 330 434 q 454 449 417 445 q 514 458 491 452 q 549 475 538 464 q 560 507 560 486 l 560 511 q 521 624 560 584 q 400 665 481 665 q 327 655 359 665 q 270 628 294 645 q 229 592 246 612 q 203 550 213 571 l 93 590 q 149 676 115 642 q 224 730 183 710 q 309 759 265 751 q 397 767 354 767 q 451 764 421 767 q 512 751 481 761 q 573 724 543 742 q 626 675 603 705 q 663 602 649 646 q 677 499 677 559 l 677 0 l 560 0 l 560 103 l 554 103 q 528 63 545 84 q 483 24 510 42 q 417 -6 455 6 q 329 -18 379 -18 m 347 87 q 439 103 399 87 q 506 145 478 119 q 546 205 533 171 q 560 274 560 239 l 560 381 q 542 370 555 375 q 510 360 529 364 q 471 352 492 356 q 429 346 449 349 q 390 341 408 343 q 359 337 371 339 q 294 325 325 333 q 239 302 263 317 q 201 265 216 288 q 187 209 187 243 q 199 156 187 179 q 233 118 211 133 q 283 94 254 102 q 347 87 313 87 m 262 884 q 233 890 247 884 q 207 908 218 897 q 190 933 196 919 q 183 963 183 947 q 190 994 183 980 q 207 1019 196 1009 q 233 1036 218 1030 q 262 1042 247 1042 q 294 1036 280 1042 q 319 1019 308 1030 q 335 994 329 1009 q 341 963 341 980 q 335 933 341 947 q 319 908 329 919 q 294 890 308 897 q 262 884 280 884 m 546 884 q 517 890 531 884 q 491 908 503 897 q 474 933 480 919 q 468 963 468 947 q 474 994 468 980 q 491 1019 480 1009 q 517 1036 503 1030 q 546 1042 531 1042 q 578 1036 564 1042 q 603 1019 592 1030 q 619 994 614 1009 q 625 963 625 980 q 619 933 625 947 q 603 908 614 919 q 578 890 592 897 q 546 884 564 884 z "},"å":{"ha":783,"x_min":71,"x_max":677,"o":"m 329 -18 q 228 -2 276 -18 q 146 43 181 13 q 91 116 111 73 q 71 215 71 160 q 83 291 71 258 q 116 346 95 323 q 165 385 137 369 q 226 411 194 400 q 294 427 259 421 q 365 438 330 434 q 454 449 417 445 q 514 458 491 452 q 549 475 538 464 q 560 507 560 486 l 560 511 q 521 624 560 584 q 400 665 481 665 q 327 655 359 665 q 270 628 294 645 q 229 592 246 612 q 203 550 213 571 l 93 590 q 149 676 115 642 q 224 730 183 710 q 309 759 265 751 q 397 767 354 767 q 451 764 421 767 q 512 751 481 761 q 573 724 543 742 q 626 675 603 705 q 663 602 649 646 q 677 499 677 559 l 677 0 l 560 0 l 560 103 l 554 103 q 528 63 545 84 q 483 24 510 42 q 417 -6 455 6 q 329 -18 379 -18 m 404 842 q 334 855 367 842 q 277 891 301 868 q 239 944 253 913 q 225 1010 225 975 q 239 1077 225 1046 q 277 1132 253 1109 q 334 1170 301 1156 q 404 1184 367 1184 q 475 1170 442 1184 q 531 1132 507 1156 q 568 1077 555 1109 q 582 1010 582 1046 q 568 944 582 975 q 531 891 555 913 q 475 855 507 868 q 404 842 442 842 m 347 87 q 439 103 399 87 q 506 145 478 119 q 546 205 533 171 q 560 274 560 239 l 560 381 q 542 370 555 375 q 510 360 529 364 q 471 352 492 356 q 429 346 449 349 q 390 341 408 343 q 359 337 371 339 q 294 325 325 333 q 239 302 263 317 q 201 265 216 288 q 187 209 187 243 q 199 156 187 179 q 233 118 211 133 q 283 94 254 102 q 347 87 313 87 m 404 917 q 443 925 425 917 q 473 946 460 933 q 492 976 485 959 q 499 1010 499 992 q 492 1046 499 1029 q 473 1077 485 1063 q 443 1099 460 1090 q 404 1107 425 1107 q 366 1099 384 1107 q 337 1077 349 1090 q 317 1046 324 1063 q 310 1010 310 1029 q 317 976 310 992 q 337 946 324 959 q 366 925 349 933 q 404 917 384 917 z "},"æ":{"ha":1284,"x_min":71,"x_max":1213,"o":"m 900 -16 q 804 -5 848 -16 q 722 26 759 6 q 657 74 686 46 q 612 138 629 103 l 608 138 q 570 78 597 107 q 507 28 544 50 q 425 -5 470 7 q 329 -18 379 -18 q 228 -2 276 -18 q 146 43 181 13 q 91 116 111 73 q 71 215 71 160 q 83 291 71 258 q 116 346 95 323 q 165 385 137 369 q 226 411 194 400 q 294 427 259 421 q 365 438 330 434 q 454 449 417 445 q 514 458 491 452 q 549 475 538 465 q 560 507 560 486 l 560 511 q 520 624 560 583 q 400 665 480 665 q 327 655 359 665 q 270 628 294 645 q 229 592 246 612 q 203 550 213 571 l 93 590 q 149 676 115 642 q 224 730 183 710 q 309 759 265 751 q 397 767 354 767 q 458 763 424 767 q 526 746 492 759 q 592 710 560 733 q 644 647 623 686 q 745 736 685 704 q 888 767 806 767 q 967 759 927 767 q 1042 732 1006 751 q 1110 684 1079 713 q 1164 612 1141 654 q 1200 515 1187 570 q 1213 389 1213 459 l 1213 339 l 663 339 q 684 232 665 279 q 733 154 702 185 q 806 105 764 122 q 900 89 849 89 q 1017 118 968 89 q 1089 207 1067 148 l 1201 176 q 1161 97 1188 133 q 1095 37 1134 62 q 1007 -2 1056 12 q 900 -16 957 -16 m 347 87 q 439 103 399 87 q 506 145 478 119 q 546 205 533 171 q 560 274 560 239 l 560 381 q 542 370 555 375 q 510 360 529 364 q 471 352 492 356 q 429 346 449 349 q 390 341 408 343 q 359 337 371 339 q 294 325 325 333 q 239 302 263 317 q 201 265 216 288 q 187 209 187 243 q 199 156 187 179 q 233 118 211 133 q 283 94 254 102 q 347 87 313 87 m 1095 440 q 1080 529 1095 488 q 1039 600 1066 570 q 973 646 1012 629 q 888 663 935 663 q 798 645 838 663 q 729 596 758 626 q 683 524 700 565 q 663 440 666 484 l 1095 440 z "},"ç":{"ha":775,"x_min":71,"x_max":712,"o":"m 448 -36 q 486 -46 467 -38 q 518 -68 504 -54 q 542 -103 533 -82 q 550 -152 550 -123 q 537 -210 550 -184 q 498 -256 524 -237 q 433 -285 472 -275 q 343 -296 395 -296 l 339 -219 q 382 -216 363 -219 q 416 -204 401 -212 q 438 -185 430 -197 q 446 -156 446 -173 q 440 -128 446 -139 q 421 -109 434 -116 q 388 -99 408 -103 q 339 -93 367 -95 l 356 -11 q 236 32 289 -1 q 147 115 183 64 q 91 232 110 166 q 71 375 71 298 q 95 534 71 462 q 165 658 120 606 q 273 739 210 710 q 412 767 335 767 q 524 750 472 767 q 615 702 576 733 q 679 628 654 671 q 712 531 705 584 l 596 531 q 575 581 589 557 q 537 623 560 604 q 483 652 514 641 q 414 663 453 663 q 322 643 363 663 q 250 585 280 622 q 204 496 220 548 q 187 379 187 443 q 203 259 187 313 q 249 168 219 206 q 321 109 279 130 q 414 89 363 89 q 478 98 448 89 q 531 124 508 107 q 571 165 554 141 q 596 221 588 190 l 712 221 q 685 134 705 175 q 631 63 664 94 q 552 12 597 32 q 452 -14 507 -8 l 448 -36 z "},"è":{"ha":809,"x_min":71,"x_max":738,"o":"m 424 -16 q 277 12 342 -16 q 165 91 211 40 q 95 214 120 143 q 71 373 71 286 q 95 533 71 460 q 165 657 120 605 q 273 739 210 710 q 412 767 335 767 q 491 759 452 767 q 567 732 531 751 q 634 684 603 713 q 689 612 665 654 q 725 515 712 570 q 738 389 738 459 l 738 339 l 188 339 q 208 232 190 279 q 257 153 226 185 q 330 105 288 121 q 424 89 373 89 q 542 118 493 89 q 614 207 591 148 l 726 176 q 686 97 713 133 q 619 37 658 62 q 531 -2 581 12 q 424 -16 482 -16 m 619 440 q 605 529 619 488 q 563 600 590 570 q 498 646 536 629 q 412 663 460 663 q 322 645 363 663 q 253 596 282 626 q 208 525 224 565 q 188 440 191 484 l 619 440 m 203 1089 l 339 1089 l 460 860 l 357 860 l 203 1089 z "},"é":{"ha":809,"x_min":71,"x_max":738,"o":"m 424 -16 q 277 12 342 -16 q 165 91 211 40 q 95 214 120 143 q 71 373 71 286 q 95 533 71 460 q 165 657 120 605 q 273 739 210 710 q 412 767 335 767 q 491 759 452 767 q 567 732 531 751 q 634 684 603 713 q 689 612 665 654 q 725 515 712 570 q 738 389 738 459 l 738 339 l 188 339 q 208 232 190 279 q 257 153 226 185 q 330 105 288 121 q 424 89 373 89 q 542 118 493 89 q 614 207 591 148 l 726 176 q 686 97 713 133 q 619 37 658 62 q 531 -2 581 12 q 424 -16 482 -16 m 619 440 q 605 529 619 488 q 563 600 590 570 q 498 646 536 629 q 412 663 460 663 q 322 645 363 663 q 253 596 282 626 q 208 525 224 565 q 188 440 191 484 l 619 440 m 473 1089 l 610 1089 l 456 860 l 353 860 l 473 1089 z "},"ê":{"ha":809,"x_min":71,"x_max":738,"o":"m 424 -16 q 277 12 342 -16 q 165 91 211 40 q 95 214 120 143 q 71 373 71 286 q 95 533 71 460 q 165 657 120 605 q 273 739 210 710 q 412 767 335 767 q 491 759 452 767 q 567 732 531 751 q 634 684 603 713 q 689 612 665 654 q 725 515 712 570 q 738 389 738 459 l 738 339 l 188 339 q 208 232 190 279 q 257 153 226 185 q 330 105 288 121 q 424 89 373 89 q 542 118 493 89 q 614 207 591 148 l 726 176 q 686 97 713 133 q 619 37 658 62 q 531 -2 581 12 q 424 -16 482 -16 m 619 440 q 605 529 619 488 q 563 600 590 570 q 498 646 536 629 q 412 663 460 663 q 322 645 363 663 q 253 596 282 626 q 208 525 224 565 q 188 440 191 484 l 619 440 m 406 986 l 304 848 l 193 848 l 193 856 l 353 1061 l 460 1061 l 619 856 l 619 848 l 509 848 l 406 986 z "},"ë":{"ha":809,"x_min":71,"x_max":738,"o":"m 424 -16 q 277 12 342 -16 q 165 91 211 40 q 95 214 120 143 q 71 373 71 286 q 95 533 71 460 q 165 657 120 605 q 273 739 210 710 q 412 767 335 767 q 491 759 452 767 q 567 732 531 751 q 634 684 603 713 q 689 612 665 654 q 725 515 712 570 q 738 389 738 459 l 738 339 l 188 339 q 208 232 190 279 q 257 153 226 185 q 330 105 288 121 q 424 89 373 89 q 542 118 493 89 q 614 207 591 148 l 726 176 q 686 97 713 133 q 619 37 658 62 q 531 -2 581 12 q 424 -16 482 -16 m 619 440 q 605 529 619 488 q 563 600 590 570 q 498 646 536 629 q 412 663 460 663 q 322 645 363 663 q 253 596 282 626 q 208 525 224 565 q 188 440 191 484 l 619 440 m 264 884 q 235 890 249 884 q 209 908 220 897 q 192 933 198 919 q 185 963 185 947 q 192 994 185 980 q 209 1019 198 1009 q 235 1036 220 1030 q 264 1042 249 1042 q 296 1036 282 1042 q 321 1019 310 1030 q 337 994 331 1009 q 343 963 343 980 q 337 933 343 947 q 321 908 331 919 q 296 890 310 897 q 264 884 282 884 m 548 884 q 519 890 533 884 q 493 908 505 897 q 476 933 482 919 q 470 963 470 947 q 476 994 470 980 q 493 1019 482 1009 q 519 1036 505 1030 q 548 1042 533 1042 q 580 1036 566 1042 q 605 1019 594 1030 q 621 994 616 1009 q 627 963 627 980 q 621 933 627 947 q 605 908 616 919 q 580 890 594 897 q 548 884 566 884 z "},"ì":{"ha":329,"x_min":-37,"x_max":223,"o":"m 107 758 l 223 758 l 223 0 l 107 0 l 107 758 m -37 1089 l 99 1089 l 219 860 l 116 860 l -37 1089 z "},"í":{"ha":329,"x_min":107,"x_max":369,"o":"m 107 758 l 223 758 l 223 0 l 107 0 l 107 758 m 233 1089 l 369 1089 l 215 860 l 112 860 l 233 1089 z "},"î":{"ha":329,"x_min":-47,"x_max":379,"o":"m 107 758 l 223 758 l 223 0 l 107 0 l 107 758 m 166 986 l 63 848 l -47 848 l -47 856 l 112 1061 l 219 1061 l 379 856 l 379 848 l 268 848 l 166 986 z "},"ï":{"ha":329,"x_min":-55,"x_max":387,"o":"m 107 758 l 223 758 l 223 0 l 107 0 l 107 758 m 24 884 q -6 890 8 884 q -31 908 -20 897 q -49 933 -42 919 q -55 963 -55 947 q -49 994 -55 980 q -31 1019 -42 1009 q -6 1036 -20 1030 q 24 1042 8 1042 q 55 1036 41 1042 q 80 1019 70 1030 q 97 994 91 1009 q 103 963 103 980 q 97 933 103 947 q 80 908 91 919 q 55 890 70 897 q 24 884 41 884 m 308 884 q 278 890 292 884 q 253 908 264 897 q 235 933 242 919 q 229 963 229 947 q 235 994 229 980 q 253 1019 242 1009 q 278 1036 264 1030 q 308 1042 292 1042 q 339 1036 325 1042 q 364 1019 354 1030 q 381 994 375 1009 q 387 963 387 980 q 381 933 387 947 q 364 908 375 919 q 339 890 354 897 q 308 884 325 884 z "},"ð":{"ha":805,"x_min":71,"x_max":734,"o":"m 516 894 q 603 788 563 845 q 672 665 643 730 q 717 526 701 600 q 734 371 734 452 q 710 207 734 279 q 643 86 687 136 q 538 10 599 36 q 402 -16 477 -16 q 265 11 327 -16 q 161 87 204 38 q 94 201 117 135 q 71 347 71 268 q 95 495 71 428 q 159 609 118 561 q 255 684 200 657 q 373 710 310 710 q 451 699 416 710 q 513 669 485 687 q 560 627 540 650 q 592 582 580 604 l 602 582 q 576 644 591 612 q 540 711 561 677 q 490 781 518 746 q 426 850 462 816 l 251 765 l 217 838 l 359 907 q 296 950 329 929 q 225 990 263 971 l 276 1073 q 366 1020 321 1050 q 454 953 411 990 l 621 1034 l 655 961 l 516 894 m 402 89 q 498 108 457 89 q 566 162 539 128 q 607 241 593 195 q 621 339 621 287 q 616 404 621 371 q 599 467 611 437 q 570 525 588 498 q 528 571 553 551 q 473 602 504 591 q 402 614 441 614 q 308 592 349 614 q 241 534 268 570 q 201 449 214 497 q 187 347 187 400 q 200 250 187 297 q 238 168 212 204 q 305 110 264 132 q 402 89 346 89 z "},"ñ":{"ha":813,"x_min":107,"x_max":706,"o":"m 223 0 l 107 0 l 107 758 l 219 758 l 219 639 l 229 639 q 262 692 242 668 q 310 732 283 715 q 372 758 337 749 q 450 767 407 767 q 555 750 508 767 q 636 697 602 732 q 688 608 669 661 q 706 481 706 554 l 706 0 l 590 0 l 590 473 q 578 553 590 518 q 544 613 566 588 q 489 650 521 637 q 416 663 457 663 q 339 649 374 663 q 278 609 304 635 q 237 544 252 582 q 223 456 223 506 l 223 0 m 164 852 q 175 922 164 890 q 207 976 187 953 q 254 1011 227 999 q 314 1024 282 1024 q 363 1014 342 1024 q 405 992 385 1004 q 446 971 425 981 q 493 961 467 961 q 520 967 508 961 q 541 983 532 973 q 555 1007 550 993 q 560 1036 560 1020 l 649 1028 q 637 958 649 989 q 606 906 626 927 q 559 872 586 884 q 499 860 531 860 q 459 865 476 860 q 429 876 442 870 q 403 892 415 883 q 379 907 392 900 q 353 919 367 914 q 320 923 338 923 q 294 917 306 923 q 273 901 282 911 q 259 878 264 891 q 254 848 254 864 l 164 852 z "},"ò":{"ha":829,"x_min":71,"x_max":758,"o":"m 414 -16 q 274 12 337 -16 q 166 91 211 40 q 96 215 121 143 q 71 375 71 287 q 96 536 71 464 q 166 660 121 609 q 274 739 211 711 q 414 767 337 767 q 555 739 491 767 q 663 660 618 711 q 733 536 708 609 q 758 375 758 464 q 733 215 758 287 q 663 91 708 143 q 555 12 618 40 q 414 -16 491 -16 m 414 89 q 516 112 473 89 q 586 175 558 136 q 628 266 614 214 q 641 375 641 318 q 628 484 641 432 q 586 576 614 536 q 516 639 558 616 q 414 663 473 663 q 313 639 356 663 q 242 576 270 616 q 201 484 215 536 q 187 375 187 432 q 201 266 187 318 q 242 175 215 214 q 313 112 270 136 q 414 89 356 89 m 211 1089 l 347 1089 l 468 860 l 365 860 l 211 1089 z "},"ó":{"ha":829,"x_min":71,"x_max":758,"o":"m 414 -16 q 274 12 337 -16 q 166 91 211 40 q 96 215 121 143 q 71 375 71 287 q 96 536 71 464 q 166 660 121 609 q 274 739 211 711 q 414 767 337 767 q 555 739 491 767 q 663 660 618 711 q 733 536 708 609 q 758 375 758 464 q 733 215 758 287 q 663 91 708 143 q 555 12 618 40 q 414 -16 491 -16 m 414 89 q 516 112 473 89 q 586 175 558 136 q 628 266 614 214 q 641 375 641 318 q 628 484 641 432 q 586 576 614 536 q 516 639 558 616 q 414 663 473 663 q 313 639 356 663 q 242 576 270 616 q 201 484 215 536 q 187 375 187 432 q 201 266 187 318 q 242 175 215 214 q 313 112 270 136 q 414 89 356 89 m 481 1089 l 618 1089 l 464 860 l 361 860 l 481 1089 z "},"ô":{"ha":829,"x_min":71,"x_max":758,"o":"m 414 -16 q 274 12 337 -16 q 166 91 211 40 q 96 215 121 143 q 71 375 71 287 q 96 536 71 464 q 166 660 121 609 q 274 739 211 711 q 414 767 337 767 q 555 739 491 767 q 663 660 618 711 q 733 536 708 609 q 758 375 758 464 q 733 215 758 287 q 663 91 708 143 q 555 12 618 40 q 414 -16 491 -16 m 414 89 q 516 112 473 89 q 586 175 558 136 q 628 266 614 214 q 641 375 641 318 q 628 484 641 432 q 586 576 614 536 q 516 639 558 616 q 414 663 473 663 q 313 639 356 663 q 242 576 270 616 q 201 484 215 536 q 187 375 187 432 q 201 266 187 318 q 242 175 215 214 q 313 112 270 136 q 414 89 356 89 m 414 986 l 312 848 l 201 848 l 201 856 l 361 1061 l 468 1061 l 627 856 l 627 848 l 517 848 l 414 986 z "},"õ":{"ha":829,"x_min":71,"x_max":758,"o":"m 414 -16 q 274 12 337 -16 q 166 91 211 40 q 96 215 121 143 q 71 375 71 287 q 96 536 71 464 q 166 660 121 609 q 274 739 211 711 q 414 767 337 767 q 555 739 491 767 q 663 660 618 711 q 733 536 708 609 q 758 375 758 464 q 733 215 758 287 q 663 91 708 143 q 555 12 618 40 q 414 -16 491 -16 m 414 89 q 516 112 473 89 q 586 175 558 136 q 628 266 614 214 q 641 375 641 318 q 628 484 641 432 q 586 576 614 536 q 516 639 558 616 q 414 663 473 663 q 313 639 356 663 q 242 576 270 616 q 201 484 215 536 q 187 375 187 432 q 201 266 187 318 q 242 175 215 214 q 313 112 270 136 q 414 89 356 89 m 172 852 q 183 922 172 890 q 215 976 195 953 q 262 1011 235 999 q 322 1024 290 1024 q 371 1014 350 1024 q 413 992 393 1004 q 454 971 433 981 q 501 961 474 961 q 527 967 515 961 q 549 983 540 973 q 563 1007 558 993 q 568 1036 568 1020 l 657 1028 q 645 958 657 989 q 614 906 634 927 q 566 872 594 884 q 507 860 539 860 q 467 865 484 860 q 437 876 450 870 q 411 892 423 883 q 387 907 400 900 q 361 919 375 914 q 327 923 346 923 q 302 917 314 923 q 281 901 290 911 q 267 878 272 891 q 262 848 262 864 l 172 852 z "},"ö":{"ha":829,"x_min":71,"x_max":758,"o":"m 414 -16 q 274 12 337 -16 q 166 91 211 40 q 96 215 121 143 q 71 375 71 287 q 96 536 71 464 q 166 660 121 609 q 274 739 211 711 q 414 767 337 767 q 555 739 491 767 q 663 660 618 711 q 733 536 708 609 q 758 375 758 464 q 733 215 758 287 q 663 91 708 143 q 555 12 618 40 q 414 -16 491 -16 m 414 89 q 516 112 473 89 q 586 175 558 136 q 628 266 614 214 q 641 375 641 318 q 628 484 641 432 q 586 576 614 536 q 516 639 558 616 q 414 663 473 663 q 313 639 356 663 q 242 576 270 616 q 201 484 215 536 q 187 375 187 432 q 201 266 187 318 q 242 175 215 214 q 313 112 270 136 q 414 89 356 89 m 272 884 q 243 890 257 884 q 217 908 228 897 q 200 933 206 919 q 193 963 193 947 q 200 994 193 980 q 217 1019 206 1009 q 243 1036 228 1030 q 272 1042 257 1042 q 304 1036 290 1042 q 329 1019 318 1030 q 345 994 339 1009 q 351 963 351 980 q 345 933 351 947 q 329 908 339 919 q 304 890 318 897 q 272 884 290 884 m 556 884 q 527 890 541 884 q 501 908 512 897 q 484 933 490 919 q 477 963 477 947 q 484 994 477 980 q 501 1019 490 1009 q 527 1036 512 1030 q 556 1042 541 1042 q 588 1036 574 1042 q 613 1019 602 1030 q 629 994 623 1009 q 635 963 635 980 q 629 933 635 947 q 613 908 623 919 q 588 890 602 897 q 556 884 574 884 z "},"÷":{"ha":915,"x_min":142,"x_max":773,"o":"m 773 339 l 142 339 l 142 450 l 773 450 l 773 339 m 458 562 q 423 569 439 562 q 395 588 407 576 q 376 617 383 600 q 369 651 369 633 q 376 685 369 669 q 395 712 383 700 q 423 731 407 724 q 458 738 439 738 q 491 731 475 738 q 519 712 507 724 q 538 685 531 700 q 545 651 545 669 q 538 617 545 633 q 519 588 531 600 q 491 569 507 576 q 458 562 475 562 m 458 51 q 423 58 439 51 q 395 77 407 65 q 376 106 383 89 q 369 140 369 122 q 376 174 369 158 q 395 201 383 189 q 423 220 407 213 q 458 227 439 227 q 491 220 475 227 q 519 201 507 213 q 538 174 531 189 q 545 140 545 158 q 538 106 545 122 q 519 77 531 89 q 491 58 507 65 q 458 51 475 51 z "},"ø":{"ha":829,"x_min":71,"x_max":758,"o":"m 112 10 l 167 90 q 96 214 121 142 q 71 375 71 286 q 96 536 71 464 q 166 660 121 609 q 274 739 211 711 q 414 767 337 767 q 509 755 465 767 q 592 720 554 743 l 641 793 l 716 742 l 662 661 q 733 537 708 609 q 758 375 758 465 q 733 215 758 287 q 663 91 708 143 q 555 12 618 40 q 414 -16 491 -16 q 319 -4 363 -16 q 237 32 275 8 l 187 -41 l 112 10 m 414 89 q 516 112 473 89 q 586 175 558 136 q 628 266 614 214 q 641 375 641 318 q 630 475 641 427 q 595 562 618 524 l 297 121 q 350 97 321 106 q 414 89 379 89 m 531 630 q 478 654 508 646 q 414 663 449 663 q 313 639 356 663 q 242 576 270 616 q 201 484 215 536 q 187 375 187 432 q 199 275 187 323 q 233 189 210 227 l 531 630 z "},"ù":{"ha":807,"x_min":107,"x_max":700,"o":"m 584 758 l 700 758 l 700 0 l 584 0 l 584 128 l 576 128 q 542 74 563 100 q 493 30 521 49 q 430 1 465 12 q 351 -10 394 -10 q 253 8 298 -10 q 176 61 208 25 q 125 150 143 96 q 107 276 107 204 l 107 758 l 223 758 l 223 284 q 235 209 223 243 q 270 152 248 176 q 322 115 291 128 q 389 103 353 103 q 456 115 421 103 q 519 153 490 127 q 566 218 547 179 q 584 310 584 256 l 584 758 m 201 1089 l 337 1089 l 458 860 l 355 860 l 201 1089 z "},"ú":{"ha":807,"x_min":107,"x_max":700,"o":"m 584 758 l 700 758 l 700 0 l 584 0 l 584 128 l 576 128 q 542 74 563 100 q 493 30 521 49 q 430 1 465 12 q 351 -10 394 -10 q 253 8 298 -10 q 176 61 208 25 q 125 150 143 96 q 107 276 107 204 l 107 758 l 223 758 l 223 284 q 235 209 223 243 q 270 152 248 176 q 322 115 291 128 q 389 103 353 103 q 456 115 421 103 q 519 153 490 127 q 566 218 547 179 q 584 310 584 256 l 584 758 m 472 1089 l 608 1089 l 454 860 l 351 860 l 472 1089 z "},"û":{"ha":807,"x_min":107,"x_max":700,"o":"m 584 758 l 700 758 l 700 0 l 584 0 l 584 128 l 576 128 q 542 74 563 100 q 493 30 521 49 q 430 1 465 12 q 351 -10 394 -10 q 253 8 298 -10 q 176 61 208 25 q 125 150 143 96 q 107 276 107 204 l 107 758 l 223 758 l 223 284 q 235 209 223 243 q 270 152 248 176 q 322 115 291 128 q 389 103 353 103 q 456 115 421 103 q 519 153 490 127 q 566 218 547 179 q 584 310 584 256 l 584 758 m 404 986 l 302 848 l 191 848 l 191 856 l 351 1061 l 458 1061 l 618 856 l 618 848 l 507 848 l 404 986 z "},"ü":{"ha":807,"x_min":107,"x_max":700,"o":"m 584 758 l 700 758 l 700 0 l 584 0 l 584 128 l 576 128 q 542 74 563 100 q 493 30 521 49 q 430 1 465 12 q 351 -10 394 -10 q 253 8 298 -10 q 176 61 208 25 q 125 150 143 96 q 107 276 107 204 l 107 758 l 223 758 l 223 284 q 235 209 223 243 q 270 152 248 176 q 322 115 291 128 q 389 103 353 103 q 456 115 421 103 q 519 153 490 127 q 566 218 547 179 q 584 310 584 256 l 584 758 m 262 884 q 233 890 247 884 q 207 908 218 897 q 190 933 196 919 q 183 963 183 947 q 190 994 183 980 q 207 1019 196 1009 q 233 1036 218 1030 q 262 1042 247 1042 q 294 1036 280 1042 q 319 1019 308 1030 q 335 994 329 1009 q 341 963 341 980 q 335 933 341 947 q 319 908 329 919 q 294 890 308 897 q 262 884 280 884 m 546 884 q 517 890 531 884 q 491 908 503 897 q 474 933 480 919 q 468 963 468 947 q 474 994 468 980 q 491 1019 480 1009 q 517 1036 503 1030 q 546 1042 531 1042 q 578 1036 564 1042 q 603 1019 592 1030 q 619 994 614 1009 q 625 963 625 980 q 619 933 625 947 q 603 908 614 919 q 578 890 592 897 q 546 884 564 884 z "},"ý":{"ha":773,"x_min":47,"x_max":726,"o":"m 182 -284 q 129 -279 152 -284 q 97 -270 106 -275 l 126 -168 q 184 -177 158 -176 q 232 -167 210 -178 q 272 -131 254 -156 q 306 -63 290 -107 l 327 -4 l 47 758 l 174 758 l 383 154 l 391 154 l 600 758 l 726 758 l 404 -110 q 316 -242 371 -199 q 182 -284 261 -284 m 454 1089 l 590 1089 l 436 860 l 333 860 l 454 1089 z "},"þ":{"ha":846,"x_min":107,"x_max":775,"o":"m 223 1010 l 223 637 l 233 637 q 248 661 239 647 q 268 689 256 674 q 296 717 280 703 q 335 743 313 731 q 386 761 357 754 q 452 767 415 767 q 583 740 524 767 q 685 662 643 713 q 752 539 728 611 q 775 377 775 467 q 752 214 775 287 q 686 91 728 142 q 584 12 643 39 q 454 -16 525 -16 q 388 -9 417 -16 q 337 9 360 -2 q 298 35 315 21 q 269 64 282 49 q 248 92 256 78 q 233 116 239 106 l 223 116 l 223 -284 l 107 -284 l 107 1010 l 223 1010 m 659 379 q 645 491 659 439 q 604 581 631 543 q 535 641 577 619 q 438 663 494 663 q 344 642 385 663 q 276 584 304 622 q 235 495 249 547 q 221 379 221 442 q 235 261 221 315 q 277 169 250 208 q 345 110 304 131 q 438 89 386 89 q 534 111 493 89 q 603 173 576 134 q 645 265 631 213 q 659 379 659 318 z "},"ÿ":{"ha":773,"x_min":47,"x_max":726,"o":"m 182 -284 q 129 -279 152 -284 q 97 -270 106 -275 l 126 -168 q 184 -177 158 -176 q 232 -167 210 -178 q 272 -131 254 -156 q 306 -63 290 -107 l 327 -4 l 47 758 l 174 758 l 383 154 l 391 154 l 600 758 l 726 758 l 404 -110 q 316 -242 371 -199 q 182 -284 261 -284 m 245 884 q 215 890 229 884 q 190 908 201 897 q 172 933 179 919 q 166 963 166 947 q 172 994 166 980 q 190 1019 179 1009 q 215 1036 201 1030 q 245 1042 229 1042 q 276 1036 262 1042 q 301 1019 291 1030 q 318 994 312 1009 q 324 963 324 980 q 318 933 324 947 q 301 908 312 919 q 276 890 291 897 q 245 884 262 884 m 529 884 q 499 890 513 884 q 474 908 485 897 q 456 933 463 919 q 450 963 450 947 q 456 994 450 980 q 474 1019 463 1009 q 499 1036 485 1030 q 529 1042 513 1042 q 560 1036 546 1042 q 585 1019 575 1030 q 602 994 596 1009 q 608 963 608 980 q 602 933 608 947 q 585 908 596 919 q 560 890 575 897 q 529 884 546 884 z "},"Ā":{"ha":939,"x_min":36,"x_max":904,"o":"m 36 0 l 406 1010 l 533 1010 l 904 0 l 775 0 l 674 286 l 265 286 l 164 0 l 36 0 m 635 395 l 473 850 l 466 850 l 304 395 l 635 395 m 700 1164 l 239 1164 l 239 1263 l 700 1263 l 700 1164 z "},"ā":{"ha":783,"x_min":71,"x_max":677,"o":"m 329 -18 q 228 -2 276 -18 q 146 43 181 13 q 91 116 111 73 q 71 215 71 160 q 83 291 71 258 q 116 346 95 323 q 165 385 137 369 q 226 411 194 400 q 294 427 259 421 q 365 438 330 434 q 454 449 417 445 q 514 458 491 452 q 549 475 538 464 q 560 507 560 486 l 560 511 q 521 624 560 584 q 400 665 481 665 q 327 655 359 665 q 270 628 294 645 q 229 592 246 612 q 203 550 213 571 l 93 590 q 149 676 115 642 q 224 730 183 710 q 309 759 265 751 q 397 767 354 767 q 451 764 421 767 q 512 751 481 761 q 573 724 543 742 q 626 675 603 705 q 663 602 649 646 q 677 499 677 559 l 677 0 l 560 0 l 560 103 l 554 103 q 528 63 545 84 q 483 24 510 42 q 417 -6 455 6 q 329 -18 379 -18 m 347 87 q 439 103 399 87 q 506 145 478 119 q 546 205 533 171 q 560 274 560 239 l 560 381 q 542 370 555 375 q 510 360 529 364 q 471 352 492 356 q 429 346 449 349 q 390 341 408 343 q 359 337 371 339 q 294 325 325 333 q 239 302 263 317 q 201 265 216 288 q 187 209 187 243 q 199 156 187 179 q 233 118 211 133 q 283 94 254 102 q 347 87 313 87 m 635 911 l 174 911 l 174 1010 l 635 1010 l 635 911 z "},"Ă":{"ha":939,"x_min":36,"x_max":904,"o":"m 36 0 l 406 1010 l 533 1010 l 904 0 l 775 0 l 674 286 l 265 286 l 164 0 l 36 0 m 635 395 l 473 850 l 466 850 l 304 395 l 635 395 m 675 1263 q 660 1189 675 1223 q 619 1132 646 1156 q 555 1094 593 1108 q 470 1081 517 1081 q 385 1094 423 1081 q 321 1132 348 1108 q 281 1189 295 1156 q 266 1263 266 1223 l 375 1263 q 380 1226 375 1243 q 396 1195 385 1208 q 426 1174 407 1182 q 470 1166 444 1166 q 514 1174 496 1166 q 544 1195 532 1182 q 561 1226 555 1208 q 566 1263 566 1243 l 675 1263 z "},"ă":{"ha":783,"x_min":71,"x_max":677,"o":"m 329 -18 q 228 -2 276 -18 q 146 43 181 13 q 91 116 111 73 q 71 215 71 160 q 83 291 71 258 q 116 346 95 323 q 165 385 137 369 q 226 411 194 400 q 294 427 259 421 q 365 438 330 434 q 454 449 417 445 q 514 458 491 452 q 549 475 538 464 q 560 507 560 486 l 560 511 q 521 624 560 584 q 400 665 481 665 q 327 655 359 665 q 270 628 294 645 q 229 592 246 612 q 203 550 213 571 l 93 590 q 149 676 115 642 q 224 730 183 710 q 309 759 265 751 q 397 767 354 767 q 451 764 421 767 q 512 751 481 761 q 573 724 543 742 q 626 675 603 705 q 663 602 649 646 q 677 499 677 559 l 677 0 l 560 0 l 560 103 l 554 103 q 528 63 545 84 q 483 24 510 42 q 417 -6 455 6 q 329 -18 379 -18 m 347 87 q 439 103 399 87 q 506 145 478 119 q 546 205 533 171 q 560 274 560 239 l 560 381 q 542 370 555 375 q 510 360 529 364 q 471 352 492 356 q 429 346 449 349 q 390 341 408 343 q 359 337 371 339 q 294 325 325 333 q 239 302 263 317 q 201 265 216 288 q 187 209 187 243 q 199 156 187 179 q 233 118 211 133 q 283 94 254 102 q 347 87 313 87 m 610 1010 q 595 937 610 970 q 554 879 581 904 q 490 842 528 855 q 404 829 452 829 q 320 842 358 829 q 256 879 283 855 q 216 937 230 904 q 201 1010 201 970 l 310 1010 q 315 973 310 991 q 331 943 320 956 q 361 921 342 929 q 404 913 379 913 q 449 921 431 913 q 479 943 467 929 q 496 973 490 956 q 501 1010 501 991 l 610 1010 z "},"Ą":{"ha":939,"x_min":36,"x_max":915,"o":"m 36 0 l 406 1010 l 533 1010 l 904 0 q 861 -34 881 -16 q 824 -69 840 -51 q 799 -108 808 -88 q 789 -150 789 -128 q 800 -185 789 -172 q 840 -197 811 -197 q 880 -191 863 -197 q 908 -180 897 -185 l 915 -266 q 873 -286 899 -277 q 811 -296 846 -296 q 755 -288 781 -296 q 710 -263 729 -279 q 681 -222 692 -246 q 671 -166 671 -198 q 695 -81 671 -123 q 775 0 720 -38 l 674 286 l 265 286 l 164 0 l 36 0 m 635 395 l 473 850 l 466 850 l 304 395 l 635 395 z "},"ą":{"ha":783,"x_min":71,"x_max":689,"o":"m 329 -18 q 228 -2 276 -18 q 146 43 181 13 q 91 116 111 73 q 71 215 71 160 q 83 291 71 258 q 116 346 95 323 q 165 385 137 369 q 226 411 194 400 q 294 427 259 421 q 365 438 330 434 q 454 449 417 445 q 514 458 491 452 q 549 475 538 464 q 560 507 560 486 l 560 511 q 521 624 560 584 q 400 665 481 665 q 327 655 359 665 q 270 628 294 645 q 229 592 246 612 q 203 550 213 571 l 93 590 q 149 676 115 642 q 224 730 183 710 q 309 759 265 751 q 397 767 354 767 q 451 764 421 767 q 512 751 481 761 q 573 724 543 742 q 626 675 603 705 q 663 602 649 646 q 677 499 677 559 l 677 0 q 634 -34 654 -16 q 597 -69 613 -51 q 572 -108 581 -88 q 562 -150 562 -128 q 573 -185 562 -172 q 614 -197 584 -197 q 653 -191 636 -197 q 681 -180 670 -185 l 689 -266 q 646 -286 672 -277 q 584 -296 619 -296 q 528 -288 554 -296 q 484 -263 502 -279 q 454 -222 465 -246 q 444 -166 444 -198 q 450 -121 444 -144 q 471 -76 457 -98 q 507 -33 485 -54 q 560 8 529 -12 l 560 103 l 554 103 q 528 63 545 84 q 483 24 510 42 q 417 -6 455 6 q 329 -18 379 -18 m 347 87 q 439 103 399 87 q 506 145 478 119 q 546 205 533 171 q 560 274 560 239 l 560 381 q 542 370 555 375 q 510 360 529 364 q 471 352 492 356 q 429 346 449 349 q 390 341 408 343 q 359 337 371 339 q 294 325 325 333 q 239 302 263 317 q 201 265 216 288 q 187 209 187 243 q 199 156 187 179 q 233 118 211 133 q 283 94 254 102 q 347 87 313 87 z "},"Ć":{"ha":1010,"x_min":83,"x_max":935,"o":"m 813 694 q 775 787 802 747 q 710 854 748 827 q 626 896 672 882 q 529 909 579 909 q 400 883 460 909 q 296 806 340 857 q 227 679 252 755 q 201 505 201 604 q 227 331 201 407 q 296 204 252 255 q 400 127 340 153 q 529 101 460 101 q 626 114 579 101 q 710 156 672 128 q 775 223 748 183 q 813 316 802 263 l 935 316 q 885 177 921 238 q 794 73 848 115 q 673 9 740 31 q 529 -14 605 -14 q 406 2 464 -14 q 298 50 348 19 q 209 126 249 81 q 141 228 169 171 q 98 356 113 286 q 83 505 83 425 q 98 654 83 585 q 141 782 113 724 q 209 884 169 839 q 298 960 249 929 q 406 1008 348 991 q 529 1024 464 1024 q 673 1001 605 1024 q 794 937 740 979 q 885 834 848 895 q 935 694 921 772 l 813 694 m 596 1342 l 732 1342 l 578 1113 l 475 1113 l 596 1342 z "},"ć":{"ha":775,"x_min":71,"x_max":712,"o":"m 414 -16 q 271 13 334 -16 q 163 94 207 42 q 95 218 118 146 q 71 375 71 290 q 95 534 71 462 q 165 658 120 606 q 273 739 210 710 q 412 767 335 767 q 524 750 472 767 q 615 702 576 733 q 679 628 654 671 q 712 531 705 584 l 596 531 q 575 581 589 557 q 537 623 560 604 q 483 652 514 641 q 414 663 453 663 q 322 643 363 663 q 250 585 280 622 q 204 496 220 548 q 187 379 187 443 q 203 259 187 313 q 249 168 219 206 q 321 109 279 130 q 414 89 363 89 q 478 98 448 89 q 531 124 508 107 q 571 165 554 141 q 596 221 588 190 l 712 221 q 681 127 705 171 q 619 53 657 84 q 529 2 581 21 q 414 -16 477 -16 m 477 1089 l 614 1089 l 460 860 l 357 860 l 477 1089 z "},"Ĉ":{"ha":1010,"x_min":83,"x_max":935,"o":"m 813 694 q 775 787 802 747 q 710 854 748 827 q 626 896 672 882 q 529 909 579 909 q 400 883 460 909 q 296 806 340 857 q 227 679 252 755 q 201 505 201 604 q 227 331 201 407 q 296 204 252 255 q 400 127 340 153 q 529 101 460 101 q 626 114 579 101 q 710 156 672 128 q 775 223 748 183 q 813 316 802 263 l 935 316 q 885 177 921 238 q 794 73 848 115 q 673 9 740 31 q 529 -14 605 -14 q 406 2 464 -14 q 298 50 348 19 q 209 126 249 81 q 141 228 169 171 q 98 356 113 286 q 83 505 83 425 q 98 654 83 585 q 141 782 113 724 q 209 884 169 839 q 298 960 249 929 q 406 1008 348 991 q 529 1024 464 1024 q 673 1001 605 1024 q 794 937 740 979 q 885 834 848 895 q 935 694 921 772 l 813 694 m 529 1239 l 426 1101 l 316 1101 l 316 1109 l 475 1314 l 582 1314 l 742 1109 l 742 1101 l 631 1101 l 529 1239 z "},"ĉ":{"ha":775,"x_min":71,"x_max":712,"o":"m 414 -16 q 271 13 334 -16 q 163 94 207 42 q 95 218 118 146 q 71 375 71 290 q 95 534 71 462 q 165 658 120 606 q 273 739 210 710 q 412 767 335 767 q 524 750 472 767 q 615 702 576 733 q 679 628 654 671 q 712 531 705 584 l 596 531 q 575 581 589 557 q 537 623 560 604 q 483 652 514 641 q 414 663 453 663 q 322 643 363 663 q 250 585 280 622 q 204 496 220 548 q 187 379 187 443 q 203 259 187 313 q 249 168 219 206 q 321 109 279 130 q 414 89 363 89 q 478 98 448 89 q 531 124 508 107 q 571 165 554 141 q 596 221 588 190 l 712 221 q 681 127 705 171 q 619 53 657 84 q 529 2 581 21 q 414 -16 477 -16 m 410 986 l 308 848 l 197 848 l 197 856 l 357 1061 l 464 1061 l 623 856 l 623 848 l 513 848 l 410 986 z "},"Ċ":{"ha":1010,"x_min":83,"x_max":935,"o":"m 813 694 q 775 787 802 747 q 710 854 748 827 q 626 896 672 882 q 529 909 579 909 q 400 883 460 909 q 296 806 340 857 q 227 679 252 755 q 201 505 201 604 q 227 331 201 407 q 296 204 252 255 q 400 127 340 153 q 529 101 460 101 q 626 114 579 101 q 710 156 672 128 q 775 223 748 183 q 813 316 802 263 l 935 316 q 885 177 921 238 q 794 73 848 115 q 673 9 740 31 q 529 -14 605 -14 q 406 2 464 -14 q 298 50 348 19 q 209 126 249 81 q 141 228 169 171 q 98 356 113 286 q 83 505 83 425 q 98 654 83 585 q 141 782 113 724 q 209 884 169 839 q 298 960 249 929 q 406 1008 348 991 q 529 1024 464 1024 q 673 1001 605 1024 q 794 937 740 979 q 885 834 848 895 q 935 694 921 772 l 813 694 m 529 1136 q 497 1143 512 1136 q 470 1160 481 1149 q 453 1185 459 1170 q 446 1215 446 1199 q 453 1246 446 1232 q 470 1271 459 1260 q 497 1288 481 1282 q 529 1294 512 1294 q 561 1288 546 1294 q 587 1271 576 1282 q 605 1246 598 1260 q 612 1215 612 1232 q 605 1185 612 1199 q 587 1160 598 1170 q 561 1143 576 1149 q 529 1136 546 1136 z "},"ċ":{"ha":775,"x_min":71,"x_max":712,"o":"m 414 -16 q 271 13 334 -16 q 163 94 207 42 q 95 218 118 146 q 71 375 71 290 q 95 534 71 462 q 165 658 120 606 q 273 739 210 710 q 412 767 335 767 q 524 750 472 767 q 615 702 576 733 q 679 628 654 671 q 712 531 705 584 l 596 531 q 575 581 589 557 q 537 623 560 604 q 483 652 514 641 q 414 663 453 663 q 322 643 363 663 q 250 585 280 622 q 204 496 220 548 q 187 379 187 443 q 203 259 187 313 q 249 168 219 206 q 321 109 279 130 q 414 89 363 89 q 478 98 448 89 q 531 124 508 107 q 571 165 554 141 q 596 221 588 190 l 712 221 q 681 127 705 171 q 619 53 657 84 q 529 2 581 21 q 414 -16 477 -16 m 410 884 q 378 890 394 884 q 352 907 363 896 q 334 932 341 918 q 327 963 327 946 q 334 993 327 979 q 352 1018 341 1008 q 378 1036 363 1029 q 410 1042 394 1042 q 443 1036 428 1042 q 469 1018 458 1029 q 487 993 480 1008 q 493 963 493 979 q 487 932 493 946 q 469 907 480 918 q 443 890 458 896 q 410 884 428 884 z "},"Č":{"ha":1010,"x_min":83,"x_max":935,"o":"m 813 694 q 775 787 802 747 q 710 854 748 827 q 626 896 672 882 q 529 909 579 909 q 400 883 460 909 q 296 806 340 857 q 227 679 252 755 q 201 505 201 604 q 227 331 201 407 q 296 204 252 255 q 400 127 340 153 q 529 101 460 101 q 626 114 579 101 q 710 156 672 128 q 775 223 748 183 q 813 316 802 263 l 935 316 q 885 177 921 238 q 794 73 848 115 q 673 9 740 31 q 529 -14 605 -14 q 406 2 464 -14 q 298 50 348 19 q 209 126 249 81 q 141 228 169 171 q 98 356 113 286 q 83 505 83 425 q 98 654 83 585 q 141 782 113 724 q 209 884 169 839 q 298 960 249 929 q 406 1008 348 991 q 529 1024 464 1024 q 673 1001 605 1024 q 794 937 740 979 q 885 834 848 895 q 935 694 921 772 l 813 694 m 529 1176 l 631 1314 l 742 1314 l 742 1306 l 582 1101 l 475 1101 l 316 1306 l 316 1314 l 426 1314 l 529 1176 z "},"č":{"ha":775,"x_min":71,"x_max":712,"o":"m 414 -16 q 271 13 334 -16 q 163 94 207 42 q 95 218 118 146 q 71 375 71 290 q 95 534 71 462 q 165 658 120 606 q 273 739 210 710 q 412 767 335 767 q 524 750 472 767 q 615 702 576 733 q 679 628 654 671 q 712 531 705 584 l 596 531 q 575 581 589 557 q 537 623 560 604 q 483 652 514 641 q 414 663 453 663 q 322 643 363 663 q 250 585 280 622 q 204 496 220 548 q 187 379 187 443 q 203 259 187 313 q 249 168 219 206 q 321 109 279 130 q 414 89 363 89 q 478 98 448 89 q 531 124 508 107 q 571 165 554 141 q 596 221 588 190 l 712 221 q 681 127 705 171 q 619 53 657 84 q 529 2 581 21 q 414 -16 477 -16 m 410 923 l 513 1061 l 623 1061 l 623 1054 l 464 848 l 357 848 l 197 1054 l 197 1061 l 308 1061 l 410 923 z "},"Ď":{"ha":998,"x_min":122,"x_max":915,"o":"m 122 0 l 122 1010 l 448 1010 q 645 976 558 1010 q 792 876 732 941 q 884 718 852 811 q 915 507 915 625 q 884 295 915 389 q 790 135 852 201 q 639 35 729 70 q 434 0 549 0 l 122 0 m 426 109 q 590 136 520 109 q 706 215 659 164 q 774 341 752 267 q 797 507 797 415 q 775 672 797 599 q 707 796 752 745 q 596 874 662 847 q 440 902 529 902 l 245 902 l 245 109 l 426 109 m 418 1176 l 521 1314 l 631 1314 l 631 1306 l 472 1101 l 365 1101 l 205 1306 l 205 1314 l 316 1314 l 418 1176 z "},"ď":{"ha":940,"x_min":71,"x_max":956,"o":"m 393 -16 q 262 12 322 -16 q 161 91 203 39 q 95 214 118 142 q 71 377 71 287 q 95 539 71 467 q 161 662 118 611 q 263 740 204 713 q 395 767 323 767 q 460 761 432 767 q 511 743 489 754 q 550 717 534 731 q 578 689 566 703 q 599 661 590 674 q 614 637 607 647 l 623 637 l 623 1010 l 740 1010 l 740 0 l 627 0 l 627 116 l 614 116 q 599 92 607 106 q 577 64 590 78 q 548 35 565 49 q 509 9 532 21 q 458 -9 487 -2 q 393 -16 429 -16 m 408 89 q 502 110 461 89 q 569 169 542 131 q 611 261 597 208 q 625 379 625 315 q 612 495 625 442 q 570 584 598 547 q 502 642 543 622 q 408 663 462 663 q 311 641 353 663 q 242 581 270 619 q 201 491 215 543 q 187 379 187 439 q 201 265 187 318 q 243 173 216 213 q 312 111 271 134 q 408 89 354 89 m 836 1057 l 956 1057 l 921 802 l 836 802 l 836 1057 z "},"Đ":{"ha":998,"x_min":-34,"x_max":915,"o":"m 122 0 l 122 475 l -34 475 l -34 566 l 122 566 l 122 1010 l 448 1010 q 645 976 558 1010 q 792 876 732 941 q 884 718 852 811 q 915 507 915 625 q 884 295 915 389 q 790 135 852 201 q 639 35 729 70 q 434 0 549 0 l 122 0 m 426 109 q 590 136 520 109 q 706 215 659 164 q 774 341 752 267 q 797 507 797 415 q 775 672 797 599 q 707 796 752 745 q 596 874 662 847 q 440 902 529 902 l 245 902 l 245 566 l 400 566 l 400 475 l 245 475 l 245 109 l 426 109 z "},"đ":{"ha":862,"x_min":71,"x_max":848,"o":"m 393 -16 q 262 12 322 -16 q 161 91 203 39 q 95 214 118 142 q 71 377 71 287 q 95 539 71 467 q 161 662 118 611 q 263 740 204 713 q 395 767 323 767 q 460 761 432 767 q 511 743 489 754 q 550 717 534 731 q 578 689 566 703 q 599 661 590 674 q 614 637 607 647 l 623 637 l 623 823 l 414 823 l 414 913 l 623 913 l 623 1010 l 740 1010 l 740 913 l 848 913 l 848 823 l 740 823 l 740 0 l 627 0 l 627 116 l 614 116 q 599 92 607 106 q 577 64 590 78 q 548 35 565 49 q 509 9 532 21 q 458 -9 487 -2 q 393 -16 429 -16 m 408 89 q 502 110 461 89 q 569 169 542 131 q 611 261 597 208 q 625 379 625 315 q 612 495 625 442 q 570 584 598 547 q 502 642 543 622 q 408 663 462 663 q 311 641 353 663 q 242 581 270 619 q 201 491 215 543 q 187 379 187 439 q 201 265 187 318 q 243 173 216 213 q 312 111 271 134 q 408 89 354 89 z "},"Ē":{"ha":831,"x_min":122,"x_max":740,"o":"m 122 1010 l 732 1010 l 732 902 l 245 902 l 245 560 l 700 560 l 700 452 l 245 452 l 245 109 l 740 109 l 740 0 l 122 0 l 122 1010 m 657 1164 l 195 1164 l 195 1263 l 657 1263 l 657 1164 z "},"ē":{"ha":809,"x_min":71,"x_max":738,"o":"m 424 -16 q 277 12 342 -16 q 165 91 211 40 q 95 214 120 143 q 71 373 71 286 q 95 533 71 460 q 165 657 120 605 q 273 739 210 710 q 412 767 335 767 q 491 759 452 767 q 567 732 531 751 q 634 684 603 713 q 689 612 665 654 q 725 515 712 570 q 738 389 738 459 l 738 339 l 188 339 q 208 232 190 279 q 257 153 226 185 q 330 105 288 121 q 424 89 373 89 q 542 118 493 89 q 614 207 591 148 l 726 176 q 686 97 713 133 q 619 37 658 62 q 531 -2 581 12 q 424 -16 482 -16 m 619 440 q 605 529 619 488 q 563 600 590 570 q 498 646 536 629 q 412 663 460 663 q 322 645 363 663 q 253 596 282 626 q 208 525 224 565 q 188 440 191 484 l 619 440 m 637 911 l 176 911 l 176 1010 l 637 1010 l 637 911 z "},"Ĕ":{"ha":831,"x_min":122,"x_max":740,"o":"m 122 1010 l 732 1010 l 732 902 l 245 902 l 245 560 l 700 560 l 700 452 l 245 452 l 245 109 l 740 109 l 740 0 l 122 0 l 122 1010 m 631 1263 q 617 1189 631 1223 q 576 1132 603 1156 q 511 1094 549 1108 q 426 1081 473 1081 q 342 1094 380 1081 q 278 1132 304 1108 q 237 1189 252 1156 q 223 1263 223 1223 l 331 1263 q 337 1226 331 1243 q 353 1195 342 1208 q 382 1174 364 1182 q 426 1166 400 1166 q 471 1174 452 1166 q 500 1195 489 1182 q 517 1226 512 1208 q 523 1263 523 1243 l 631 1263 z "},"ĕ":{"ha":809,"x_min":71,"x_max":738,"o":"m 424 -16 q 277 12 342 -16 q 165 91 211 40 q 95 214 120 143 q 71 373 71 286 q 95 533 71 460 q 165 657 120 605 q 273 739 210 710 q 412 767 335 767 q 491 759 452 767 q 567 732 531 751 q 634 684 603 713 q 689 612 665 654 q 725 515 712 570 q 738 389 738 459 l 738 339 l 188 339 q 208 232 190 279 q 257 153 226 185 q 330 105 288 121 q 424 89 373 89 q 542 118 493 89 q 614 207 591 148 l 726 176 q 686 97 713 133 q 619 37 658 62 q 531 -2 581 12 q 424 -16 482 -16 m 619 440 q 605 529 619 488 q 563 600 590 570 q 498 646 536 629 q 412 663 460 663 q 322 645 363 663 q 253 596 282 626 q 208 525 224 565 q 188 440 191 484 l 619 440 m 612 1010 q 597 937 612 970 q 556 879 583 904 q 492 842 530 855 q 406 829 454 829 q 322 842 360 829 q 258 879 285 855 q 218 937 232 904 q 203 1010 203 970 l 312 1010 q 317 973 312 991 q 333 943 322 956 q 363 921 344 929 q 406 913 381 913 q 451 921 433 913 q 481 943 469 929 q 498 973 492 956 q 503 1010 503 991 l 612 1010 z "},"Ė":{"ha":831,"x_min":122,"x_max":740,"o":"m 122 1010 l 732 1010 l 732 902 l 245 902 l 245 560 l 700 560 l 700 452 l 245 452 l 245 109 l 740 109 l 740 0 l 122 0 l 122 1010 m 426 1136 q 394 1143 409 1136 q 368 1160 379 1149 q 350 1185 357 1170 q 343 1215 343 1199 q 350 1246 343 1232 q 368 1271 357 1260 q 394 1288 379 1282 q 426 1294 409 1294 q 458 1288 443 1294 q 485 1271 473 1282 q 502 1246 496 1260 q 509 1215 509 1232 q 502 1185 509 1199 q 485 1160 496 1170 q 458 1143 473 1149 q 426 1136 443 1136 z "},"ė":{"ha":809,"x_min":71,"x_max":738,"o":"m 424 -16 q 277 12 342 -16 q 165 91 211 40 q 95 214 120 143 q 71 373 71 286 q 95 533 71 460 q 165 657 120 605 q 273 739 210 710 q 412 767 335 767 q 491 759 452 767 q 567 732 531 751 q 634 684 603 713 q 689 612 665 654 q 725 515 712 570 q 738 389 738 459 l 738 339 l 188 339 q 208 232 190 279 q 257 153 226 185 q 330 105 288 121 q 424 89 373 89 q 542 118 493 89 q 614 207 591 148 l 726 176 q 686 97 713 133 q 619 37 658 62 q 531 -2 581 12 q 424 -16 482 -16 m 619 440 q 605 529 619 488 q 563 600 590 570 q 498 646 536 629 q 412 663 460 663 q 322 645 363 663 q 253 596 282 626 q 208 525 224 565 q 188 440 191 484 l 619 440 m 406 884 q 374 890 390 884 q 348 907 359 896 q 330 932 337 918 q 324 963 324 946 q 330 993 324 979 q 348 1018 337 1008 q 374 1036 359 1029 q 406 1042 390 1042 q 439 1036 424 1042 q 465 1018 454 1029 q 483 993 476 1008 q 489 963 489 979 q 483 932 489 946 q 465 907 476 918 q 439 890 454 896 q 406 884 424 884 z "},"Ę":{"ha":831,"x_min":122,"x_max":752,"o":"m 122 1010 l 732 1010 l 732 902 l 245 902 l 245 560 l 700 560 l 700 452 l 245 452 l 245 109 l 740 109 l 740 0 q 697 -34 718 -16 q 660 -69 676 -51 q 635 -108 645 -88 q 625 -150 625 -128 q 636 -185 625 -172 q 677 -197 647 -197 q 716 -191 699 -197 q 744 -180 733 -185 l 752 -266 q 709 -286 735 -277 q 647 -296 683 -296 q 591 -288 617 -296 q 547 -263 565 -279 q 518 -222 528 -246 q 507 -166 507 -198 q 531 -81 507 -123 q 612 0 556 -38 l 122 0 l 122 1010 z "},"ę":{"ha":809,"x_min":71,"x_max":738,"o":"m 428 -296 q 372 -288 398 -296 q 328 -263 346 -279 q 299 -222 309 -246 q 288 -166 288 -198 q 308 -88 288 -126 q 375 -13 328 -49 q 247 26 304 -5 q 152 108 191 58 q 92 225 112 158 q 71 373 71 292 q 95 533 71 460 q 165 657 120 605 q 273 739 210 710 q 412 767 335 767 q 491 759 452 767 q 567 732 531 751 q 634 684 603 713 q 689 612 665 654 q 725 515 712 570 q 738 389 738 459 l 738 339 l 188 339 q 208 232 190 279 q 257 153 226 185 q 330 105 288 121 q 424 89 373 89 q 542 118 493 89 q 614 207 591 148 l 726 176 q 696 112 715 142 q 649 59 676 82 q 587 19 621 36 q 511 -7 552 2 q 472 -39 491 -23 q 438 -73 453 -55 q 415 -110 424 -91 q 406 -150 406 -129 q 417 -185 406 -172 q 458 -197 428 -197 q 497 -191 480 -197 q 525 -180 514 -185 l 533 -266 q 490 -286 516 -277 q 428 -296 464 -296 m 619 440 q 605 529 619 488 q 563 600 590 570 q 498 646 536 629 q 412 663 460 663 q 322 645 363 663 q 253 596 282 626 q 208 525 224 565 q 188 440 191 484 l 619 440 z "},"Ě":{"ha":831,"x_min":122,"x_max":740,"o":"m 122 1010 l 732 1010 l 732 902 l 245 902 l 245 560 l 700 560 l 700 452 l 245 452 l 245 109 l 740 109 l 740 0 l 122 0 l 122 1010 m 426 1176 l 529 1314 l 639 1314 l 639 1306 l 479 1101 l 373 1101 l 213 1306 l 213 1314 l 324 1314 l 426 1176 z "},"ě":{"ha":809,"x_min":71,"x_max":738,"o":"m 424 -16 q 277 12 342 -16 q 165 91 211 40 q 95 214 120 143 q 71 373 71 286 q 95 533 71 460 q 165 657 120 605 q 273 739 210 710 q 412 767 335 767 q 491 759 452 767 q 567 732 531 751 q 634 684 603 713 q 689 612 665 654 q 725 515 712 570 q 738 389 738 459 l 738 339 l 188 339 q 208 232 190 279 q 257 153 226 185 q 330 105 288 121 q 424 89 373 89 q 542 118 493 89 q 614 207 591 148 l 726 176 q 686 97 713 133 q 619 37 658 62 q 531 -2 581 12 q 424 -16 482 -16 m 619 440 q 605 529 619 488 q 563 600 590 570 q 498 646 536 629 q 412 663 460 663 q 322 645 363 663 q 253 596 282 626 q 208 525 224 565 q 188 440 191 484 l 619 440 m 406 923 l 509 1061 l 619 1061 l 619 1054 l 460 848 l 353 848 l 193 1054 l 193 1061 l 304 1061 l 406 923 z "},"Ĝ":{"ha":1032,"x_min":83,"x_max":945,"o":"m 813 694 q 770 784 797 744 q 708 852 744 824 q 625 894 671 879 q 525 909 580 909 q 399 883 458 909 q 296 806 339 857 q 227 679 252 755 q 201 505 201 604 q 227 331 201 407 q 297 204 252 255 q 402 127 341 153 q 533 101 463 101 q 650 121 597 101 q 743 181 704 142 q 803 274 781 219 q 827 397 825 328 l 560 397 l 560 505 l 945 505 l 945 397 q 914 227 945 303 q 829 97 884 151 q 699 15 774 44 q 533 -14 623 -14 q 349 22 432 -14 q 207 126 266 59 q 115 289 148 193 q 83 505 83 385 q 115 721 83 625 q 207 885 148 817 q 346 988 265 952 q 525 1024 428 1024 q 674 1000 605 1024 q 798 932 744 976 q 889 828 852 889 q 939 694 925 768 l 813 694 m 525 1239 l 422 1101 l 312 1101 l 312 1109 l 472 1314 l 578 1314 l 738 1109 l 738 1101 l 627 1101 l 525 1239 z "},"ĝ":{"ha":846,"x_min":71,"x_max":740,"o":"m 412 -300 q 299 -287 349 -300 q 212 -254 250 -275 q 147 -205 174 -233 q 103 -148 120 -178 l 195 -83 q 223 -118 207 -99 q 264 -156 239 -138 q 325 -185 289 -173 q 412 -197 361 -197 q 497 -186 458 -197 q 564 -153 536 -176 q 608 -96 592 -130 q 623 -14 623 -61 l 623 140 l 614 140 q 599 116 607 130 q 578 88 590 103 q 549 60 566 74 q 510 36 532 47 q 458 18 487 25 q 393 12 430 12 q 265 36 324 12 q 163 109 206 61 q 95 225 120 156 q 71 383 71 294 q 95 541 71 470 q 161 662 118 612 q 263 740 204 713 q 395 767 323 767 q 460 761 432 767 q 512 743 489 754 q 551 717 534 731 q 580 689 568 703 q 600 661 592 674 q 616 637 609 647 l 627 637 l 627 758 l 740 758 l 740 -22 q 714 -148 740 -95 q 644 -234 689 -200 q 540 -284 600 -268 q 412 -300 480 -300 m 408 116 q 502 135 461 116 q 569 188 542 153 q 611 272 597 222 q 625 385 625 322 q 612 497 625 446 q 570 585 598 548 q 502 642 543 622 q 408 663 462 663 q 311 641 353 663 q 242 582 270 619 q 201 493 215 544 q 187 385 187 442 q 201 276 187 326 q 243 191 216 227 q 312 136 271 156 q 408 116 354 116 m 424 986 l 322 848 l 211 848 l 211 856 l 371 1061 l 477 1061 l 637 856 l 637 848 l 527 848 l 424 986 z "},"Ğ":{"ha":1032,"x_min":83,"x_max":945,"o":"m 813 694 q 770 784 797 744 q 708 852 744 824 q 625 894 671 879 q 525 909 580 909 q 399 883 458 909 q 296 806 339 857 q 227 679 252 755 q 201 505 201 604 q 227 331 201 407 q 297 204 252 255 q 402 127 341 153 q 533 101 463 101 q 650 121 597 101 q 743 181 704 142 q 803 274 781 219 q 827 397 825 328 l 560 397 l 560 505 l 945 505 l 945 397 q 914 227 945 303 q 829 97 884 151 q 699 15 774 44 q 533 -14 623 -14 q 349 22 432 -14 q 207 126 266 59 q 115 289 148 193 q 83 505 83 385 q 115 721 83 625 q 207 885 148 817 q 346 988 265 952 q 525 1024 428 1024 q 674 1000 605 1024 q 798 932 744 976 q 889 828 852 889 q 939 694 925 768 l 813 694 m 730 1263 q 716 1189 730 1223 q 675 1132 701 1156 q 610 1094 648 1108 q 525 1081 572 1081 q 441 1094 478 1081 q 377 1132 403 1108 q 336 1189 350 1156 q 322 1263 322 1223 l 430 1263 q 435 1226 430 1243 q 452 1195 440 1208 q 481 1174 463 1182 q 525 1166 499 1166 q 569 1174 551 1166 q 599 1195 587 1182 q 616 1226 611 1208 q 621 1263 621 1243 l 730 1263 z "},"ğ":{"ha":846,"x_min":71,"x_max":740,"o":"m 412 -300 q 299 -287 349 -300 q 212 -254 250 -275 q 147 -205 174 -233 q 103 -148 120 -178 l 195 -83 q 223 -118 207 -99 q 264 -156 239 -138 q 325 -185 289 -173 q 412 -197 361 -197 q 497 -186 458 -197 q 564 -153 536 -176 q 608 -96 592 -130 q 623 -14 623 -61 l 623 140 l 614 140 q 599 116 607 130 q 578 88 590 103 q 549 60 566 74 q 510 36 532 47 q 458 18 487 25 q 393 12 430 12 q 265 36 324 12 q 163 109 206 61 q 95 225 120 156 q 71 383 71 294 q 95 541 71 470 q 161 662 118 612 q 263 740 204 713 q 395 767 323 767 q 460 761 432 767 q 512 743 489 754 q 551 717 534 731 q 580 689 568 703 q 600 661 592 674 q 616 637 609 647 l 627 637 l 627 758 l 740 758 l 740 -22 q 714 -148 740 -95 q 644 -234 689 -200 q 540 -284 600 -268 q 412 -300 480 -300 m 408 116 q 502 135 461 116 q 569 188 542 153 q 611 272 597 222 q 625 385 625 322 q 612 497 625 446 q 570 585 598 548 q 502 642 543 622 q 408 663 462 663 q 311 641 353 663 q 242 582 270 619 q 201 493 215 544 q 187 385 187 442 q 201 276 187 326 q 243 191 216 227 q 312 136 271 156 q 408 116 354 116 m 629 1010 q 615 937 629 970 q 574 879 601 904 q 509 842 547 855 q 424 829 472 829 q 340 842 378 829 q 276 879 302 855 q 235 937 250 904 q 221 1010 221 970 l 329 1010 q 335 973 329 991 q 351 943 340 956 q 380 921 362 929 q 424 913 399 913 q 469 921 450 913 q 498 943 487 929 q 515 973 510 956 q 521 1010 521 991 l 629 1010 z "},"Ġ":{"ha":1032,"x_min":83,"x_max":945,"o":"m 813 694 q 770 784 797 744 q 708 852 744 824 q 625 894 671 879 q 525 909 580 909 q 399 883 458 909 q 296 806 339 857 q 227 679 252 755 q 201 505 201 604 q 227 331 201 407 q 297 204 252 255 q 402 127 341 153 q 533 101 463 101 q 650 121 597 101 q 743 181 704 142 q 803 274 781 219 q 827 397 825 328 l 560 397 l 560 505 l 945 505 l 945 397 q 914 227 945 303 q 829 97 884 151 q 699 15 774 44 q 533 -14 623 -14 q 349 22 432 -14 q 207 126 266 59 q 115 289 148 193 q 83 505 83 385 q 115 721 83 625 q 207 885 148 817 q 346 988 265 952 q 525 1024 428 1024 q 674 1000 605 1024 q 798 932 744 976 q 889 828 852 889 q 939 694 925 768 l 813 694 m 525 1136 q 493 1143 508 1136 q 466 1160 477 1149 q 449 1185 455 1170 q 442 1215 442 1199 q 449 1246 442 1232 q 466 1271 455 1260 q 493 1288 477 1282 q 525 1294 508 1294 q 557 1288 542 1294 q 583 1271 572 1282 q 601 1246 594 1260 q 608 1215 608 1232 q 601 1185 608 1199 q 583 1160 594 1170 q 557 1143 572 1149 q 525 1136 542 1136 z "},"ġ":{"ha":846,"x_min":71,"x_max":740,"o":"m 412 -300 q 299 -287 349 -300 q 212 -254 250 -275 q 147 -205 174 -233 q 103 -148 120 -178 l 195 -83 q 223 -118 207 -99 q 264 -156 239 -138 q 325 -185 289 -173 q 412 -197 361 -197 q 497 -186 458 -197 q 564 -153 536 -176 q 608 -96 592 -130 q 623 -14 623 -61 l 623 140 l 614 140 q 599 116 607 130 q 578 88 590 103 q 549 60 566 74 q 510 36 532 47 q 458 18 487 25 q 393 12 430 12 q 265 36 324 12 q 163 109 206 61 q 95 225 120 156 q 71 383 71 294 q 95 541 71 470 q 161 662 118 612 q 263 740 204 713 q 395 767 323 767 q 460 761 432 767 q 512 743 489 754 q 551 717 534 731 q 580 689 568 703 q 600 661 592 674 q 616 637 609 647 l 627 637 l 627 758 l 740 758 l 740 -22 q 714 -148 740 -95 q 644 -234 689 -200 q 540 -284 600 -268 q 412 -300 480 -300 m 408 116 q 502 135 461 116 q 569 188 542 153 q 611 272 597 222 q 625 385 625 322 q 612 497 625 446 q 570 585 598 548 q 502 642 543 622 q 408 663 462 663 q 311 641 353 663 q 242 582 270 619 q 201 493 215 544 q 187 385 187 442 q 201 276 187 326 q 243 191 216 227 q 312 136 271 156 q 408 116 354 116 m 424 884 q 392 890 407 884 q 366 907 377 896 q 348 932 355 918 q 341 963 341 946 q 348 993 341 979 q 366 1018 355 1008 q 392 1036 377 1029 q 424 1042 407 1042 q 456 1036 441 1042 q 483 1018 472 1029 q 500 993 494 1008 q 507 963 507 979 q 500 932 507 946 q 483 907 494 918 q 456 890 472 896 q 424 884 441 884 z "},"Ģ":{"ha":1032,"x_min":83,"x_max":945,"o":"m 813 694 q 770 784 797 744 q 708 852 744 824 q 625 894 671 879 q 525 909 580 909 q 399 883 458 909 q 296 806 339 857 q 227 679 252 755 q 201 505 201 604 q 227 331 201 407 q 297 204 252 255 q 402 127 341 153 q 533 101 463 101 q 650 121 597 101 q 743 181 704 142 q 803 274 781 219 q 827 397 825 328 l 560 397 l 560 505 l 945 505 l 945 397 q 914 227 945 303 q 829 97 884 151 q 699 15 774 44 q 533 -14 623 -14 q 349 22 432 -14 q 207 126 266 59 q 115 289 148 193 q 83 505 83 385 q 115 721 83 625 q 207 885 148 817 q 346 988 265 952 q 525 1024 428 1024 q 674 1000 605 1024 q 798 932 744 976 q 889 828 852 889 q 939 694 925 768 l 813 694 m 463 -80 l 582 -80 l 498 -335 l 407 -335 l 463 -80 z "},"ģ":{"ha":846,"x_min":71,"x_max":740,"o":"m 412 -300 q 299 -287 349 -300 q 212 -254 250 -275 q 147 -205 174 -233 q 103 -148 120 -178 l 195 -83 q 223 -118 207 -99 q 264 -156 239 -138 q 325 -185 289 -173 q 412 -197 361 -197 q 497 -186 458 -197 q 564 -153 536 -176 q 608 -96 592 -130 q 623 -14 623 -61 l 623 140 l 614 140 q 599 116 607 130 q 578 88 590 103 q 549 60 566 74 q 510 36 532 47 q 458 18 487 25 q 393 12 430 12 q 265 36 324 12 q 163 109 206 61 q 95 225 120 156 q 71 383 71 294 q 95 541 71 470 q 161 662 118 612 q 263 740 204 713 q 395 767 323 767 q 460 761 432 767 q 512 743 489 754 q 551 717 534 731 q 580 689 568 703 q 600 661 592 674 q 616 637 609 647 l 627 637 l 627 758 l 740 758 l 740 -22 q 714 -148 740 -95 q 644 -234 689 -200 q 540 -284 600 -268 q 412 -300 480 -300 m 408 116 q 502 135 461 116 q 569 188 542 153 q 611 272 597 222 q 625 385 625 322 q 612 497 625 446 q 570 585 598 548 q 502 642 543 622 q 408 663 462 663 q 311 641 353 663 q 242 582 270 619 q 201 493 215 544 q 187 385 187 442 q 201 276 187 326 q 243 191 216 227 q 312 136 271 156 q 408 116 354 116 m 353 945 q 363 1008 353 976 q 387 1068 372 1039 q 420 1119 402 1096 q 454 1156 437 1142 l 531 1095 q 511 1055 519 1074 q 498 1018 503 1036 q 491 980 493 999 q 489 939 489 961 l 489 858 l 353 858 l 353 945 z "},"Ĥ":{"ha":1028,"x_min":122,"x_max":906,"o":"m 122 1010 l 245 1010 l 245 560 l 783 560 l 783 1010 l 906 1010 l 906 0 l 783 0 l 783 452 l 245 452 l 245 0 l 122 0 l 122 1010 m 519 1241 l 416 1103 l 306 1103 l 306 1111 l 466 1316 l 572 1316 l 732 1111 l 732 1103 l 621 1103 l 519 1241 z "},"ĥ":{"ha":821,"x_min":-47,"x_max":714,"o":"m 223 0 l 107 0 l 107 1010 l 223 1010 l 223 639 l 233 639 q 266 692 246 669 q 313 733 286 716 q 376 758 340 749 q 456 767 411 767 q 562 750 514 767 q 643 697 609 733 q 696 608 677 662 q 714 481 714 554 l 714 0 l 598 0 l 598 473 q 586 554 598 519 q 551 613 574 589 q 496 650 528 638 q 422 663 463 663 q 343 649 379 663 q 280 609 306 635 q 238 544 253 582 q 223 456 223 506 l 223 0 m 166 1239 l 63 1101 l -47 1101 l -47 1109 l 112 1314 l 219 1314 l 379 1109 l 379 1101 l 268 1101 l 166 1239 z "},"Ħ":{"ha":1079,"x_min":67,"x_max":1012,"o":"m 1012 694 l 931 694 l 931 0 l 809 0 l 809 452 l 270 452 l 270 0 l 148 0 l 148 694 l 67 694 l 67 797 l 148 797 l 148 1010 l 270 1010 l 270 797 l 809 797 l 809 1010 l 931 1010 l 931 797 l 1012 797 l 1012 694 m 270 694 l 270 560 l 809 560 l 809 694 l 270 694 z "},"ħ":{"ha":821,"x_min":-51,"x_max":714,"o":"m 223 0 l 107 0 l 107 838 l -51 838 l -51 929 l 107 929 l 107 1010 l 223 1010 l 223 929 l 383 929 l 383 838 l 223 838 l 223 639 l 233 639 q 266 692 246 669 q 313 733 286 716 q 376 758 340 749 q 456 767 411 767 q 562 750 514 767 q 643 697 609 733 q 696 608 677 662 q 714 481 714 554 l 714 0 l 598 0 l 598 473 q 586 554 598 519 q 551 613 574 589 q 496 650 528 638 q 422 663 463 663 q 343 649 379 663 q 280 609 306 635 q 238 544 253 582 q 223 456 223 506 l 223 0 z "},"Ĩ":{"ha":616,"x_min":65,"x_max":550,"o":"m 369 0 l 247 0 l 247 1010 l 369 1010 l 369 0 m 65 1105 q 77 1174 65 1143 q 108 1228 88 1205 q 156 1264 128 1251 q 215 1276 183 1276 q 265 1267 243 1276 q 307 1245 287 1257 q 347 1223 327 1233 q 395 1213 368 1213 q 421 1219 409 1213 q 442 1235 433 1225 q 456 1259 451 1245 q 462 1288 462 1273 l 550 1280 q 539 1211 550 1242 q 507 1158 527 1180 q 460 1125 487 1136 q 400 1113 433 1113 q 361 1117 378 1113 q 330 1129 344 1122 q 305 1144 317 1136 q 281 1160 293 1153 q 254 1171 268 1166 q 221 1176 240 1176 q 195 1170 207 1176 q 174 1154 183 1164 q 161 1130 166 1144 q 156 1101 156 1117 l 65 1105 z "},"ĩ":{"ha":387,"x_min":-47,"x_max":438,"o":"m 136 758 l 253 758 l 253 0 l 136 0 l 136 758 m -47 852 q -36 922 -47 890 q -4 976 -24 953 q 43 1011 16 999 q 103 1024 71 1024 q 152 1014 131 1024 q 194 992 174 1004 q 235 971 214 981 q 282 961 255 961 q 309 967 296 961 q 330 983 321 973 q 344 1007 339 993 q 349 1036 349 1020 l 438 1028 q 426 958 438 989 q 395 906 415 927 q 347 872 375 884 q 288 860 320 860 q 248 865 265 860 q 218 876 231 870 q 192 892 204 883 q 168 907 181 900 q 142 919 156 914 q 109 923 127 923 q 83 917 95 923 q 62 901 71 911 q 48 878 53 891 q 43 848 43 864 l -47 852 z "},"Ī":{"ha":367,"x_min":-47,"x_max":414,"o":"m 245 0 l 122 0 l 122 1010 l 245 1010 l 245 0 m 414 1164 l -47 1164 l -47 1263 l 414 1263 l 414 1164 z "},"ī":{"ha":329,"x_min":-65,"x_max":397,"o":"m 107 758 l 223 758 l 223 0 l 107 0 l 107 758 m 397 911 l -65 911 l -65 1010 l 397 1010 l 397 911 z "},"Ĭ":{"ha":367,"x_min":-20,"x_max":389,"o":"m 245 0 l 122 0 l 122 1010 l 245 1010 l 245 0 m 389 1263 q 374 1189 389 1223 q 333 1132 360 1156 q 269 1094 307 1108 q 183 1081 231 1081 q 99 1094 137 1081 q 35 1132 62 1108 q -5 1189 9 1156 q -20 1263 -20 1223 l 89 1263 q 94 1226 89 1243 q 110 1195 99 1208 q 140 1174 121 1182 q 183 1166 158 1166 q 228 1174 210 1166 q 258 1195 246 1182 q 275 1226 269 1208 q 280 1263 280 1243 l 389 1263 z "},"ĭ":{"ha":329,"x_min":-37,"x_max":371,"o":"m 107 758 l 223 758 l 223 0 l 107 0 l 107 758 m 371 1010 q 357 937 371 970 q 316 879 342 904 q 251 842 289 855 q 166 829 213 829 q 82 842 119 829 q 18 879 44 855 q -23 937 -9 904 q -37 1010 -37 970 l 71 1010 q 76 973 71 991 q 92 943 81 956 q 122 921 104 929 q 166 913 140 913 q 210 921 192 913 q 240 943 228 929 q 257 973 252 956 q 262 1010 262 991 l 371 1010 z "},"Į":{"ha":367,"x_min":12,"x_max":256,"o":"m 245 0 q 202 -34 222 -16 q 165 -69 181 -51 q 140 -108 149 -88 q 130 -150 130 -128 q 141 -185 130 -172 q 182 -197 152 -197 q 221 -191 204 -197 q 249 -180 238 -185 l 256 -266 q 214 -286 240 -277 q 152 -296 187 -296 q 96 -288 122 -296 q 52 -263 70 -279 q 22 -222 33 -246 q 12 -166 12 -198 q 18 -122 12 -144 q 37 -79 24 -100 q 72 -36 51 -57 q 122 4 93 -15 l 122 1010 l 245 1010 l 245 0 z "},"į":{"ha":329,"x_min":-10,"x_max":249,"o":"m 130 -296 q 74 -288 100 -296 q 30 -263 48 -279 q 1 -222 11 -246 q -10 -166 -10 -198 q -3 -121 -10 -144 q 17 -76 3 -98 q 53 -33 31 -54 q 107 8 75 -12 l 107 758 l 223 758 l 223 0 q 180 -34 201 -16 q 144 -69 159 -51 q 118 -108 128 -88 q 109 -150 109 -128 q 119 -185 109 -172 q 160 -197 130 -197 q 199 -191 182 -197 q 227 -180 217 -185 l 235 -266 q 192 -286 218 -277 q 130 -296 166 -296 m 166 884 q 134 890 149 884 q 107 907 118 896 q 90 932 96 918 q 83 963 83 946 q 90 993 83 979 q 107 1018 96 1008 q 134 1036 118 1029 q 166 1042 149 1042 q 198 1036 183 1042 q 224 1018 213 1029 q 242 993 235 1008 q 249 963 249 979 q 242 932 249 946 q 224 907 235 918 q 198 890 213 896 q 166 884 183 884 z "},"İ":{"ha":367,"x_min":101,"x_max":266,"o":"m 245 0 l 122 0 l 122 1010 l 245 1010 l 245 0 m 183 1136 q 151 1143 167 1136 q 125 1160 136 1149 q 107 1185 114 1170 q 101 1215 101 1199 q 107 1246 101 1232 q 125 1271 114 1260 q 151 1288 136 1282 q 183 1294 167 1294 q 216 1288 201 1294 q 242 1271 231 1282 q 260 1246 253 1260 q 266 1215 266 1232 q 260 1185 266 1199 q 242 1160 253 1170 q 216 1143 231 1149 q 183 1136 201 1136 z "},"ı":{"ha":329,"x_min":107,"x_max":223,"o":"m 107 758 l 223 758 l 223 0 l 107 0 l 107 758 z "},"Ĳ":{"ha":1121,"x_min":122,"x_max":998,"o":"m 998 1010 l 998 288 q 978 159 998 216 q 920 65 958 103 q 829 6 882 26 q 710 -14 776 -14 q 596 3 648 -14 q 505 53 543 21 q 446 132 467 86 q 424 237 424 179 l 545 237 q 557 178 545 205 q 591 133 569 152 q 644 105 614 115 q 710 95 674 95 q 833 144 790 95 q 876 288 876 193 l 876 1010 l 998 1010 m 245 0 l 122 0 l 122 1010 l 245 1010 l 245 0 z "},"ĳ":{"ha":659,"x_min":83,"x_max":576,"o":"m 552 758 l 552 -55 q 539 -150 552 -108 q 499 -222 526 -192 q 431 -268 472 -252 q 335 -284 390 -284 l 312 -284 l 312 -176 l 333 -176 q 411 -144 387 -176 q 436 -55 436 -113 l 436 758 l 552 758 m 107 758 l 223 758 l 223 0 l 107 0 l 107 758 m 166 884 q 134 890 149 884 q 107 907 118 896 q 90 932 96 918 q 83 963 83 946 q 90 993 83 979 q 107 1018 96 1008 q 134 1036 118 1029 q 166 1042 149 1042 q 198 1036 183 1042 q 224 1018 213 1029 q 242 993 235 1008 q 249 963 249 979 q 242 932 249 946 q 224 907 235 918 q 198 890 213 896 q 166 884 183 884 m 493 884 q 461 890 476 884 q 435 907 446 896 q 417 932 424 918 q 410 963 410 946 q 417 993 410 979 q 435 1018 424 1008 q 461 1036 446 1029 q 493 1042 476 1042 q 526 1036 510 1042 q 552 1018 541 1029 q 569 993 563 1008 q 576 963 576 979 q 569 932 576 946 q 552 907 563 918 q 526 890 541 896 q 493 884 510 884 z "},"Ĵ":{"ha":754,"x_min":57,"x_max":783,"o":"m 631 1010 l 631 288 q 611 159 631 216 q 553 65 591 103 q 462 6 515 26 q 343 -14 409 -14 q 229 3 281 -14 q 138 53 176 21 q 79 132 100 86 q 57 237 57 179 l 178 237 q 190 178 178 205 q 224 133 202 152 q 277 105 247 115 q 343 95 307 95 q 466 144 423 95 q 509 288 509 193 l 509 1010 l 631 1010 m 570 1239 l 468 1101 l 357 1101 l 357 1109 l 517 1314 l 623 1314 l 783 1109 l 783 1101 l 673 1101 l 570 1239 z "},"ĵ":{"ha":329,"x_min":-49,"x_max":377,"o":"m 223 758 l 223 -55 q 210 -150 223 -108 q 169 -222 196 -192 q 101 -268 142 -252 q 6 -284 61 -284 l -18 -284 l -18 -176 l 4 -176 q 82 -144 57 -176 q 107 -55 107 -113 l 107 758 l 223 758 m 164 986 l 61 848 l -49 848 l -49 856 l 110 1061 l 217 1061 l 377 856 l 377 848 l 266 848 l 164 986 z "},"Ķ":{"ha":906,"x_min":122,"x_max":870,"o":"m 122 1010 l 245 1010 l 245 509 l 256 509 l 710 1010 l 870 1010 l 446 554 l 870 0 l 722 0 l 371 470 l 245 327 l 245 0 l 122 0 l 122 1010 m 394 -80 l 513 -80 l 429 -335 l 338 -335 l 394 -80 z "},"ķ":{"ha":756,"x_min":107,"x_max":736,"o":"m 107 1010 l 223 1010 l 223 420 l 237 420 l 568 758 l 712 758 l 392 434 l 736 0 l 588 0 l 304 359 l 223 284 l 223 0 l 107 0 l 107 1010 m 330 -80 l 450 -80 l 366 -335 l 275 -335 l 330 -80 z "},"ĸ":{"ha":876,"x_min":118,"x_max":758,"o":"m 254 441 l 323 441 l 593 758 l 757 758 l 431 379 l 758 0 l 586 0 l 308 325 l 254 325 l 254 0 l 118 0 l 118 758 l 254 758 l 254 441 z "},"Ĺ":{"ha":781,"x_min":122,"x_max":714,"o":"m 122 1010 l 245 1010 l 245 109 l 714 109 l 714 0 l 122 0 l 122 1010 m 251 1342 l 387 1342 l 233 1113 l 130 1113 l 251 1342 z "},"ĺ":{"ha":329,"x_min":107,"x_max":367,"o":"m 223 0 l 107 0 l 107 1010 l 223 1010 l 223 0 m 231 1342 l 367 1342 l 213 1113 l 110 1113 l 231 1342 z "},"Ļ":{"ha":781,"x_min":122,"x_max":714,"o":"m 122 1010 l 245 1010 l 245 109 l 714 109 l 714 0 l 122 0 l 122 1010 m 358 -80 l 477 -80 l 394 -335 l 303 -335 l 358 -80 z "},"ļ":{"ha":329,"x_min":49,"x_max":224,"o":"m 223 0 l 107 0 l 107 1010 l 223 1010 l 223 0 m 105 -80 l 224 -80 l 140 -335 l 49 -335 l 105 -80 z "},"Ľ":{"ha":781,"x_min":122,"x_max":714,"o":"m 122 1010 l 245 1010 l 245 109 l 714 109 l 714 0 l 122 0 l 122 1010 m 416 1057 l 536 1057 l 501 802 l 416 802 l 416 1057 z "},"ľ":{"ha":423,"x_min":107,"x_max":439,"o":"m 223 0 l 107 0 l 107 1010 l 223 1010 l 223 0 m 320 1057 l 439 1057 l 404 802 l 320 802 l 320 1057 z "},"Ŀ":{"ha":781,"x_min":122,"x_max":714,"o":"m 122 1010 l 245 1010 l 245 109 l 714 109 l 714 0 l 122 0 l 122 1010 m 479 499 q 447 505 463 499 q 421 522 432 511 q 403 547 410 533 q 397 578 397 562 q 403 609 397 594 q 421 634 410 623 q 447 651 432 645 q 479 657 463 657 q 512 651 497 657 q 538 634 527 645 q 556 609 549 623 q 562 578 562 594 q 556 547 562 562 q 538 522 549 533 q 512 505 527 511 q 479 499 497 499 z "},"ŀ":{"ha":438,"x_min":107,"x_max":452,"o":"m 223 0 l 107 0 l 107 1010 l 223 1010 l 223 0 m 369 485 q 337 491 352 485 q 310 509 322 498 q 293 534 299 519 q 286 564 286 548 q 293 595 286 581 q 310 620 299 609 q 337 637 322 631 q 369 643 352 643 q 401 637 386 643 q 427 620 416 631 q 445 595 438 609 q 452 564 452 581 q 445 534 452 548 q 427 509 438 519 q 401 491 416 498 q 369 485 386 485 z "},"Ł":{"ha":781,"x_min":30,"x_max":714,"o":"m 430 543 l 245 484 l 245 109 l 714 109 l 714 0 l 122 0 l 122 445 l 30 416 l 30 505 l 122 534 l 122 1010 l 245 1010 l 245 573 l 430 631 l 430 543 z "},"ł":{"ha":329,"x_min":-2,"x_max":331,"o":"m 331 545 l 223 504 l 223 0 l 107 0 l 107 459 l -2 418 l -2 505 l 107 546 l 107 1010 l 223 1010 l 223 590 l 331 631 l 331 545 z "},"Ń":{"ha":1046,"x_min":122,"x_max":923,"o":"m 923 0 l 805 0 l 254 793 l 245 793 l 245 0 l 122 0 l 122 1010 l 241 1010 l 793 215 l 803 215 l 803 1010 l 923 1010 l 923 0 m 590 1342 l 726 1342 l 572 1113 l 470 1113 l 590 1342 z "},"ń":{"ha":813,"x_min":107,"x_max":706,"o":"m 223 0 l 107 0 l 107 758 l 219 758 l 219 639 l 229 639 q 262 692 242 668 q 310 732 283 715 q 372 758 337 749 q 450 767 407 767 q 555 750 508 767 q 636 697 602 732 q 688 608 669 661 q 706 481 706 554 l 706 0 l 590 0 l 590 473 q 578 553 590 518 q 544 613 566 588 q 489 650 521 637 q 416 663 457 663 q 339 649 374 663 q 278 609 304 635 q 237 544 252 582 q 223 456 223 506 l 223 0 m 473 1089 l 610 1089 l 456 860 l 353 860 l 473 1089 z "},"Ņ":{"ha":1046,"x_min":122,"x_max":923,"o":"m 923 0 l 805 0 l 254 793 l 245 793 l 245 0 l 122 0 l 122 1010 l 241 1010 l 793 215 l 803 215 l 803 1010 l 923 1010 l 923 0 m 463 -80 l 582 -80 l 498 -335 l 407 -335 l 463 -80 z "},"ņ":{"ha":813,"x_min":107,"x_max":706,"o":"m 223 0 l 107 0 l 107 758 l 219 758 l 219 639 l 229 639 q 262 692 242 668 q 310 732 283 715 q 372 758 337 749 q 450 767 407 767 q 555 750 508 767 q 636 697 602 732 q 688 608 669 661 q 706 481 706 554 l 706 0 l 590 0 l 590 473 q 578 553 590 518 q 544 613 566 588 q 489 650 521 637 q 416 663 457 663 q 339 649 374 663 q 278 609 304 635 q 237 544 252 582 q 223 456 223 506 l 223 0 m 346 -80 l 466 -80 l 382 -335 l 291 -335 l 346 -80 z "},"Ň":{"ha":1046,"x_min":122,"x_max":923,"o":"m 923 0 l 805 0 l 254 793 l 245 793 l 245 0 l 122 0 l 122 1010 l 241 1010 l 793 215 l 803 215 l 803 1010 l 923 1010 l 923 0 m 523 1176 l 625 1314 l 736 1314 l 736 1306 l 576 1101 l 470 1101 l 310 1306 l 310 1314 l 420 1314 l 523 1176 z "},"ň":{"ha":813,"x_min":107,"x_max":706,"o":"m 223 0 l 107 0 l 107 758 l 219 758 l 219 639 l 229 639 q 262 692 242 668 q 310 732 283 715 q 372 758 337 749 q 450 767 407 767 q 555 750 508 767 q 636 697 602 732 q 688 608 669 661 q 706 481 706 554 l 706 0 l 590 0 l 590 473 q 578 553 590 518 q 544 613 566 588 q 489 650 521 637 q 416 663 457 663 q 339 649 374 663 q 278 609 304 635 q 237 544 252 582 q 223 456 223 506 l 223 0 m 406 923 l 509 1061 l 619 1061 l 619 1054 l 460 848 l 353 848 l 193 1054 l 193 1061 l 304 1061 l 406 923 z "},"Ŋ":{"ha":1046,"x_min":122,"x_max":923,"o":"m 254 793 l 245 793 l 245 0 l 122 0 l 122 1010 l 241 1010 l 793 215 l 803 215 l 803 1010 l 923 1010 l 923 -81 q 908 -168 923 -130 q 864 -232 892 -206 q 800 -271 837 -257 q 722 -284 763 -284 q 686 -283 704 -284 q 655 -278 668 -283 l 655 -178 q 672 -180 662 -179 q 692 -182 682 -182 q 737 -177 716 -182 q 772 -160 757 -172 q 796 -128 788 -148 q 805 -79 805 -109 l 805 0 l 254 793 z "},"ŋ":{"ha":813,"x_min":107,"x_max":706,"o":"m 223 0 l 107 0 l 107 758 l 219 758 l 219 639 l 229 639 q 262 692 242 668 q 310 732 283 715 q 372 758 337 749 q 450 767 407 767 q 555 750 508 767 q 636 697 602 732 q 688 608 669 661 q 706 481 706 554 l 706 -81 q 691 -168 706 -130 q 649 -232 676 -206 q 586 -271 622 -257 q 509 -284 550 -284 q 473 -283 491 -284 q 442 -278 455 -283 l 442 -180 q 459 -182 449 -181 q 479 -183 469 -183 q 523 -179 503 -183 q 558 -162 544 -174 q 581 -130 573 -150 q 590 -81 590 -110 l 590 473 q 578 553 590 518 q 544 613 566 588 q 489 650 521 637 q 416 663 457 663 q 339 649 374 663 q 278 609 304 635 q 237 544 252 582 q 223 456 223 506 l 223 0 z "},"Ō":{"ha":1057,"x_min":83,"x_max":975,"o":"m 975 505 q 941 289 975 385 q 849 126 908 193 q 708 22 789 59 q 529 -14 626 -14 q 406 2 464 -14 q 298 50 348 19 q 209 126 249 81 q 141 228 169 171 q 98 356 113 286 q 83 505 83 425 q 98 654 83 585 q 141 782 113 724 q 209 884 169 839 q 298 960 249 929 q 406 1008 348 991 q 529 1024 464 1024 q 708 988 626 1024 q 849 885 789 952 q 941 721 908 817 q 975 505 975 625 m 856 505 q 831 679 856 604 q 761 806 805 755 q 657 883 717 857 q 529 909 598 909 q 400 883 460 909 q 296 806 340 857 q 227 679 252 755 q 201 505 201 604 q 227 331 201 407 q 296 204 252 255 q 400 127 340 153 q 529 101 460 101 q 657 127 598 101 q 761 204 717 153 q 831 331 805 255 q 856 505 856 407 m 760 1164 l 298 1164 l 298 1263 l 760 1263 l 760 1164 z "},"ō":{"ha":829,"x_min":71,"x_max":758,"o":"m 414 -16 q 274 12 337 -16 q 166 91 211 40 q 96 215 121 143 q 71 375 71 287 q 96 536 71 464 q 166 660 121 609 q 274 739 211 711 q 414 767 337 767 q 555 739 491 767 q 663 660 618 711 q 733 536 708 609 q 758 375 758 464 q 733 215 758 287 q 663 91 708 143 q 555 12 618 40 q 414 -16 491 -16 m 414 89 q 516 112 473 89 q 586 175 558 136 q 628 266 614 214 q 641 375 641 318 q 628 484 641 432 q 586 576 614 536 q 516 639 558 616 q 414 663 473 663 q 313 639 356 663 q 242 576 270 616 q 201 484 215 536 q 187 375 187 432 q 201 266 187 318 q 242 175 215 214 q 313 112 270 136 q 414 89 356 89 m 645 911 l 183 911 l 183 1010 l 645 1010 l 645 911 z "},"Ŏ":{"ha":1057,"x_min":83,"x_max":975,"o":"m 975 505 q 941 289 975 385 q 849 126 908 193 q 708 22 789 59 q 529 -14 626 -14 q 406 2 464 -14 q 298 50 348 19 q 209 126 249 81 q 141 228 169 171 q 98 356 113 286 q 83 505 83 425 q 98 654 83 585 q 141 782 113 724 q 209 884 169 839 q 298 960 249 929 q 406 1008 348 991 q 529 1024 464 1024 q 708 988 626 1024 q 849 885 789 952 q 941 721 908 817 q 975 505 975 625 m 856 505 q 831 679 856 604 q 761 806 805 755 q 657 883 717 857 q 529 909 598 909 q 400 883 460 909 q 296 806 340 857 q 227 679 252 755 q 201 505 201 604 q 227 331 201 407 q 296 204 252 255 q 400 127 340 153 q 529 101 460 101 q 657 127 598 101 q 761 204 717 153 q 831 331 805 255 q 856 505 856 407 m 734 1263 q 720 1189 734 1223 q 679 1132 705 1156 q 614 1094 652 1108 q 529 1081 576 1081 q 445 1094 482 1081 q 381 1132 407 1108 q 340 1189 354 1156 q 326 1263 326 1223 l 434 1263 q 439 1226 434 1243 q 455 1195 444 1208 q 485 1174 467 1182 q 529 1166 503 1166 q 573 1174 555 1166 q 603 1195 591 1182 q 620 1226 615 1208 q 625 1263 625 1243 l 734 1263 z "},"ŏ":{"ha":829,"x_min":71,"x_max":758,"o":"m 414 -16 q 274 12 337 -16 q 166 91 211 40 q 96 215 121 143 q 71 375 71 287 q 96 536 71 464 q 166 660 121 609 q 274 739 211 711 q 414 767 337 767 q 555 739 491 767 q 663 660 618 711 q 733 536 708 609 q 758 375 758 464 q 733 215 758 287 q 663 91 708 143 q 555 12 618 40 q 414 -16 491 -16 m 414 89 q 516 112 473 89 q 586 175 558 136 q 628 266 614 214 q 641 375 641 318 q 628 484 641 432 q 586 576 614 536 q 516 639 558 616 q 414 663 473 663 q 313 639 356 663 q 242 576 270 616 q 201 484 215 536 q 187 375 187 432 q 201 266 187 318 q 242 175 215 214 q 313 112 270 136 q 414 89 356 89 m 619 1010 q 605 937 619 970 q 564 879 591 904 q 500 842 538 855 q 414 829 462 829 q 330 842 368 829 q 266 879 292 855 q 225 937 240 904 q 211 1010 211 970 l 320 1010 q 325 973 320 991 q 341 943 330 956 q 370 921 352 929 q 414 913 389 913 q 459 921 440 913 q 489 943 477 929 q 506 973 500 956 q 511 1010 511 991 l 619 1010 z "},"Ő":{"ha":1057,"x_min":83,"x_max":975,"o":"m 975 505 q 941 289 975 385 q 849 126 908 193 q 708 22 789 59 q 529 -14 626 -14 q 406 2 464 -14 q 298 50 348 19 q 209 126 249 81 q 141 228 169 171 q 98 356 113 286 q 83 505 83 425 q 98 654 83 585 q 141 782 113 724 q 209 884 169 839 q 298 960 249 929 q 406 1008 348 991 q 529 1024 464 1024 q 708 988 626 1024 q 849 885 789 952 q 941 721 908 817 q 975 505 975 625 m 856 505 q 831 679 856 604 q 761 806 805 755 q 657 883 717 857 q 529 909 598 909 q 400 883 460 909 q 296 806 340 857 q 227 679 252 755 q 201 505 201 604 q 227 331 201 407 q 296 204 252 255 q 400 127 340 153 q 529 101 460 101 q 657 127 598 101 q 761 204 717 153 q 831 331 805 255 q 856 505 856 407 m 710 1302 l 840 1302 l 661 1093 l 558 1093 l 710 1302 m 466 1302 l 594 1302 l 448 1093 l 355 1093 l 466 1302 z "},"ő":{"ha":829,"x_min":71,"x_max":758,"o":"m 414 -16 q 274 12 337 -16 q 166 91 211 40 q 96 215 121 143 q 71 375 71 287 q 96 536 71 464 q 166 660 121 609 q 274 739 211 711 q 414 767 337 767 q 555 739 491 767 q 663 660 618 711 q 733 536 708 609 q 758 375 758 464 q 733 215 758 287 q 663 91 708 143 q 555 12 618 40 q 414 -16 491 -16 m 414 89 q 516 112 473 89 q 586 175 558 136 q 628 266 614 214 q 641 375 641 318 q 628 484 641 432 q 586 576 614 536 q 516 639 558 616 q 414 663 473 663 q 313 639 356 663 q 242 576 270 616 q 201 484 215 536 q 187 375 187 432 q 201 266 187 318 q 242 175 215 214 q 313 112 270 136 q 414 89 356 89 m 596 1050 l 726 1050 l 546 840 l 444 840 l 596 1050 m 351 1050 l 479 1050 l 333 840 l 241 840 l 351 1050 z "},"Œ":{"ha":1324,"x_min":83,"x_max":1233,"o":"m 529 0 q 347 36 429 0 q 206 139 264 73 q 115 299 147 206 q 83 505 83 392 q 115 712 83 619 q 206 872 147 805 q 347 974 264 938 q 529 1010 429 1010 l 1225 1010 l 1225 902 l 738 902 l 738 560 l 1194 560 l 1194 452 l 738 452 l 738 109 l 1233 109 l 1233 0 l 529 0 m 616 902 l 529 902 q 395 873 456 902 q 292 793 335 845 q 225 668 249 741 q 201 505 201 595 q 225 343 201 416 q 292 218 249 270 q 395 137 335 166 q 529 109 456 109 l 616 109 l 616 902 z "},"œ":{"ha":1375,"x_min":71,"x_max":1308,"o":"m 414 -16 q 274 12 337 -16 q 166 91 211 40 q 96 215 121 143 q 71 375 71 287 q 96 536 71 464 q 166 660 121 609 q 274 739 211 711 q 414 767 337 767 q 504 757 462 767 q 582 726 546 746 q 648 676 618 705 q 700 609 678 646 q 751 675 722 646 q 817 725 781 705 q 894 757 852 746 q 982 767 936 767 q 1061 759 1022 767 q 1137 732 1101 751 q 1204 684 1173 713 q 1259 612 1235 654 q 1295 515 1282 570 q 1308 389 1308 459 l 1308 339 l 758 339 q 778 232 760 279 q 827 153 796 185 q 901 105 858 121 q 994 89 943 89 q 1112 118 1063 89 q 1184 207 1162 148 l 1296 176 q 1256 97 1283 133 q 1190 37 1229 62 q 1101 -2 1151 12 q 994 -16 1052 -16 q 818 25 893 -16 q 699 141 744 67 q 581 25 654 67 q 414 -16 509 -16 m 414 89 q 516 112 473 89 q 586 175 558 136 q 628 266 614 214 q 641 375 641 318 q 628 484 641 432 q 586 576 614 536 q 516 639 558 616 q 414 663 473 663 q 313 639 356 663 q 242 576 270 616 q 201 484 215 536 q 187 375 187 432 q 201 266 187 318 q 242 175 215 214 q 313 112 270 136 q 414 89 356 89 m 1190 440 q 1175 529 1190 488 q 1133 600 1161 570 q 1068 646 1106 629 q 982 663 1030 663 q 892 645 933 663 q 823 596 852 626 q 778 525 795 565 q 758 440 761 484 l 1190 440 z "},"Ŕ":{"ha":888,"x_min":122,"x_max":846,"o":"m 122 1010 l 464 1010 q 617 987 552 1010 q 724 922 682 964 q 787 824 766 881 q 807 700 807 767 q 796 606 807 650 q 761 525 784 561 q 702 461 737 489 q 618 417 666 434 l 846 0 l 704 0 l 491 395 q 479 395 485 395 q 466 395 472 395 l 245 395 l 245 0 l 122 0 l 122 1010 m 462 505 q 565 519 522 505 q 635 557 608 532 q 674 619 662 582 q 687 700 687 655 q 674 783 687 746 q 635 847 662 820 q 564 887 607 873 q 460 902 521 902 l 245 902 l 245 505 l 462 505 m 505 1342 l 641 1342 l 487 1113 l 385 1113 l 505 1342 z "},"ŕ":{"ha":517,"x_min":107,"x_max":489,"o":"m 107 758 l 219 758 l 219 643 l 227 643 q 257 694 237 671 q 302 734 276 718 q 359 760 328 751 q 424 769 390 769 q 439 769 431 769 q 456 769 448 769 q 472 768 465 768 q 485 767 480 768 l 485 649 q 475 651 482 650 q 458 654 468 653 q 437 656 449 655 q 414 657 426 657 q 338 644 373 657 q 277 607 303 630 q 237 550 252 583 q 223 479 223 518 l 223 0 l 107 0 l 107 758 m 353 1089 l 489 1089 l 335 860 l 233 860 l 353 1089 z "},"Ŗ":{"ha":888,"x_min":122,"x_max":846,"o":"m 122 1010 l 464 1010 q 617 987 552 1010 q 724 922 682 964 q 787 824 766 881 q 807 700 807 767 q 796 606 807 650 q 761 525 784 561 q 702 461 737 489 q 618 417 666 434 l 846 0 l 704 0 l 491 395 q 479 395 485 395 q 466 395 472 395 l 245 395 l 245 0 l 122 0 l 122 1010 m 462 505 q 565 519 522 505 q 635 557 608 532 q 674 619 662 582 q 687 700 687 655 q 674 783 687 746 q 635 847 662 820 q 564 887 607 873 q 460 902 521 902 l 245 902 l 245 505 l 462 505 m 396 -80 l 515 -80 l 431 -335 l 340 -335 l 396 -80 z "},"ŗ":{"ha":517,"x_min":48,"x_max":485,"o":"m 107 758 l 219 758 l 219 643 l 227 643 q 257 694 237 671 q 302 734 276 718 q 359 760 328 751 q 424 769 390 769 q 439 769 431 769 q 456 769 448 769 q 472 768 465 768 q 485 767 480 768 l 485 649 q 475 651 482 650 q 458 654 468 653 q 437 656 449 655 q 414 657 426 657 q 338 644 373 657 q 277 607 303 630 q 237 550 252 583 q 223 479 223 518 l 223 0 l 107 0 l 107 758 m 104 -80 l 223 -80 l 139 -335 l 48 -335 l 104 -80 z "},"Ř":{"ha":888,"x_min":122,"x_max":846,"o":"m 122 1010 l 464 1010 q 617 987 552 1010 q 724 922 682 964 q 787 824 766 881 q 807 700 807 767 q 796 606 807 650 q 761 525 784 561 q 702 461 737 489 q 618 417 666 434 l 846 0 l 704 0 l 491 395 q 479 395 485 395 q 466 395 472 395 l 245 395 l 245 0 l 122 0 l 122 1010 m 462 505 q 565 519 522 505 q 635 557 608 532 q 674 619 662 582 q 687 700 687 655 q 674 783 687 746 q 635 847 662 820 q 564 887 607 873 q 460 902 521 902 l 245 902 l 245 505 l 462 505 m 438 1176 l 541 1314 l 651 1314 l 651 1306 l 491 1101 l 385 1101 l 225 1306 l 225 1314 l 335 1314 l 438 1176 z "},"ř":{"ha":517,"x_min":73,"x_max":499,"o":"m 107 758 l 219 758 l 219 643 l 227 643 q 257 694 237 671 q 302 734 276 718 q 359 760 328 751 q 424 769 390 769 q 439 769 431 769 q 456 769 448 769 q 472 768 465 768 q 485 767 480 768 l 485 649 q 475 651 482 650 q 458 654 468 653 q 437 656 449 655 q 414 657 426 657 q 338 644 373 657 q 277 607 303 630 q 237 550 252 583 q 223 479 223 518 l 223 0 l 107 0 l 107 758 m 286 923 l 389 1061 l 499 1061 l 499 1054 l 339 848 l 233 848 l 73 1054 l 73 1061 l 183 1061 l 286 923 z "},"Ś":{"ha":886,"x_min":79,"x_max":807,"o":"m 675 758 q 652 824 670 795 q 603 874 633 854 q 533 905 573 894 q 448 915 494 915 q 356 903 398 915 q 286 868 315 890 q 241 815 257 845 q 225 748 225 784 q 234 699 225 721 q 259 660 244 677 q 294 631 274 644 q 336 608 315 618 q 380 592 358 599 q 420 580 401 585 l 523 552 q 580 535 549 545 q 643 510 612 525 q 704 474 675 495 q 756 424 733 453 q 793 359 779 396 q 807 274 807 322 q 783 160 807 213 q 712 67 759 106 q 597 5 665 28 q 442 -18 529 -18 q 295 2 361 -18 q 184 59 230 23 q 110 147 137 96 q 79 260 83 198 l 205 260 q 230 186 209 218 q 282 134 250 154 q 356 103 314 113 q 442 93 397 93 q 540 106 495 93 q 618 143 584 119 q 670 201 651 167 q 689 276 689 235 q 672 341 689 314 q 628 387 655 367 q 564 419 600 406 q 487 444 527 433 l 363 479 q 256 521 304 497 q 176 577 209 545 q 125 650 143 609 q 107 742 107 691 q 133 857 107 805 q 207 946 160 909 q 316 1004 254 983 q 452 1024 379 1024 q 587 1004 525 1024 q 694 948 649 983 q 765 864 739 912 q 793 758 791 815 l 675 758 m 509 1342 l 645 1342 l 491 1113 l 389 1113 l 509 1342 z "},"ś":{"ha":726,"x_min":73,"x_max":657,"o":"m 539 558 q 519 597 531 578 q 487 632 507 617 q 440 657 468 648 q 375 667 413 667 q 310 658 340 667 q 259 635 281 650 q 225 600 238 620 q 213 554 213 579 q 221 516 213 533 q 244 486 228 499 q 285 462 260 472 q 343 444 310 452 l 456 416 q 607 341 557 392 q 657 211 657 291 q 636 121 657 162 q 575 49 614 79 q 482 1 536 18 q 361 -16 427 -16 q 254 -3 303 -16 q 169 35 206 10 q 108 96 132 60 q 73 182 83 133 l 183 209 q 243 117 199 147 q 359 87 287 87 q 433 96 400 87 q 489 122 466 106 q 524 159 511 138 q 537 205 537 181 q 509 272 537 245 q 424 312 482 298 l 298 341 q 145 418 194 366 q 97 548 97 470 q 118 637 97 597 q 176 706 139 677 q 264 751 213 735 q 375 767 315 767 q 475 755 431 767 q 552 718 519 742 q 607 661 584 694 q 643 588 629 628 l 539 558 m 442 1089 l 578 1089 l 424 860 l 322 860 l 442 1089 z "},"Ŝ":{"ha":886,"x_min":79,"x_max":807,"o":"m 675 758 q 652 824 670 795 q 603 874 633 854 q 533 905 573 894 q 448 915 494 915 q 356 903 398 915 q 286 868 315 890 q 241 815 257 845 q 225 748 225 784 q 234 699 225 721 q 259 660 244 677 q 294 631 274 644 q 336 608 315 618 q 380 592 358 599 q 420 580 401 585 l 523 552 q 580 535 549 545 q 643 510 612 525 q 704 474 675 495 q 756 424 733 453 q 793 359 779 396 q 807 274 807 322 q 783 160 807 213 q 712 67 759 106 q 597 5 665 28 q 442 -18 529 -18 q 295 2 361 -18 q 184 59 230 23 q 110 147 137 96 q 79 260 83 198 l 205 260 q 230 186 209 218 q 282 134 250 154 q 356 103 314 113 q 442 93 397 93 q 540 106 495 93 q 618 143 584 119 q 670 201 651 167 q 689 276 689 235 q 672 341 689 314 q 628 387 655 367 q 564 419 600 406 q 487 444 527 433 l 363 479 q 256 521 304 497 q 176 577 209 545 q 125 650 143 609 q 107 742 107 691 q 133 857 107 805 q 207 946 160 909 q 316 1004 254 983 q 452 1024 379 1024 q 587 1004 525 1024 q 694 948 649 983 q 765 864 739 912 q 793 758 791 815 l 675 758 m 442 1239 l 339 1101 l 229 1101 l 229 1109 l 389 1314 l 495 1314 l 655 1109 l 655 1101 l 545 1101 l 442 1239 z "},"ŝ":{"ha":726,"x_min":73,"x_max":657,"o":"m 539 558 q 519 597 531 578 q 487 632 507 617 q 440 657 468 648 q 375 667 413 667 q 310 658 340 667 q 259 635 281 650 q 225 600 238 620 q 213 554 213 579 q 221 516 213 533 q 244 486 228 499 q 285 462 260 472 q 343 444 310 452 l 456 416 q 607 341 557 392 q 657 211 657 291 q 636 121 657 162 q 575 49 614 79 q 482 1 536 18 q 361 -16 427 -16 q 254 -3 303 -16 q 169 35 206 10 q 108 96 132 60 q 73 182 83 133 l 183 209 q 243 117 199 147 q 359 87 287 87 q 433 96 400 87 q 489 122 466 106 q 524 159 511 138 q 537 205 537 181 q 509 272 537 245 q 424 312 482 298 l 298 341 q 145 418 194 366 q 97 548 97 470 q 118 637 97 597 q 176 706 139 677 q 264 751 213 735 q 375 767 315 767 q 475 755 431 767 q 552 718 519 742 q 607 661 584 694 q 643 588 629 628 l 539 558 m 375 986 l 272 848 l 162 848 l 162 856 l 322 1061 l 428 1061 l 588 856 l 588 848 l 477 848 l 375 986 z "},"Ş":{"ha":886,"x_min":79,"x_max":807,"o":"m 675 758 q 652 824 670 795 q 603 874 633 854 q 533 905 573 894 q 448 915 494 915 q 356 903 398 915 q 286 868 315 890 q 241 815 257 845 q 225 748 225 784 q 234 699 225 721 q 259 660 244 677 q 294 631 274 644 q 336 608 315 618 q 380 592 358 599 q 420 580 401 585 l 523 552 q 580 535 549 545 q 643 510 612 525 q 704 474 675 495 q 756 424 733 453 q 793 359 779 396 q 807 274 807 322 q 786 166 807 217 q 723 77 764 116 q 622 14 682 38 q 485 -16 562 -11 l 481 -36 q 519 -46 501 -38 q 552 -68 538 -54 q 575 -103 566 -82 q 584 -152 584 -123 q 571 -210 584 -184 q 531 -256 557 -237 q 467 -285 506 -275 q 377 -296 428 -296 l 373 -219 q 416 -216 396 -219 q 449 -204 435 -212 q 471 -185 463 -197 q 479 -156 479 -173 q 473 -128 479 -139 q 454 -109 467 -116 q 421 -99 441 -103 q 373 -93 401 -95 l 389 -15 q 264 14 319 -9 q 168 72 208 36 q 106 156 129 108 q 79 260 83 204 l 205 260 q 230 186 209 218 q 282 134 250 154 q 356 103 314 113 q 442 93 397 93 q 540 106 495 93 q 618 143 584 119 q 670 201 651 167 q 689 276 689 235 q 672 341 689 314 q 628 387 655 367 q 564 419 600 406 q 487 444 527 433 l 363 479 q 256 521 304 497 q 176 577 209 545 q 125 650 143 609 q 107 742 107 691 q 133 857 107 805 q 207 946 160 909 q 316 1004 254 983 q 452 1024 379 1024 q 587 1004 525 1024 q 694 948 649 983 q 765 864 739 912 q 793 758 791 815 l 675 758 z "},"ş":{"ha":726,"x_min":73,"x_max":657,"o":"m 539 558 q 519 597 531 578 q 487 632 507 617 q 440 657 468 648 q 375 667 413 667 q 310 658 340 667 q 259 635 281 650 q 225 600 238 620 q 213 554 213 579 q 221 516 213 533 q 244 486 228 499 q 285 462 260 472 q 343 444 310 452 l 456 416 q 607 341 557 392 q 657 211 657 291 q 639 128 657 167 q 590 61 622 90 q 512 12 557 32 q 411 -13 467 -7 l 406 -36 q 444 -46 426 -38 q 477 -68 463 -54 q 500 -103 491 -82 q 509 -152 509 -123 q 496 -210 509 -184 q 456 -256 482 -237 q 392 -285 431 -275 q 302 -296 353 -296 l 298 -219 q 341 -216 321 -219 q 374 -204 360 -212 q 396 -185 388 -197 q 404 -156 404 -173 q 398 -128 404 -139 q 379 -109 392 -116 q 346 -99 366 -103 q 298 -93 326 -95 l 314 -13 q 225 6 266 -9 q 154 45 185 21 q 103 104 123 70 q 73 182 82 138 l 183 209 q 243 117 199 147 q 359 87 287 87 q 433 96 400 87 q 489 122 466 106 q 524 159 511 138 q 537 205 537 181 q 509 272 537 245 q 424 312 482 298 l 298 341 q 145 418 194 366 q 97 548 97 470 q 118 637 97 597 q 176 706 139 677 q 264 751 213 735 q 375 767 315 767 q 475 755 431 767 q 552 718 519 742 q 607 661 584 694 q 643 588 629 628 l 539 558 z "},"Š":{"ha":886,"x_min":79,"x_max":807,"o":"m 675 758 q 652 824 670 795 q 603 874 633 854 q 533 905 573 894 q 448 915 494 915 q 356 903 398 915 q 286 868 315 890 q 241 815 257 845 q 225 748 225 784 q 234 699 225 721 q 259 660 244 677 q 294 631 274 644 q 336 608 315 618 q 380 592 358 599 q 420 580 401 585 l 523 552 q 580 535 549 545 q 643 510 612 525 q 704 474 675 495 q 756 424 733 453 q 793 359 779 396 q 807 274 807 322 q 783 160 807 213 q 712 67 759 106 q 597 5 665 28 q 442 -18 529 -18 q 295 2 361 -18 q 184 59 230 23 q 110 147 137 96 q 79 260 83 198 l 205 260 q 230 186 209 218 q 282 134 250 154 q 356 103 314 113 q 442 93 397 93 q 540 106 495 93 q 618 143 584 119 q 670 201 651 167 q 689 276 689 235 q 672 341 689 314 q 628 387 655 367 q 564 419 600 406 q 487 444 527 433 l 363 479 q 256 521 304 497 q 176 577 209 545 q 125 650 143 609 q 107 742 107 691 q 133 857 107 805 q 207 946 160 909 q 316 1004 254 983 q 452 1024 379 1024 q 587 1004 525 1024 q 694 948 649 983 q 765 864 739 912 q 793 758 791 815 l 675 758 m 442 1176 l 545 1314 l 655 1314 l 655 1306 l 495 1101 l 389 1101 l 229 1306 l 229 1314 l 339 1314 l 442 1176 z "},"š":{"ha":726,"x_min":73,"x_max":657,"o":"m 539 558 q 519 597 531 578 q 487 632 507 617 q 440 657 468 648 q 375 667 413 667 q 310 658 340 667 q 259 635 281 650 q 225 600 238 620 q 213 554 213 579 q 221 516 213 533 q 244 486 228 499 q 285 462 260 472 q 343 444 310 452 l 456 416 q 607 341 557 392 q 657 211 657 291 q 636 121 657 162 q 575 49 614 79 q 482 1 536 18 q 361 -16 427 -16 q 254 -3 303 -16 q 169 35 206 10 q 108 96 132 60 q 73 182 83 133 l 183 209 q 243 117 199 147 q 359 87 287 87 q 433 96 400 87 q 489 122 466 106 q 524 159 511 138 q 537 205 537 181 q 509 272 537 245 q 424 312 482 298 l 298 341 q 145 418 194 366 q 97 548 97 470 q 118 637 97 597 q 176 706 139 677 q 264 751 213 735 q 375 767 315 767 q 475 755 431 767 q 552 718 519 742 q 607 661 584 694 q 643 588 629 628 l 539 558 m 375 923 l 477 1061 l 588 1061 l 588 1054 l 428 848 l 322 848 l 162 1054 l 162 1061 l 272 1061 l 375 923 z "},"Ţ":{"ha":892,"x_min":67,"x_max":825,"o":"m 67 1010 l 825 1010 l 825 902 l 507 902 l 507 0 l 506 0 l 499 -36 q 537 -46 518 -38 q 570 -68 555 -54 q 593 -103 584 -82 q 602 -152 602 -123 q 588 -210 602 -184 q 549 -256 575 -237 q 485 -285 523 -275 q 395 -296 446 -296 l 391 -219 q 433 -216 414 -219 q 467 -204 453 -212 q 489 -185 481 -197 q 497 -156 497 -173 q 491 -128 497 -139 q 472 -109 485 -116 q 439 -99 459 -103 q 391 -93 419 -95 l 409 0 l 385 0 l 385 902 l 67 902 l 67 1010 z "},"ţ":{"ha":505,"x_min":43,"x_max":479,"o":"m 436 659 l 274 659 l 274 217 q 283 158 274 180 q 306 123 291 135 q 338 107 320 110 q 375 103 356 103 q 406 105 394 103 q 426 109 419 107 l 450 4 q 423 -4 440 0 q 382 -9 407 -8 l 377 -36 q 415 -46 396 -38 q 447 -68 433 -54 q 471 -103 462 -82 q 479 -152 479 -123 q 466 -210 479 -184 q 427 -256 453 -237 q 362 -285 401 -275 q 272 -296 324 -296 l 268 -219 q 311 -216 291 -219 q 345 -204 330 -212 q 367 -185 359 -197 q 375 -156 375 -173 q 369 -128 375 -139 q 350 -109 363 -116 q 317 -99 337 -103 q 268 -93 296 -95 l 288 2 q 237 28 261 12 q 196 66 214 43 q 168 119 179 89 q 158 185 158 148 l 158 659 l 43 659 l 43 758 l 158 758 l 158 939 l 274 939 l 274 758 l 436 758 l 436 659 z "},"Ť":{"ha":892,"x_min":67,"x_max":825,"o":"m 67 1010 l 825 1010 l 825 902 l 507 902 l 507 0 l 385 0 l 385 902 l 67 902 l 67 1010 m 446 1176 l 548 1314 l 659 1314 l 659 1306 l 499 1101 l 393 1101 l 233 1306 l 233 1314 l 343 1314 l 446 1176 z "},"ť":{"ha":505,"x_min":43,"x_max":477,"o":"m 436 659 l 274 659 l 274 217 q 283 158 274 180 q 306 123 291 135 q 338 107 320 110 q 375 103 356 103 q 406 105 394 103 q 426 109 419 107 l 450 4 q 417 -5 438 0 q 363 -10 396 -10 q 289 2 326 -10 q 223 38 253 14 q 176 99 194 63 q 158 185 158 136 l 158 659 l 43 659 l 43 758 l 158 758 l 158 939 l 274 939 l 274 758 l 436 758 l 436 659 m 358 1107 l 477 1107 l 443 851 l 358 851 l 358 1107 z "},"Ŧ":{"ha":892,"x_min":67,"x_max":825,"o":"m 67 1010 l 825 1010 l 825 902 l 507 902 l 507 566 l 663 566 l 663 475 l 507 475 l 507 0 l 385 0 l 385 475 l 229 475 l 229 566 l 385 566 l 385 902 l 67 902 l 67 1010 z "},"ŧ":{"ha":505,"x_min":43,"x_max":450,"o":"m 43 505 l 158 505 l 158 659 l 43 659 l 43 758 l 158 758 l 158 939 l 274 939 l 274 758 l 436 758 l 436 659 l 274 659 l 274 505 l 436 505 l 436 414 l 274 414 l 274 217 q 283 158 274 180 q 306 123 291 135 q 338 107 320 110 q 375 103 356 103 q 406 105 394 103 q 426 109 419 107 l 450 4 q 417 -5 438 0 q 363 -10 396 -10 q 289 2 326 -10 q 223 38 253 14 q 176 99 194 63 q 158 185 158 136 l 158 414 l 43 414 l 43 505 z "},"Ũ":{"ha":1030,"x_min":122,"x_max":908,"o":"m 908 1010 l 908 341 q 880 198 908 264 q 800 84 852 132 q 677 9 749 36 q 515 -18 604 -18 q 353 9 426 -18 q 229 84 281 36 q 150 198 178 132 q 122 341 122 264 l 122 1010 l 245 1010 l 245 351 q 263 249 245 296 q 316 168 282 202 q 401 116 351 135 q 515 97 452 97 q 628 116 578 97 q 713 168 679 135 q 767 249 748 202 q 785 351 785 296 l 785 1010 l 908 1010 m 272 1105 q 284 1174 272 1143 q 315 1228 295 1205 q 363 1264 335 1251 q 422 1276 391 1276 q 472 1267 450 1276 q 514 1245 494 1257 q 554 1223 534 1233 q 602 1213 575 1213 q 628 1219 616 1213 q 649 1235 640 1225 q 664 1259 658 1245 q 669 1288 669 1273 l 758 1280 q 746 1211 758 1242 q 714 1158 734 1180 q 667 1125 694 1136 q 608 1113 640 1113 q 568 1117 585 1113 q 537 1129 551 1122 q 512 1144 524 1136 q 488 1160 500 1153 q 461 1171 475 1166 q 428 1176 447 1176 q 402 1170 414 1176 q 382 1154 390 1164 q 368 1130 373 1144 q 363 1101 363 1117 l 272 1105 z "},"ũ":{"ha":807,"x_min":107,"x_max":700,"o":"m 584 758 l 700 758 l 700 0 l 584 0 l 584 128 l 576 128 q 542 74 563 100 q 493 30 521 49 q 430 1 465 12 q 351 -10 394 -10 q 253 8 298 -10 q 176 61 208 25 q 125 150 143 96 q 107 276 107 204 l 107 758 l 223 758 l 223 284 q 235 209 223 243 q 270 152 248 176 q 322 115 291 128 q 389 103 353 103 q 456 115 421 103 q 519 153 490 127 q 566 218 547 179 q 584 310 584 256 l 584 758 m 162 852 q 173 922 162 890 q 205 976 185 953 q 253 1011 225 999 q 312 1024 280 1024 q 362 1014 340 1024 q 403 992 383 1004 q 444 971 423 981 q 491 961 465 961 q 518 967 506 961 q 539 983 530 973 q 553 1007 548 993 q 558 1036 558 1020 l 647 1028 q 636 958 647 989 q 604 906 624 927 q 557 872 584 884 q 497 860 529 860 q 457 865 474 860 q 427 876 440 870 q 401 892 413 883 q 377 907 390 900 q 351 919 365 914 q 318 923 336 923 q 292 917 304 923 q 271 901 280 911 q 257 878 262 891 q 253 848 253 864 l 162 852 z "},"Ū":{"ha":1030,"x_min":122,"x_max":908,"o":"m 908 1010 l 908 341 q 880 198 908 264 q 800 84 852 132 q 677 9 749 36 q 515 -18 604 -18 q 353 9 426 -18 q 229 84 281 36 q 150 198 178 132 q 122 341 122 264 l 122 1010 l 245 1010 l 245 351 q 263 249 245 296 q 316 168 282 202 q 401 116 351 135 q 515 97 452 97 q 628 116 578 97 q 713 168 679 135 q 767 249 748 202 q 785 351 785 296 l 785 1010 l 908 1010 m 746 1164 l 284 1164 l 284 1263 l 746 1263 l 746 1164 z "},"ū":{"ha":807,"x_min":107,"x_max":700,"o":"m 584 758 l 700 758 l 700 0 l 584 0 l 584 128 l 576 128 q 542 74 563 100 q 493 30 521 49 q 430 1 465 12 q 351 -10 394 -10 q 253 8 298 -10 q 176 61 208 25 q 125 150 143 96 q 107 276 107 204 l 107 758 l 223 758 l 223 284 q 235 209 223 243 q 270 152 248 176 q 322 115 291 128 q 389 103 353 103 q 456 115 421 103 q 519 153 490 127 q 566 218 547 179 q 584 310 584 256 l 584 758 m 635 911 l 174 911 l 174 1010 l 635 1010 l 635 911 z "},"Ŭ":{"ha":1030,"x_min":122,"x_max":908,"o":"m 908 1010 l 908 341 q 880 198 908 264 q 800 84 852 132 q 677 9 749 36 q 515 -18 604 -18 q 353 9 426 -18 q 229 84 281 36 q 150 198 178 132 q 122 341 122 264 l 122 1010 l 245 1010 l 245 351 q 263 249 245 296 q 316 168 282 202 q 401 116 351 135 q 515 97 452 97 q 628 116 578 97 q 713 168 679 135 q 767 249 748 202 q 785 351 785 296 l 785 1010 l 908 1010 m 720 1263 q 706 1189 720 1223 q 665 1132 691 1156 q 600 1094 638 1108 q 515 1081 562 1081 q 431 1094 469 1081 q 367 1132 393 1108 q 326 1189 340 1156 q 312 1263 312 1223 l 420 1263 q 425 1226 420 1243 q 442 1195 431 1208 q 471 1174 453 1182 q 515 1166 489 1166 q 559 1174 541 1166 q 589 1195 578 1182 q 606 1226 601 1208 q 612 1263 612 1243 l 720 1263 z "},"ŭ":{"ha":807,"x_min":107,"x_max":700,"o":"m 584 758 l 700 758 l 700 0 l 584 0 l 584 128 l 576 128 q 542 74 563 100 q 493 30 521 49 q 430 1 465 12 q 351 -10 394 -10 q 253 8 298 -10 q 176 61 208 25 q 125 150 143 96 q 107 276 107 204 l 107 758 l 223 758 l 223 284 q 235 209 223 243 q 270 152 248 176 q 322 115 291 128 q 389 103 353 103 q 456 115 421 103 q 519 153 490 127 q 566 218 547 179 q 584 310 584 256 l 584 758 m 610 1010 q 595 937 610 970 q 554 879 581 904 q 490 842 528 855 q 404 829 452 829 q 320 842 358 829 q 256 879 283 855 q 216 937 230 904 q 201 1010 201 970 l 310 1010 q 315 973 310 991 q 331 943 320 956 q 361 921 342 929 q 404 913 379 913 q 449 921 431 913 q 479 943 467 929 q 496 973 490 956 q 501 1010 501 991 l 610 1010 z "},"Ů":{"ha":1030,"x_min":122,"x_max":908,"o":"m 908 1010 l 908 341 q 880 198 908 264 q 800 84 852 132 q 677 9 749 36 q 515 -18 604 -18 q 353 9 426 -18 q 229 84 281 36 q 150 198 178 132 q 122 341 122 264 l 122 1010 l 245 1010 l 245 351 q 263 249 245 296 q 316 168 282 202 q 401 116 351 135 q 515 97 452 97 q 628 116 578 97 q 713 168 679 135 q 767 249 748 202 q 785 351 785 296 l 785 1010 l 908 1010 m 515 1079 q 459 1090 485 1079 q 414 1121 433 1102 q 383 1166 395 1140 q 372 1222 372 1193 q 383 1278 372 1252 q 414 1323 395 1304 q 459 1354 433 1343 q 515 1365 485 1365 q 571 1354 545 1365 q 616 1323 597 1343 q 647 1278 635 1304 q 658 1222 658 1252 q 647 1166 658 1193 q 616 1121 635 1140 q 571 1090 597 1102 q 515 1079 545 1079 m 515 1150 q 543 1156 530 1150 q 566 1171 556 1162 q 581 1194 575 1181 q 586 1222 586 1207 q 581 1250 586 1237 q 566 1273 575 1264 q 543 1289 556 1283 q 515 1294 530 1294 q 487 1289 500 1294 q 464 1273 473 1283 q 449 1250 455 1264 q 444 1222 444 1237 q 449 1194 444 1207 q 464 1171 455 1181 q 487 1156 473 1162 q 515 1150 500 1150 z "},"ů":{"ha":807,"x_min":107,"x_max":700,"o":"m 584 758 l 700 758 l 700 0 l 584 0 l 584 128 l 576 128 q 542 74 563 100 q 493 30 521 49 q 430 1 465 12 q 351 -10 394 -10 q 253 8 298 -10 q 176 61 208 25 q 125 150 143 96 q 107 276 107 204 l 107 758 l 223 758 l 223 284 q 235 209 223 243 q 270 152 248 176 q 322 115 291 128 q 389 103 353 103 q 456 115 421 103 q 519 153 490 127 q 566 218 547 179 q 584 310 584 256 l 584 758 m 404 842 q 334 855 367 842 q 277 891 301 868 q 239 944 253 913 q 225 1010 225 975 q 239 1077 225 1046 q 277 1132 253 1109 q 334 1170 301 1156 q 404 1184 367 1184 q 475 1170 442 1184 q 531 1132 507 1156 q 568 1077 555 1109 q 582 1010 582 1046 q 568 944 582 975 q 531 891 555 913 q 475 855 507 868 q 404 842 442 842 m 404 917 q 443 925 425 917 q 473 946 460 933 q 492 976 485 959 q 499 1010 499 992 q 492 1046 499 1029 q 473 1077 485 1063 q 443 1099 460 1090 q 404 1107 425 1107 q 366 1099 384 1107 q 337 1077 349 1090 q 317 1046 324 1063 q 310 1010 310 1029 q 317 976 310 992 q 337 946 324 959 q 366 925 349 933 q 404 917 384 917 z "},"Ű":{"ha":1030,"x_min":122,"x_max":908,"o":"m 908 1010 l 908 341 q 880 198 908 264 q 800 84 852 132 q 677 9 749 36 q 515 -18 604 -18 q 353 9 426 -18 q 229 84 281 36 q 150 198 178 132 q 122 341 122 264 l 122 1010 l 245 1010 l 245 351 q 263 249 245 296 q 316 168 282 202 q 401 116 351 135 q 515 97 452 97 q 628 116 578 97 q 713 168 679 135 q 767 249 748 202 q 785 351 785 296 l 785 1010 l 908 1010 m 696 1302 l 827 1302 l 647 1093 l 545 1093 l 696 1302 m 452 1302 l 580 1302 l 434 1093 l 341 1093 l 452 1302 z "},"ű":{"ha":807,"x_min":107,"x_max":716,"o":"m 584 758 l 700 758 l 700 0 l 584 0 l 584 128 l 576 128 q 542 74 563 100 q 493 30 521 49 q 430 1 465 12 q 351 -10 394 -10 q 253 8 298 -10 q 176 61 208 25 q 125 150 143 96 q 107 276 107 204 l 107 758 l 223 758 l 223 284 q 235 209 223 243 q 270 152 248 176 q 322 115 291 128 q 389 103 353 103 q 456 115 421 103 q 519 153 490 127 q 566 218 547 179 q 584 310 584 256 l 584 758 m 586 1050 l 716 1050 l 537 840 l 434 840 l 586 1050 m 341 1050 l 470 1050 l 324 840 l 231 840 l 341 1050 z "},"Ų":{"ha":1030,"x_min":122,"x_max":908,"o":"m 908 1010 l 908 341 q 886 213 908 273 q 823 107 864 153 q 724 30 782 61 q 593 -12 665 -1 q 556 -42 574 -27 q 526 -75 539 -58 q 505 -110 512 -92 q 497 -148 497 -128 q 508 -183 497 -170 q 548 -195 519 -195 q 588 -189 571 -195 q 616 -178 605 -183 l 623 -264 q 581 -284 607 -275 q 519 -294 554 -294 q 463 -286 489 -294 q 418 -261 437 -277 q 389 -220 400 -244 q 379 -164 379 -196 q 398 -88 379 -125 q 461 -15 417 -50 q 321 23 383 -7 q 214 100 258 53 q 146 208 170 146 q 122 341 122 270 l 122 1010 l 245 1010 l 245 351 q 263 249 245 296 q 316 168 282 202 q 401 116 351 135 q 515 97 452 97 q 628 116 578 97 q 713 168 679 135 q 767 249 748 202 q 785 351 785 296 l 785 1010 l 908 1010 z "},"ų":{"ha":807,"x_min":107,"x_max":712,"o":"m 584 758 l 700 758 l 700 0 q 657 -34 678 -16 q 621 -69 637 -51 q 596 -108 605 -88 q 586 -150 586 -128 q 597 -185 586 -172 q 637 -197 608 -197 q 677 -191 659 -197 q 704 -180 694 -185 l 712 -266 q 670 -286 696 -277 q 608 -296 643 -296 q 552 -288 578 -296 q 507 -263 526 -279 q 478 -222 489 -246 q 468 -166 468 -198 q 474 -121 468 -144 q 494 -76 480 -98 q 531 -33 509 -54 q 584 8 553 -12 l 584 128 l 576 128 q 542 74 563 100 q 493 30 521 49 q 430 1 465 12 q 351 -10 394 -10 q 253 8 298 -10 q 176 61 208 25 q 125 150 143 96 q 107 276 107 204 l 107 758 l 223 758 l 223 284 q 235 209 223 243 q 270 152 248 176 q 322 115 291 128 q 389 103 353 103 q 456 115 421 103 q 519 153 490 127 q 566 218 547 179 q 584 310 584 256 l 584 758 z "},"Ŵ":{"ha":1318,"x_min":30,"x_max":1288,"o":"m 30 1010 l 154 1010 l 365 187 l 375 187 l 590 1010 l 728 1010 l 943 187 l 953 187 l 1164 1010 l 1288 1010 l 1012 0 l 886 0 l 663 805 l 655 805 l 432 0 l 306 0 l 30 1010 m 659 1239 l 556 1101 l 446 1101 l 446 1109 l 606 1314 l 712 1314 l 872 1109 l 872 1101 l 762 1101 l 659 1239 z "},"ŵ":{"ha":1128,"x_min":47,"x_max":1081,"o":"m 47 758 l 170 758 l 333 178 l 341 178 l 503 758 l 627 758 l 787 180 l 795 180 l 959 758 l 1081 758 l 850 0 l 736 0 l 570 582 l 558 582 l 393 0 l 278 0 l 47 758 m 564 986 l 462 848 l 351 848 l 351 856 l 511 1061 l 618 1061 l 777 856 l 777 848 l 667 848 l 564 986 z "},"Ŷ":{"ha":923,"x_min":36,"x_max":888,"o":"m 176 1010 l 456 539 l 468 539 l 748 1010 l 888 1010 l 523 416 l 523 0 l 400 0 l 400 416 l 36 1010 l 176 1010 m 462 1239 l 359 1101 l 249 1101 l 249 1109 l 408 1314 l 515 1314 l 675 1109 l 675 1101 l 564 1101 l 462 1239 z "},"ŷ":{"ha":773,"x_min":47,"x_max":726,"o":"m 182 -284 q 129 -279 152 -284 q 97 -270 106 -275 l 126 -168 q 184 -177 158 -176 q 232 -167 210 -178 q 272 -131 254 -156 q 306 -63 290 -107 l 327 -4 l 47 758 l 174 758 l 383 154 l 391 154 l 600 758 l 726 758 l 404 -110 q 316 -242 371 -199 q 182 -284 261 -284 m 387 986 l 284 848 l 174 848 l 174 856 l 333 1061 l 440 1061 l 600 856 l 600 848 l 489 848 l 387 986 z "},"Ÿ":{"ha":923,"x_min":36,"x_max":888,"o":"m 176 1010 l 456 539 l 468 539 l 748 1010 l 888 1010 l 523 416 l 523 0 l 400 0 l 400 416 l 36 1010 l 176 1010 m 320 1136 q 290 1143 304 1136 q 265 1160 276 1149 q 247 1186 254 1171 q 241 1215 241 1200 q 247 1247 241 1233 q 265 1272 254 1261 q 290 1288 276 1282 q 320 1294 304 1294 q 351 1288 337 1294 q 376 1272 365 1282 q 393 1247 387 1261 q 399 1215 399 1233 q 393 1186 399 1200 q 376 1160 387 1171 q 351 1143 365 1149 q 320 1136 337 1136 m 604 1136 q 574 1143 588 1136 q 549 1160 560 1149 q 531 1186 538 1171 q 525 1215 525 1200 q 531 1247 525 1233 q 549 1272 538 1261 q 574 1288 560 1282 q 604 1294 588 1294 q 635 1288 621 1294 q 660 1272 650 1282 q 677 1247 671 1261 q 683 1215 683 1233 q 677 1186 683 1200 q 660 1160 671 1171 q 635 1143 650 1149 q 604 1136 621 1136 z "},"Ź":{"ha":868,"x_min":83,"x_max":785,"o":"m 89 89 l 633 902 l 83 902 l 83 1010 l 779 1010 l 779 921 l 235 109 l 785 109 l 785 0 l 89 0 l 89 89 m 501 1342 l 637 1342 l 483 1113 l 381 1113 l 501 1342 z "},"ź":{"ha":752,"x_min":85,"x_max":679,"o":"m 85 89 l 515 641 l 515 649 l 99 649 l 99 758 l 665 758 l 665 665 l 247 116 l 247 109 l 679 109 l 679 0 l 85 0 l 85 89 m 442 1089 l 578 1089 l 424 860 l 322 860 l 442 1089 z "},"Ż":{"ha":868,"x_min":83,"x_max":785,"o":"m 89 89 l 633 902 l 83 902 l 83 1010 l 779 1010 l 779 921 l 235 109 l 785 109 l 785 0 l 89 0 l 89 89 m 434 1136 q 402 1143 417 1136 q 376 1160 387 1149 q 358 1185 364 1170 q 351 1215 351 1199 q 358 1246 351 1232 q 376 1271 364 1260 q 402 1288 387 1282 q 434 1294 417 1294 q 466 1288 451 1294 q 492 1271 481 1282 q 510 1246 504 1260 q 517 1215 517 1232 q 510 1185 517 1199 q 492 1160 504 1170 q 466 1143 481 1149 q 434 1136 451 1136 z "},"ż":{"ha":752,"x_min":85,"x_max":679,"o":"m 85 89 l 515 641 l 515 649 l 99 649 l 99 758 l 665 758 l 665 665 l 247 116 l 247 109 l 679 109 l 679 0 l 85 0 l 85 89 m 375 884 q 343 890 358 884 q 316 907 327 896 q 299 932 305 918 q 292 963 292 946 q 299 993 292 979 q 316 1018 305 1008 q 343 1036 327 1029 q 375 1042 358 1042 q 407 1036 392 1042 q 433 1018 422 1029 q 451 993 444 1008 q 458 963 458 979 q 451 932 458 946 q 433 907 444 918 q 407 890 422 896 q 375 884 392 884 z "},"Ž":{"ha":868,"x_min":83,"x_max":785,"o":"m 89 89 l 633 902 l 83 902 l 83 1010 l 779 1010 l 779 921 l 235 109 l 785 109 l 785 0 l 89 0 l 89 89 m 434 1176 l 537 1314 l 647 1314 l 647 1306 l 487 1101 l 381 1101 l 221 1306 l 221 1314 l 331 1314 l 434 1176 z "},"ž":{"ha":752,"x_min":85,"x_max":679,"o":"m 85 89 l 515 641 l 515 649 l 99 649 l 99 758 l 665 758 l 665 665 l 247 116 l 247 109 l 679 109 l 679 0 l 85 0 l 85 89 m 375 923 l 477 1061 l 588 1061 l 588 1054 l 428 848 l 322 848 l 162 1054 l 162 1061 l 272 1061 l 375 923 z "},"ſ":{"ha":371,"x_min":20,"x_max":351,"o":"m 20 0 l 20 810 q 36 916 20 870 q 83 993 52 962 q 156 1040 113 1024 q 254 1056 200 1056 q 303 1053 278 1056 q 351 1043 327 1049 l 335 942 q 276 948 312 948 q 186 912 217 948 q 156 810 156 875 l 156 0 l 20 0 z "},"ƀ":{"ha":862,"x_min":-36,"x_max":791,"o":"m 122 823 l -36 823 l -36 913 l 122 913 l 122 1010 l 239 1010 l 239 913 l 399 913 l 399 823 l 239 823 l 239 637 l 249 637 q 263 661 255 647 q 284 689 272 674 q 312 717 296 703 q 351 743 328 731 q 402 761 373 754 q 468 767 431 767 q 599 740 540 767 q 701 662 658 713 q 767 539 744 611 q 791 377 791 467 q 767 214 791 287 q 701 91 744 142 q 600 12 659 39 q 470 -16 541 -16 q 404 -9 433 -16 q 353 9 375 -2 q 314 35 330 21 q 285 64 297 49 q 264 92 272 78 q 249 116 255 106 l 235 116 l 235 0 l 122 0 l 122 823 m 237 379 q 251 261 237 315 q 293 169 265 208 q 361 110 320 131 q 454 89 401 89 q 550 111 509 89 q 619 173 591 134 q 661 265 647 213 q 675 379 675 318 q 661 491 675 439 q 620 581 647 543 q 551 641 592 619 q 454 663 509 663 q 360 642 400 663 q 292 584 320 622 q 251 495 265 547 q 237 379 237 442 z "},"Ɓ":{"ha":1115,"x_min":67,"x_max":1036,"o":"m 333 902 l 270 902 q 223 891 241 902 q 196 864 206 881 q 184 825 187 847 q 182 779 182 803 l 182 742 l 67 742 l 67 809 q 80 887 67 850 q 119 951 93 924 q 182 994 145 979 q 268 1010 219 1010 l 687 1010 q 824 989 766 1010 q 921 931 882 968 q 978 846 959 895 q 996 742 996 798 q 983 657 996 693 q 947 596 970 621 q 895 555 924 571 q 833 531 865 540 l 833 521 q 904 502 868 519 q 969 453 940 484 q 1017 375 998 421 q 1036 268 1036 328 q 1017 163 1036 212 q 957 77 997 113 q 852 20 916 41 q 698 0 788 0 l 333 0 l 333 902 m 698 109 q 800 121 759 109 q 869 155 842 134 q 907 206 895 177 q 919 268 919 235 q 904 342 919 307 q 861 402 889 376 q 794 444 834 429 q 704 460 754 460 l 456 460 l 456 109 l 698 109 m 683 566 q 760 579 724 566 q 823 614 796 591 q 865 670 849 637 q 880 742 880 702 q 869 804 880 775 q 834 855 857 834 q 773 889 810 876 q 687 902 737 902 l 456 902 l 456 566 l 683 566 z "},"Ƃ":{"ha":908,"x_min":122,"x_max":836,"o":"m 122 1010 l 732 1010 l 732 902 l 245 902 l 245 586 l 501 586 q 645 566 582 586 q 750 508 708 545 q 815 417 793 470 q 836 298 836 364 q 815 177 836 232 q 750 83 793 122 q 645 22 708 44 q 501 0 582 0 l 122 0 l 122 1010 m 501 107 q 593 123 553 107 q 661 166 633 139 q 702 228 688 193 q 716 300 716 263 q 702 368 716 336 q 661 425 688 400 q 593 463 633 449 q 501 477 553 477 l 245 477 l 245 107 l 501 107 z "},"ƃ":{"ha":862,"x_min":122,"x_max":791,"o":"m 690 902 l 239 902 l 239 637 l 249 637 q 263 661 255 647 q 284 689 272 674 q 312 717 296 703 q 351 743 328 731 q 402 761 373 754 q 468 767 431 767 q 599 740 540 767 q 701 662 658 713 q 767 539 744 611 q 791 377 791 467 q 767 214 791 287 q 701 91 744 142 q 600 12 659 39 q 470 -16 541 -16 q 404 -9 433 -16 q 353 9 375 -2 q 314 35 330 21 q 285 64 297 49 q 264 92 272 78 q 249 116 255 106 l 235 116 l 235 0 l 122 0 l 122 1010 l 690 1010 l 690 902 m 237 379 q 251 261 237 315 q 293 169 265 208 q 361 110 320 131 q 454 89 401 89 q 550 111 509 89 q 619 173 591 134 q 661 265 647 213 q 675 379 675 318 q 661 491 675 439 q 620 581 647 543 q 551 641 592 619 q 454 663 509 663 q 360 642 400 663 q 292 584 320 622 q 251 495 265 547 q 237 379 237 442 z "},"Ƅ":{"ha":992,"x_min":14,"x_max":965,"o":"m 373 586 l 629 586 q 773 566 711 586 q 878 508 836 545 q 943 417 921 470 q 965 298 965 364 q 943 177 965 232 q 878 83 921 122 q 773 22 836 44 q 629 0 711 0 l 251 0 l 251 902 l 14 902 l 14 1010 l 373 1010 l 373 586 m 373 107 l 629 107 q 721 123 681 107 q 789 166 762 139 q 830 228 816 193 q 844 300 844 263 q 830 368 844 336 q 789 425 816 400 q 721 463 762 449 q 629 477 681 477 l 373 477 l 373 107 z "},"ƅ":{"ha":876,"x_min":51,"x_max":840,"o":"m 193 1042 l 193 1010 l 288 1010 l 288 637 l 298 637 q 313 661 304 647 q 333 689 321 674 q 362 717 345 703 q 400 743 378 731 q 451 761 422 754 q 517 767 480 767 q 648 740 589 767 q 750 662 708 713 q 817 539 793 611 q 840 377 840 467 q 817 214 840 287 q 751 91 793 142 q 649 12 708 39 q 519 -16 590 -16 q 454 -9 482 -16 q 402 9 425 -2 q 363 35 380 21 q 334 64 347 49 q 313 92 322 78 q 298 116 304 106 l 284 116 l 284 0 l 172 0 l 172 710 l 162 710 l 51 848 l 51 904 l 162 1042 l 193 1042 m 724 379 q 710 491 724 439 q 669 581 696 543 q 600 641 642 619 q 503 663 559 663 q 409 642 450 663 q 342 584 369 622 q 300 495 314 547 q 286 379 286 442 q 300 261 286 315 q 342 169 315 208 q 410 110 369 131 q 503 89 451 89 q 599 111 558 89 q 668 173 641 134 q 710 265 696 213 q 724 379 724 318 z "},"Ɔ":{"ha":1010,"x_min":75,"x_max":927,"o":"m 197 316 q 236 223 209 263 q 300 156 262 183 q 384 114 338 128 q 481 101 431 101 q 610 127 550 101 q 714 204 670 153 q 783 331 758 255 q 809 505 809 407 q 783 679 809 604 q 714 806 758 755 q 610 883 670 857 q 481 909 550 909 q 384 896 431 909 q 300 854 338 882 q 236 787 262 827 q 197 694 209 747 l 75 694 q 126 834 89 772 q 216 937 162 895 q 338 1001 270 979 q 481 1024 405 1024 q 660 988 579 1024 q 801 885 742 952 q 894 721 861 817 q 927 505 927 625 q 894 289 927 385 q 801 126 861 193 q 660 22 742 59 q 481 -14 579 -14 q 338 9 405 -14 q 216 73 270 31 q 126 177 162 115 q 75 316 89 238 l 197 316 z "},"Ƈ":{"ha":1071,"x_min":83,"x_max":1083,"o":"m 813 694 q 775 787 802 747 q 710 854 748 827 q 626 896 672 882 q 529 909 579 909 q 400 883 460 909 q 296 806 340 857 q 227 679 252 755 q 201 505 201 604 q 227 331 201 407 q 296 204 252 255 q 400 127 340 153 q 529 101 460 101 q 626 114 579 101 q 710 156 672 128 q 775 223 748 183 q 813 316 802 263 l 935 316 q 885 177 921 238 q 794 73 848 115 q 673 9 740 31 q 529 -14 605 -14 q 406 2 464 -14 q 298 50 348 19 q 209 126 249 81 q 141 228 169 171 q 98 356 113 286 q 83 505 83 425 q 98 654 83 585 q 141 782 113 724 q 209 884 169 839 q 298 960 249 929 q 406 1008 348 991 q 529 1024 464 1024 q 698 993 620 1024 q 832 902 775 962 q 861 954 843 932 q 903 993 879 977 q 956 1016 927 1008 q 1016 1024 984 1024 q 1052 1023 1034 1024 q 1083 1018 1070 1022 l 1083 919 q 1066 922 1076 921 q 1046 923 1056 923 q 1002 918 1022 923 q 967 902 981 913 q 944 870 952 890 q 935 821 935 850 l 935 694 l 813 694 z "},"ƈ":{"ha":848,"x_min":71,"x_max":860,"o":"m 596 531 q 575 581 589 557 q 537 623 560 604 q 483 652 514 641 q 414 663 453 663 q 322 643 363 663 q 250 585 280 622 q 204 496 220 548 q 187 379 187 443 q 203 259 187 313 q 249 168 219 206 q 321 109 279 130 q 414 89 363 89 q 478 98 448 89 q 531 124 508 107 q 571 165 554 141 q 596 221 588 190 l 712 221 q 681 127 705 171 q 619 53 657 84 q 529 2 581 21 q 414 -16 477 -16 q 271 13 334 -16 q 163 94 207 42 q 95 218 118 146 q 71 375 71 290 q 95 534 71 462 q 165 658 120 606 q 273 739 210 710 q 412 767 335 767 q 520 752 470 767 q 608 708 569 736 q 637 761 618 738 q 679 800 655 784 q 732 824 703 816 q 793 833 761 833 q 829 832 811 833 q 860 827 847 831 l 860 728 q 843 731 853 729 q 823 732 833 732 q 779 727 799 732 q 744 710 759 722 q 721 679 729 698 q 712 629 712 659 l 712 531 l 596 531 z "},"Ɖ":{"ha":998,"x_min":-34,"x_max":915,"o":"m 122 0 l 122 475 l -34 475 l -34 566 l 122 566 l 122 1010 l 448 1010 q 645 976 558 1010 q 792 876 732 941 q 884 718 852 811 q 915 507 915 625 q 884 295 915 389 q 790 135 852 201 q 639 35 729 70 q 434 0 549 0 l 122 0 m 426 109 q 590 136 520 109 q 706 215 659 164 q 774 341 752 267 q 797 507 797 415 q 775 672 797 599 q 707 796 752 745 q 596 874 662 847 q 440 902 529 902 l 245 902 l 245 566 l 400 566 l 400 475 l 245 475 l 245 109 l 426 109 z "},"Ɗ":{"ha":1217,"x_min":67,"x_max":1134,"o":"m 67 809 q 80 887 67 850 q 119 951 93 924 q 182 994 145 979 q 268 1010 219 1010 l 667 1010 q 864 976 777 1010 q 1011 876 951 941 q 1103 718 1071 811 q 1134 507 1134 625 q 1103 295 1134 389 q 1009 135 1071 201 q 858 35 948 70 q 653 0 768 0 l 341 0 l 341 902 l 270 902 q 223 891 241 902 q 196 864 206 881 q 184 825 187 847 q 182 779 182 803 l 182 742 l 67 742 l 67 809 m 645 109 q 809 136 739 109 q 925 215 878 164 q 993 341 971 267 q 1016 507 1016 415 q 994 672 1016 599 q 926 796 971 745 q 815 874 881 847 q 659 902 748 902 l 464 902 l 464 109 l 645 109 z "},"Ƌ":{"ha":876,"x_min":81,"x_max":795,"o":"m 418 0 q 274 22 337 0 q 168 83 211 44 q 103 177 125 122 q 81 298 81 232 q 103 418 81 364 q 168 510 125 472 q 274 569 211 548 q 418 590 337 590 l 655 590 l 655 874 l 187 874 l 187 988 l 795 988 l 795 0 l 418 0 m 655 475 l 418 475 q 329 462 366 475 q 268 424 291 448 q 234 368 245 400 q 223 300 223 336 q 234 229 223 263 q 268 169 245 195 q 329 128 291 144 q 418 112 366 112 l 655 112 l 655 475 z "},"ƌ":{"ha":862,"x_min":71,"x_max":740,"o":"m 740 1010 l 740 0 l 627 0 l 627 116 l 614 116 q 599 92 607 106 q 577 64 590 78 q 548 35 565 49 q 509 9 532 21 q 458 -9 487 -2 q 393 -16 429 -16 q 262 12 322 -16 q 161 91 203 39 q 95 214 118 142 q 71 377 71 287 q 95 539 71 467 q 161 662 118 611 q 263 740 204 713 q 395 767 323 767 q 460 761 432 767 q 511 743 489 754 q 550 717 534 731 q 578 689 566 703 q 599 661 590 674 q 614 637 607 647 l 623 637 l 623 902 l 172 902 l 172 1010 l 740 1010 m 625 379 q 612 495 625 442 q 570 584 598 547 q 502 642 543 622 q 408 663 462 663 q 311 641 353 663 q 242 581 270 619 q 201 491 215 543 q 187 379 187 439 q 201 265 187 318 q 243 173 216 213 q 312 111 271 134 q 408 89 354 89 q 502 110 461 89 q 569 169 542 131 q 611 261 597 208 q 625 379 625 315 z "},"ƍ":{"ha":750,"x_min":47,"x_max":704,"o":"m 128 -254 l 128 -150 l 428 -150 q 407 -126 422 -142 q 372 -92 392 -110 q 333 -55 353 -73 q 296 -24 312 -37 q 196 70 241 24 q 117 164 150 116 q 66 264 84 213 q 47 373 47 315 l 47 387 q 69 541 47 471 q 133 661 91 611 q 236 740 176 712 q 375 767 297 767 q 514 740 453 767 q 617 661 575 712 q 682 541 659 611 q 704 387 704 471 l 704 373 q 684 258 704 312 q 624 160 663 203 q 528 89 585 117 q 399 51 471 60 q 391 50 394 51 q 385 50 388 50 q 381 49 383 49 q 375 49 379 49 q 436 -6 404 22 q 497 -61 467 -34 q 557 -117 528 -89 q 610 -174 585 -145 l 610 -254 l 128 -254 m 568 387 q 557 495 568 445 q 523 581 546 545 q 463 638 499 618 q 375 659 426 659 q 288 638 325 659 q 228 581 252 618 q 193 495 204 545 q 182 387 182 445 l 182 373 q 192 298 182 333 q 219 233 202 262 q 258 181 236 204 q 304 142 280 158 q 331 136 317 138 q 363 134 345 134 q 455 154 416 134 q 519 206 494 173 q 556 282 544 239 q 568 373 568 326 l 568 387 z "},"Ǝ":{"ha":831,"x_min":91,"x_max":708,"o":"m 708 0 l 99 0 l 99 109 l 586 109 l 586 450 l 130 450 l 130 558 l 586 558 l 586 902 l 91 902 l 91 1010 l 708 1010 l 708 0 z "},"Ə":{"ha":1002,"x_min":93,"x_max":911,"o":"m 486 -14 q 326 17 399 -14 q 202 105 254 47 q 121 247 150 163 q 93 440 93 331 l 93 525 l 769 525 l 769 543 q 749 697 769 629 q 689 812 729 765 q 591 883 650 859 q 454 908 532 908 q 340 895 399 908 q 221 856 281 883 l 187 959 q 241 985 210 973 q 308 1005 272 997 q 383 1019 344 1014 q 462 1024 423 1024 q 648 990 565 1024 q 790 894 731 957 q 880 743 848 832 q 911 543 911 654 l 911 464 q 898 333 911 396 q 859 218 885 271 q 797 122 834 165 q 712 49 760 79 q 608 2 665 19 q 486 -14 551 -14 m 233 418 l 233 397 q 251 269 233 324 q 301 176 268 213 q 381 120 334 139 q 484 101 427 101 q 598 123 548 101 q 685 188 649 146 q 742 288 721 229 q 768 418 763 347 l 233 418 z "},"Ɛ":{"ha":876,"x_min":81,"x_max":795,"o":"m 548 458 l 438 458 q 277 413 331 458 q 223 278 223 369 q 239 196 223 230 q 285 140 256 162 q 352 109 313 119 q 435 99 391 99 q 532 112 491 99 q 600 150 573 126 q 641 206 628 174 q 655 274 655 238 l 795 274 q 781 183 795 224 q 744 110 768 142 q 687 55 720 78 q 613 16 653 32 q 528 -6 574 1 q 436 -14 483 -14 q 345 -7 389 -14 q 260 15 300 0 q 188 53 221 30 q 131 107 155 75 q 94 178 108 138 q 81 268 81 218 q 127 425 81 363 q 255 516 172 487 q 189 555 218 532 q 139 606 160 577 q 108 671 119 635 q 97 747 97 706 q 123 863 97 812 q 196 950 150 915 q 306 1005 243 986 q 441 1024 368 1024 q 578 1005 516 1024 q 686 951 641 986 q 756 865 731 915 q 781 752 781 815 l 641 752 q 628 816 641 787 q 588 865 614 844 q 526 898 563 886 q 441 909 488 909 q 352 897 391 909 q 289 863 314 885 q 250 810 263 841 q 237 742 237 779 q 248 678 237 709 q 283 623 258 647 q 345 585 307 599 q 438 570 383 570 l 548 570 l 548 543 l 548 458 z "},"Ƒ":{"ha":815,"x_min":-24,"x_max":728,"o":"m 122 1010 l 728 1010 l 728 902 l 245 902 l 245 560 l 683 560 l 683 452 l 245 452 l 245 -81 q 186 -232 245 -179 q 14 -284 128 -284 q 9 -284 11 -284 q 3 -283 7 -284 q -7 -282 0 -283 q -24 -278 -13 -281 l -24 -178 q -6 -180 -16 -179 q 14 -182 3 -182 q 57 -177 37 -182 q 92 -160 77 -172 q 114 -128 106 -148 q 122 -79 122 -109 l 122 1010 z "},"ƒ":{"ha":537,"x_min":20,"x_max":517,"o":"m 450 633 l 312 633 l 312 -49 q 256 -224 312 -164 q 97 -284 201 -284 q 57 -282 76 -284 q 20 -274 39 -280 l 30 -168 q 44 -172 35 -170 q 64 -174 54 -173 q 83 -175 74 -175 q 97 -176 92 -176 q 134 -167 117 -176 q 163 -142 150 -158 q 182 -102 176 -126 q 189 -49 189 -79 l 189 633 l 67 633 l 67 734 l 189 734 l 189 809 q 205 915 189 869 q 249 992 221 961 q 316 1039 277 1023 q 400 1055 355 1055 q 431 1054 415 1055 q 463 1050 447 1053 q 493 1045 479 1048 q 517 1038 508 1042 l 487 931 q 463 937 477 934 q 432 939 450 939 q 342 907 372 939 q 312 809 312 874 l 312 734 l 450 734 l 450 633 z "},"Ɠ":{"ha":1073,"x_min":83,"x_max":1085,"o":"m 813 694 q 770 784 797 744 q 708 852 744 824 q 625 894 671 879 q 525 909 580 909 q 399 883 458 909 q 296 806 339 857 q 227 679 252 755 q 201 505 201 604 q 227 331 201 407 q 297 204 252 255 q 402 127 341 153 q 533 101 463 101 q 650 121 597 101 q 743 181 704 142 q 803 274 781 219 q 827 397 825 328 l 560 397 l 560 505 l 945 505 l 945 397 q 914 227 945 303 q 829 97 884 151 q 699 15 774 44 q 533 -14 623 -14 q 349 22 432 -14 q 207 126 266 59 q 115 289 148 193 q 83 505 83 385 q 115 721 83 625 q 207 885 148 817 q 346 988 265 952 q 525 1024 428 1024 q 701 990 621 1024 q 838 895 781 956 q 905 976 860 948 q 1018 1004 949 1004 q 1054 1003 1036 1004 q 1085 998 1072 1003 l 1085 900 q 1068 902 1078 901 q 1048 904 1058 904 q 1004 899 1024 904 q 969 882 983 894 q 945 850 954 870 q 937 801 937 831 l 937 704 q 938 699 938 702 q 939 694 939 697 l 813 694 z "},"Ɣ":{"ha":876,"x_min":14,"x_max":862,"o":"m 146 1010 l 436 322 l 730 1010 l 862 1010 l 500 171 q 549 61 527 108 q 588 -22 572 14 q 613 -85 604 -58 q 621 -134 621 -111 q 609 -205 621 -174 q 573 -257 596 -236 q 515 -289 549 -278 q 438 -300 481 -300 q 361 -289 395 -300 q 303 -257 327 -278 q 267 -205 280 -236 q 254 -134 254 -174 q 263 -82 254 -110 q 287 -18 271 -55 q 325 65 303 18 q 375 177 347 113 l 14 1010 l 146 1010 m 439 30 q 414 -27 425 -2 q 395 -71 402 -51 q 383 -106 387 -91 q 379 -134 379 -122 q 395 -174 379 -158 q 438 -189 411 -189 q 462 -185 451 -189 q 481 -173 473 -181 q 493 -155 489 -165 q 497 -134 497 -145 q 493 -107 497 -122 q 482 -72 490 -92 q 464 -28 475 -53 q 439 30 453 -3 z "},"ƕ":{"ha":1314,"x_min":107,"x_max":1207,"o":"m 107 1010 l 223 1010 l 223 639 l 233 639 q 266 692 246 669 q 313 733 286 716 q 376 758 340 749 q 456 767 411 767 q 562 750 514 767 q 643 697 609 733 q 696 608 677 662 q 714 481 714 554 l 714 300 q 721 223 714 255 q 739 166 727 190 q 764 128 750 143 q 795 104 779 113 q 827 92 811 95 q 858 89 843 89 q 918 102 889 89 q 973 143 947 114 q 1020 215 999 171 q 1058 322 1042 259 q 1082 468 1074 385 q 1091 655 1091 550 l 1091 758 l 1207 758 l 1207 655 q 1195 441 1207 537 q 1160 271 1182 345 q 1104 143 1137 197 q 1032 54 1072 89 q 947 3 993 19 q 850 -14 901 -14 q 751 4 798 -14 q 671 61 705 23 q 618 159 637 100 q 598 300 598 218 l 598 473 q 586 554 598 519 q 551 613 574 589 q 496 650 528 638 q 422 663 463 663 q 343 649 379 663 q 280 609 306 635 q 238 544 253 582 q 223 456 223 506 l 223 0 l 107 0 l 107 1010 z "}}}
